<?xml version="1.0" encoding="utf-8"?>
<!-- Generator: Adobe Illustrator 25.2.3, SVG Export Plug-In . SVG Version: 6.00 Build 0)  -->
<svg version="1.1" id="Layer_1" xmlns="http://www.w3.org/2000/svg" xmlns:xlink="http://www.w3.org/1999/xlink" x="0px" y="0px"
	 viewBox="0 0 1417 404" style="enable-background:new 0 0 1417 404;" xml:space="preserve">
<style type="text/css">
	.st0{fill:#FFFFFF;}
</style>
<g transform="translate(0.000000,404.000000) scale(0.100000,-0.100000)">
	<g>
		<path class="st0" d="M2540,3445c0-3,0-636,0-1407V635h206h206l-1,723l-2,722h151h150v-725V630h190h190v1410v1410h-190h-190v-465
			v-465h-150h-150v465v465h-205C2632,3450,2540,3448,2540,3445z"/>
		<path class="st0" d="M1007,3173c-4-3-7-447-7-985v-978h630h630v985v985l-202-2l-203-3v-253v-252h-227h-228v255v255h-193
			C1100,3180,1010,3177,1007,3173z M1853,1923l-2-298l-226-3l-225-2v300v300h228h227L1853,1923z"/>
	</g>
	<g>
		<path class="st0" d="M7890,1903l1-618l-40-17c-56-23-264-82-404-113c-219-48-376-66-634-72l-243-6V917V757l178,6
			c499,19,865,107,1090,263l62,43V870V670h175h175v925v925h-180h-180V1903z"/>
		<path class="st0" d="M6870,2394c-101-36-175-114-205-218c-22-73-21-452,1-525c19-65,87-141,159-179l50-27h255c253,0,255,0,310,26
			c70,33,116,79,149,149c25,53,26,63,29,278c3,202,2,229-17,291c-25,82-80,150-155,189c-51,27-52,27-291,29
			C6956,2409,6907,2407,6870,2394z M7248,2146c15-8,38-26,52-41c24-25,25-33,28-164c4-159-6-198-60-231c-27-16-50-20-126-20
			c-100,0-129,9-172,55c-24,25-25,33-28,168s-2,144,20,177c35,53,78,70,176,70C7190,2160,7231,2155,7248,2146z"/>
	</g>
	<g>
		<path class="st0" d="M5700,2675v-765h210h210v260v260h150h150v210v210h-150h-150v295v295h-210h-210V2675z"/>
		<path class="st0" d="M3932,2633l3-638l728-3l727-2v175v175h-520h-520v270v270h485h485v195v195h-695h-695L3932,2633z"/>
		<path class="st0" d="M4120,1665v-135h765h765v-75v-75h-765h-765l2-377l3-378l993-3l992-2v155v155h-785h-785v75v75h785h785v360v360
			h-995h-995V1665z"/>
	</g>
	<g>
		<path class="st0" d="M11164,3357c-2-7-3-85-2-172l3-160l338-3c185-1,337-6,337-11c0-17-59-88-121-145c-113-105-328-229-486-280
			l-53-18v-143v-144l88,24c364,98,722,283,896,463l49,51l88-84c229-217,559-367,887-401l63-7l-3,128l-3,128l-99,33
			c-215,72-366,164-496,301c-44,46-80,89-80,94s138,9,345,9h345v175v175h-1045C11370,3370,11168,3368,11164,3357z"/>
		<path class="st0" d="M11990,2305v-145h-490h-490v-190v-190h1205h1205v190v190h-490h-491l2,143l1,142l-226,3l-226,2V2305z"/>
		<path class="st0" d="M11150,1400v-190l858-2l857-3l-3-70c-5-138-55-341-108-447c-13-26-24-52-24-58s70-10,204-10h203l33,73
			c18,39,46,124,63,187c29,112,30,122,36,413l6,297h-1062h-1063V1400z"/>
	</g>
	<g>
		<path class="st0" d="M10340,2533v-908l212,2l213,2v903v903l-212,3l-213,2V2533z"/>
		<path class="st0" d="M8570,2575v-685h705h705v685v685h-705h-705V2575z M9573,2573l-2-298l-301-3l-300-2v300v300h303h302L9573,2573
			z"/>
		<path class="st0" d="M8815,1558c-3-7-4-220-3-473l3-460l993-3l992-2v200v200h-785h-785v275v275h-205
			C8870,1570,8818,1567,8815,1558z"/>
	</g>
</g>
</svg>
