<?xml version="1.0" encoding="utf-8"?>
<!-- Generator: Adobe Illustrator 25.2.3, SVG Export Plug-In . SVG Version: 6.00 Build 0)  -->
<svg version="1.1" id="Layer_1" xmlns="http://www.w3.org/2000/svg" xmlns:xlink="http://www.w3.org/1999/xlink" x="0px" y="0px"
	 viewBox="0 0 152.2 181.9" style="enable-background:new 0 0 152.2 181.9;" xml:space="preserve">
<style type="text/css">
	.st0{clip-path:url(#SVGID_2_);}
	.st1{fill:#003B87;}
	.st2{clip-path:url(#SVGID_4_);}
	.st3{fill:#FFFFFF;}
	.st4{fill-rule:evenodd;clip-rule:evenodd;fill:#FFFFFF;}
</style>
<g id="로고_02" transform="translate(-17 -1642)">
	<g id="그룹_2293" transform="translate(111 1683)">
		<g id="그룹_2288">
			<g>
				<g>
					<defs>
						<rect id="SVGID_1_" x="-94" y="-41.1" width="152.3" height="182.1"/>
					</defs>
					<clipPath id="SVGID_2_">
						<use xlink:href="#SVGID_1_"  style="overflow:visible;"/>
					</clipPath>
					<g id="그룹_2287" class="st0">
						<path id="패스_14411" class="st1" d="M-17.9,141c-42,0-76.1-40.8-76.1-91s34.2-91.1,76.1-91.1s76.2,40.8,76.2,91
							S24.1,141-17.9,141 M-17.9-38.5c-40.5,0-73.5,39.7-73.5,88.4s33,88.4,73.5,88.4s73.5-39.7,73.5-88.4S22.7-38.5-17.9-38.5"/>
					</g>
				</g>
			</g>
		</g>
		<g id="그룹_2290" transform="translate(.119 .119)">
			<g>
				<g>
					<defs>
						<path id="SVGID_3_" d="M-94,49.8c0,50.1,34.1,90.9,76,90.9s76-40.8,76-90.9S24-41.1-18-41.1S-94-0.3-94,49.8"/>
					</defs>
					<clipPath id="SVGID_4_">
						<use xlink:href="#SVGID_3_"  style="overflow:visible;"/>
					</clipPath>
					<g id="그룹_2289" class="st2">
						<path id="패스_14412" class="st3" d="M12.3,111.9l-0.4-0.6c-2-3.1-3.9-6.4-5.6-9.7C3.2,95.7,0,89.5-5.1,85.1
							c0,0-0.1,0-0.1-0.1v-0.1l-0.4-0.2C-6,84.4-6.8,84-7.9,83.4c-1-0.5-2.5-1.4-3.2-1.9c4.7-9.7,14.2-33,15.1-39.4
							c1.6-11.4-3.2-19.8-8.3-22.7c-7.3-4.2-14.7,1.3-15,1.5c-2.9,2.6-5.1,6-6.3,9.7c-1.7,5.4-2.2,19.3-1.8,26.6
							c0.2,3.2,1,4.9,2.6,5.4c1.9,0.6,4-1.3,4.8-2.4c1-1,2-2,2.9-3.1c-1.2,3.2-2.6,6.4-4.2,9.5c-1.9,3.8-6.3,11.6-7.9,14.5
							c-0.1,0-0.3-0.1-0.5,0c-0.7,0.1-1.5,0.2-2.2,0.3c-1.8,0.2-3.7,0.5-5.5,1h-0.1l0,0c-1.3,0.4-2.6,1-3.7,1.7
							c-1.8,1.3-3.5,2.7-5,4.3c-1.1,1.2-2.4,2.4-3.8,3.7c-3.4,3.1-6.9,6.4-7.9,10.2c-1.4,5.7,2.6,8.1,5.2,9.7l0.1,0.1
							c0.3,0.2,0.5,0.3,0.8,0.5c1.6,1,3.4,2.2,5.5,2.3c1,0.2,2.1-0.1,3-0.6c0.4-0.3,0.7-0.6,0.9-1c0.1-0.2,0.3-0.4,0.5-0.5
							s0.4-0.2,0.6-0.2c0.3-0.1,0.6-0.2,0.8-0.3c0.7-0.3,1.4-0.9,1.8-1.6c0.4-0.6,0.6-1.3,0.7-2c0.1-0.3,0.1-0.7,0-1
							c0-0.4,0-0.5,0.1-0.7l0,0c0.1,0,0.1-0.1,0.2-0.1v9.2l29.7,0.3c0.6,1.5,1.5,2.9,2.6,4.1s2.9,1.6,4.4,1.1c0.7-0.2,1.4-0.2,2-0.1
							c0.5,0.2,0.9,0.4,1.3,0.7c0.8,0.7,1.8,1.2,2.9,1.2c0.9,0,1.8-0.2,2.6-0.7c0.4-0.2,0.8-0.4,1.2-0.4c0.6,0.1,1.2,0.3,1.7,0.5
							c1,0.4,2,0.7,3,0.8c0.5,0,0.9-0.1,1.3-0.4c0.7-0.5,1.1-1.3,1-2.2C16.5,117.9,14,114.4,12.3,111.9"/>
						<path id="패스_14413" class="st1" d="M-11.7,81.7l-9.5,23.9l-8.2-24.2l-8.2,1.1v0.2c0,5.2,0,10.4,0,15.5
							c0.4,0.1,0.8,0.2,1.2,0.5c0.3,0.3,0.4,0.8,0.3,1.2c-0.1,0.2-0.3,0.4-0.5,0.6c-0.3,0.3-0.6,0.7-0.8,1.2
							c-0.1,0.1-0.1,0.3-0.1,0.4v4.8v9.2l31,0.3l1.4-31.5L-11.7,81.7z M-36.7,96.5c-0.1,0-0.1,0-0.2-0.1
							C-36.8,96.5-36.7,96.5-36.7,96.5 M-35.1,97.3c-0.2-0.1-0.4-0.3-0.6-0.4C-35.5,97-35.3,97.2-35.1,97.3 M-36,96.8
							c-0.1,0-0.2-0.1-0.3-0.1C-36.2,96.7-36.1,96.7-36,96.8"/>
						<path id="패스_14414" class="st1" d="M-20.9,91.3c-0.4,0-0.9-0.2-1.1-0.5l-2.4-3.5c-0.2-0.3-0.2-0.8,0-1.1
							c0.3-0.3,0.7-0.5,1.1-0.5h4.9c0.4,0,0.9,0.2,1.1,0.5s0.2,0.8,0,1.1l-2.4,3.5C-20,91.1-20.5,91.3-20.9,91.3"/>
						<path id="패스_14415" class="st1" d="M-22.7,115c-0.3,0-0.5-0.1-0.7-0.3c-0.2-0.1-0.3-0.4-0.3-0.6l1.9-25.5
							c0.2-0.6,0.7-0.9,1.3-0.7c0.4,0.1,0.6,0.4,0.7,0.7l1.5,25.6c0,0.2-0.1,0.5-0.3,0.6c-0.2,0.2-0.5,0.3-0.7,0.2L-22.7,115z"/>
						<path id="패스_14416" class="st3" d="M-22,102.3l-0.4-0.7l-4.8,2.4l0.1-1.7l2.7-1.8l-6.7-2.7l-0.6,1.6
							c-0.2-0.2-0.5-0.4-0.8-0.5c-1.4-0.7-3.1,0-3.8,1.4l-1.2,2.9c-0.5,1.5,0.3,3.1,1.7,3.7c0.3,0.1,0.6,0.2,0.9,0.2l-0.8,1.9
							l8.1,3.3l0.2-4L-22,102.3z M-35.5,105.8c-1-0.3-1.5-1.4-1.1-2.4l1.2-2.9c0.4-0.9,1.5-1.3,2.4-0.9c0.3,0.1,0.6,0.3,0.8,0.6
							l-2.3,5.7C-34.8,106-35.2,105.9-35.5,105.8"/>
						<path id="패스_14417" class="st3" d="M-23.3,103.6c0,0,0.9-1.9,2.4-1.3c1.8,0.8,1.3,6.1,1.3,6.1h1.5c0,0,0.1-6.4-2.6-6.7
							S-23.3,103.6-23.3,103.6"/>
						<path id="선_2587" class="st3" d="M-26.7,24.4L2.5,20"/>
						<path id="패스_14418" class="st1" d="M2.4,19.2l-6.4,1l-4.6-8.7C-8.7,11.2-9,11-9.3,11h-0.1l-9,2.6
							c-0.3,0.1-0.5,0.3-0.5,0.6l-1.5,8.4l-6.3,0.9c-0.4,0.1-0.8,0.5-0.7,0.9c0.1,0.4,0.4,0.7,0.8,0.7h0.1l29.2-4.4
							c0.4-0.1,0.8-0.5,0.7-0.9C3.2,19.5,2.8,19.2,2.4,19.2"/>
						<path id="패스_14419" class="st1" d="M-27.1,49.1c0.3-0.5,0.8-0.9,1.4-1.1c1.4-0.6,2.9-0.5,4.2,0.4c1.6,1.2,2.7-0.1,4.4,0.4
							c1.6,0.4,2.9,1.4,3.7,2.9c-2.5,3.3-6.1,9.1-10.5,10.4c-1.5,0.3-2.4-1.9-2.8-2.9c-0.7-2.5-1-5.1-0.7-7.7
							C-27.5,50.7-27.4,49.9-27.1,49.1"/>
						<path id="패스_14420" class="st1" d="M-20.8,42.3c0,0.6-0.4,1.1-1,1.1s-1.1-0.4-1.1-1s0.4-1.1,1-1.1l0,0
							C-21.3,41.3-20.8,41.7-20.8,42.3"/>
						<path id="패스_14421" class="st1" d="M-13.8,43.8c0,0.6-0.4,1.1-1,1.1s-1.1-0.4-1.1-1s0.4-1.1,1-1.1l0,0
							C-14.3,42.8-13.8,43.2-13.8,43.8"/>
						<path id="패스_14422" class="st1" d="M12.3,111.9l-0.4-0.6c-2-3.1-3.9-6.4-5.6-9.7C3.2,95.7,0,89.5-5.1,85.1
							C-6,84.5-7,83.9-8,83.4s-2.5-1.4-3.2-1.9c4.8-9.7,14.3-33,15.2-39.4c1.6-11.4-3.2-19.7-8.3-22.7c-7.3-4.2-14.7,1.3-15,1.5
							c-2.9,2.6-5.1,6-6.3,9.7c-1.7,5.4-2.2,19.3-1.8,26.6c0.2,3.2,1,4.9,2.6,5.4c1.9,0.6,4-1.3,4.8-2.4c1-1,2-2,2.9-3.1
							c-1.2,3.2-2.6,6.4-4.2,9.5c-1.9,3.8-6.3,11.6-7.9,14.5c-0.1,0-0.3-0.1-0.5,0c-0.7,0.1-1.5,0.2-2.2,0.3
							c-3.1,0.4-6.6,0.9-9.3,2.8c-1.8,1.3-3.5,2.7-5,4.3c-1.1,1.2-2.4,2.4-3.8,3.7c-3.4,3.1-6.9,6.4-7.9,10.2
							c-1.4,5.7,2.6,8.1,5.2,9.7l0.1,0.1c0.3,0.2,0.5,0.3,0.8,0.5c1.6,1,3.4,2.2,5.5,2.3c1,0.2,2.1-0.1,3-0.6c0.4-0.3,0.7-0.6,0.9-1
							c0.1-0.2,0.3-0.4,0.5-0.5s0.4-0.2,0.6-0.2c0.3-0.1,0.6-0.2,0.8-0.3c0.7-0.3,1.4-0.9,1.8-1.6c0.4-0.6,0.6-1.3,0.7-2
							c0.1-0.3,0.1-0.7,0-1c0-0.4,0-0.5,0.1-0.7l0,0c0.1,0,0.1-0.1,0.2-0.1c1-0.5,1.7-1.6,1.8-2.7c0-0.2,0-0.5,0-0.8s0-0.6,0.1-1
							c0.1-0.2,0.3-0.4,0.5-0.6c0.3-0.3,0.6-0.7,0.8-1.1c0.6-1.2,0.3-2.7-0.8-3.6c-2-1.6-4.6-0.9-6.6-0.2c-1,0.4-2.1,0.9-3,1.5
							c-0.5,0.3-0.6,0.9-0.3,1.3c0.3,0.5,0.9,0.6,1.3,0.3c0.9-0.5,1.8-1,2.7-1.3c2.3-0.9,3.7-0.9,4.7-0.1c0.3,0.3,0.4,0.8,0.3,1.2
							c-0.1,0.2-0.3,0.4-0.5,0.6c-0.3,0.3-0.6,0.7-0.8,1.2c-0.2,0.6-0.3,1.1-0.2,1.7c0,0.2,0,0.4,0,0.6c0,0.5-0.3,1-0.7,1.2h-0.1
							c-0.3,0.1-0.5,0.3-0.7,0.5c-0.5,0.6-0.6,1.3-0.5,2c0,0.2,0,0.4,0,0.6c-0.1,0.5-0.2,0.9-0.5,1.3c-0.2,0.4-0.6,0.7-1,0.8
							c-0.2,0.1-0.3,0.1-0.5,0.2c-0.5,0.1-0.9,0.3-1.3,0.5c-0.3,0.3-0.6,0.6-0.9,1c-0.1,0.2-0.3,0.4-0.4,0.5
							c-0.5,0.3-1.2,0.4-1.8,0.3c-1.5-0.1-3.1-1.1-4.5-2c-0.3-0.2-0.5-0.3-0.8-0.5l-0.1-0.1c-2.6-1.6-5.4-3.3-4.3-7.6
							c0.8-3.3,4.1-6.3,7.3-9.2c1.4-1.3,2.8-2.5,3.9-3.8c1.4-1.5,2.9-2.9,4.6-4.1c2.3-1.6,5.4-2,8.4-2.4l0.9-0.1l-0.6,2.7
							c-0.1,0.5,0.2,1,0.7,1.1c0.1,0,0.1,0,0.2,0l18.5,0.2c0.5,0,1-0.4,1-1V86l-0.2-2.5c0.6,0.3,1.3,0.7,2.3,1.3
							c1,0.5,2.3,1.3,2.5,1.4c4.8,4.2,7.9,10.2,10.9,16c1.7,3.4,3.6,6.7,5.7,9.9l0.4,0.6c1.5,2.2,3.8,5.5,3.7,7.9
							c0,0.4-0.1,0.6-0.2,0.7c-0.4,0.2-1.8-0.3-2.6-0.6c-0.8-0.4-1.6-0.6-2.5-0.6c-0.7,0.1-1.4,0.3-2,0.7c-0.5,0.3-1,0.5-1.6,0.5
							c-0.7-0.1-1.3-0.4-1.8-0.8c-0.6-0.5-1.3-0.9-2-1.1c-1-0.2-1.9-0.1-2.9,0.1c-1.1,0.2-1.7,0.4-2.6-0.6c-1.2-1.4-2.2-3.1-2.8-4.9
							l-0.3-0.7c-0.2-0.5-0.8-0.7-1.2-0.5s-0.7,0.8-0.5,1.2l0,0l0.3,0.7c0.7,2,1.8,3.9,3.2,5.5c1.1,1.2,2.9,1.6,4.4,1.1
							c0.7-0.2,1.4-0.2,2-0.1c0.5,0.2,0.9,0.4,1.3,0.7c0.8,0.7,1.8,1.2,2.9,1.2c0.9,0,1.8-0.2,2.6-0.7c0.4-0.2,0.8-0.4,1.2-0.4
							c0.6,0.1,1.2,0.3,1.7,0.5c1,0.4,2,0.7,3,0.8c0.5,0,0.9-0.1,1.3-0.4c0.7-0.5,1.1-1.3,1-2.2C16.5,117.9,14.1,114.4,12.3,111.9
							 M-19.6,67.6c2.8-5.5,5.3-12,5.9-14.8c2.1-2.9,3.9-6,5.4-9.2c0.2-0.5,0-1.1-0.5-1.3s-1,0-1.2,0.5c-1.3,2.8-2.8,5.5-4.6,8
							c-0.5,0.1-0.8,0.5-0.8,0.9c0,0.1,0,0.2,0,0.3c-1.8,2.5-3.8,4.9-5.9,7.1l-0.1,0.1c-0.7,1-2.1,1.9-2.8,1.7
							c-0.2-0.1-1-0.6-1.2-3.7c-0.4-7.1,0.1-20.7,1.7-25.9c1.1-3.4,3-6.4,5.6-8.8c0.1-0.1,6.6-4.9,12.9-1.4s8.4,13.1,7.3,20.7
							c-1,6.4-11.4,31.9-15.7,40.3l-7.9,3l-6.2-2.9C-26.1,79.5-21.6,71.4-19.6,67.6 M-28.9,83.8l3.1,1.4h-3.4L-28.9,83.8z
							 M-16.6,85.4L-13,84l0.1,1.4H-16.6z"/>
						<path id="패스_14423" class="st1" d="M-7.5,117.1h-68.9c-0.6,0-1-0.5-1-1c0-0.6,0.5-1,1-1h68.9c0.6,0,1,0.5,1,1
							S-6.9,117.1-7.5,117.1"/>
						<path id="패스_14424" class="st1" d="M41.8,117.1H14.2c-0.6,0-1-0.5-1-1c0-0.6,0.5-1,1-1l0,0h27.7c0.6,0,1,0.5,1,1
							S42.4,117.1,41.8,117.1"/>
						<path id="패스_14425" class="st3" d="M-13.9,107.3c-0.4,0-0.9,0.1-1.2,0.3v-0.1h-7.6l-1.1,9.6h9.8l-0.5-4.1
							c0.2,0.1,0.4,0.1,0.6,0.1c1.6,0,2.9-1.4,2.9-3C-11.1,108.6-12.3,107.3-13.9,107.3 M-13.9,112c-0.3,0-0.5-0.1-0.8-0.2l-0.3-3.1
							c0.3-0.3,0.7-0.4,1.1-0.4c1,0,1.8,0.8,1.8,1.9C-12,111.2-12.9,112-13.9,112"/>
						<path id="패스_14426" class="st1" d="M-15.7,110.6l-6.5,0.1l-0.4,5.8l7.3-0.1L-15.7,110.6z"/>
					</g>
				</g>
			</g>
		</g>
		<g id="그룹_2292">
			<g>
				<g>
					<g id="그룹_2291">
						<path id="패스_14428" class="st4" d="M-16.8,130.7c0,0.1,0.1,0.2,0.1,0.2c0,0.1,0.1,0.2,0.1,0.2c0.1,0.1,0.1,0.1,0.2,0.1
							l0.1,0.1c0.2,0,0.4-0.1,0.5-0.2c0,0,0.1-0.1,0.1-0.2s0.1-0.1,0.1-0.1s0.1-0.1,0.1-0.2v-0.1c0,0,0.1,0,0.1-0.1s0-0.1,0-0.1
							c0.1-0.2,0.3-0.5,0.4-0.8c0.1-0.2,0.1-0.4,0.2-0.4c0.4,0,0.5,0.4,0.7,0.7c0.1,0.2,0.2,0.5,0.1,0.8c0,0.1,0,0.3-0.1,0.4
							c-0.1,0.2-0.1,0.4-0.2,0.6c0,0.1,0,0.1-0.1,0.2c-0.1,0.1-0.1,0.2-0.2,0.3c0,0.1-0.1,0.1-0.1,0.2c-0.1,0.1-0.1,0.1-0.2,0.2l0,0
							c0,0.1-0.1,0.2-0.2,0.2c-0.1,0-0.1,0.1-0.2,0.2h-0.1l-0.1,0.1l0,0c-0.1,0.1-0.2,0.1-0.3,0.1c-0.4,0.1-0.7,0.2-1.1,0.1
							c0,0-0.1,0-0.1-0.1c-0.1,0-0.2-0.1-0.3-0.1h-0.1c0,0,0-0.1-0.1-0.1s-0.1,0-0.1,0l0,0c-0.1,0-0.1-0.1-0.2-0.1
							c0,0,0-0.1-0.1-0.1c-0.1-0.1-0.3-0.2-0.3-0.3v-0.1c-0.1-0.1-0.2-0.3-0.2-0.4c-0.1-0.2-0.1-0.4-0.2-0.4s-0.2,0.3-0.3,0.4
							s-0.1,0.2-0.1,0.2l-0.1,0.2c0,0-0.1,0.1-0.2,0.2c0,0,0,0.1-0.1,0.1c-0.1,0.2-0.3,0.3-0.4,0.4c-0.3,0.1-0.6,0.1-0.9,0
							c-0.2,0-0.3-0.1-0.5-0.2c-0.1-0.1-0.2-0.2-0.3-0.3l-0.1-0.1c-0.1-0.1-0.2-0.4-0.3-0.4c-0.1,0-0.1,0.1-0.2,0.2
							c-0.1,0.1-0.2,0.2-0.3,0.3c-0.1,0.1-0.2,0.2-0.2,0.2c-0.1,0-0.2,0.1-0.2,0.1c-0.3,0.2-0.6,0.2-0.9,0.2c-0.1,0-0.2-0.1-0.3-0.1
							c-0.3-0.1-0.5-0.3-0.7-0.6c0,0,0-0.1-0.1-0.1c-0.1-0.1-0.2-0.2-0.2-0.4v-0.1c-0.1-0.1-0.1-0.2-0.1-0.3c-0.1-0.4-0.1-0.7,0-1.1
							c0-0.1,0-0.1,0-0.2s0-0.1,0-0.2c0-0.1,0.1-0.2,0.1-0.3c0.1-0.2,0.1-0.4,0.2-0.5c0,0,0.1-0.1,0.1-0.2c0-0.1,0.1-0.2,0.1-0.2
							c0-0.1,0.1-0.2,0.2-0.2c0-0.1,0.1-0.1,0.1-0.2c0.1-0.1,0.1-0.2,0.2-0.3c0,0,0,0,0.1-0.1s0-0.1,0-0.1s0.1,0,0.1-0.1
							c0.1-0.1,0.1-0.1,0.1-0.2c0.2-0.2,0.3-0.3,0.5-0.4c0.1-0.1,0.2-0.2,0.4-0.2c0.1,0,0.1,0,0.2-0.1c0.2-0.1,0.5-0.1,0.7-0.1
							s0.4,0.1,0.5,0.1s0.1,0.1,0.2,0.1s0.2-0.1,0.3-0.1c0.1,0,0.2-0.1,0.3-0.1c0.2,0,0.3,0.1,0.4,0.3c0.1,0.1,0.1,0.3,0.1,0.4
							c0,0.4,0,0.7-0.1,1.1c0,0.1,0,0.3-0.1,0.4v0.1c-0.1,0.5-0.2,0.9-0.1,1.4c0,0.1,0.1,0.2,0.1,0.3c0.2,0,0.3-0.3,0.5-0.4l0,0
							l0.1-0.1l0,0c0,0,0-0.1,0.1-0.1s0.1-0.1,0.1-0.1c0.1-0.1,0.1-0.2,0.2-0.3c0-0.1,0.1-0.2,0.1-0.3s0.1-0.2,0.2-0.3
							s0.1-0.2,0.1-0.3s0-0.3,0-0.4c0-0.8,0-1.7,0.2-2.5c0-0.1,0-0.2,0.1-0.3c0-0.1,0.1-0.3,0.1-0.4s0.1-0.2,0.1-0.3
							s0.1-0.2,0.1-0.3c0-0.1,0-0.1,0.1-0.1s0-0.1,0-0.2s0.1-0.1,0.1-0.2s0.1-0.1,0.1-0.2c0.1-0.1,0.2-0.3,0.3-0.4c0,0,0,0,0-0.1
							c0.1-0.1,0.2-0.2,0.3-0.3h0.1c0.1,0,0.1-0.1,0.1-0.1c0.1,0,0.3,0,0.4-0.1c0.2,0,0.3,0,0.5,0c0.1,0,0.2,0.1,0.3,0.1
							c0.2,0.1,0.3,0.2,0.5,0.4c0,0.1,0.1,0.1,0.1,0.2c0.1,0.1,0.1,0.2,0.2,0.3c0,0.1,0,0.2,0.1,0.2l0,0c0,0.1,0.1,0.3,0.1,0.4
							c0.1,0.5,0.2,1,0.2,1.5c0,0.3-0.1,0.7-0.2,1l-0.1,0.1v0.1c-0.1,0.2-0.1,0.4-0.2,0.6c-0.1,0.2-0.1,0.4-0.2,0.6
							c0,0-0.1,0-0.1,0.1s0,0.1,0,0.1c-0.1,0.1-0.1,0.2-0.2,0.3c-0.1,0.2-0.3,0.5-0.4,0.7c0,0,0,0,0,0.1s0,0.1,0,0.1
							c-0.1,0.1-0.1,0.1-0.2,0.2s-0.1,0.2-0.2,0.2S-16.8,130.6-16.8,130.7 M-17,128.6c0.1-0.3,0.2-0.5,0.4-0.8c0,0,0,0,0-0.1
							s0-0.1,0-0.1l0.1-0.1c0-0.1,0-0.2,0.1-0.3c0.1-0.4,0.2-0.7,0.2-1.1s-0.1-0.7-0.3-1c-0.1,0-0.1,0-0.1,0
							c-0.1,0.1-0.2,0.2-0.3,0.3c0,0.1-0.1,0.2-0.1,0.4c0,0.1-0.1,0.3-0.1,0.4s0,0.3,0,0.4s-0.1,0.3-0.1,0.4c0,0.5,0,1,0,1.5
							c0,0.1,0,0.3,0.1,0.4C-17.1,128.8-17.1,128.7-17,128.6 M-22.3,128.8c-0.2,0.1-0.3,0.2-0.5,0.3c-0.1,0.1-0.2,0.3-0.3,0.4
							c-0.1,0.1-0.2,0.2-0.2,0.3c-0.1,0.2-0.2,0.4-0.3,0.6c-0.1,0.3-0.1,0.6,0,0.9c0,0.1,0.1,0.2,0.1,0.2c0.2,0.4,0.5,0,0.7-0.3h0.1
							v-0.1l0.1-0.1c0.1-0.1,0.1-0.2,0.2-0.3c0.2-0.3,0.3-0.6,0.5-1c0.2-0.3,0.2-0.6,0.1-0.9C-22,128.8-22.2,128.7-22.3,128.8"/>
						<path id="패스_14429" class="st4" d="M-12.9,131.5c0.2,0,0.4,0,0.6,0c0.2,0.1,0.4,0.3,0.5,0.5s0.1,0.4,0,0.6
							c0,0.2-0.1,0.4-0.3,0.5c-0.1,0.1-0.3,0.2-0.5,0.2c-0.2,0.1-0.4,0.1-0.6,0c-0.3,0-0.5-0.2-0.7-0.4c-0.1-0.3-0.1-0.6,0-0.9
							c0.1-0.1,0.2-0.3,0.3-0.3c0,0,0,0,0-0.1s0,0,0,0c0.1,0,0.1-0.1,0.1-0.1h0.1h0.1C-13.1,131.5-13,131.5-12.9,131.5"/>
						<path id="패스_14430" class="st1" d="M-38.3,2.1c-0.7-1.2-0.3-2.7,0.9-3.4s2.7-0.3,3.4,0.9s0.3,2.7-0.9,3.4
							S-37.6,3.3-38.3,2.1L-38.3,2.1"/>
						<path id="패스_14431" class="st4" d="M-31.4,125.5c-0.1,0-0.2,0.1-0.3,0.1c-0.2,0.1-0.4,0.2-0.6,0.3c-0.2,0.1-0.3,0.1-0.5,0
							c-0.1-0.1-0.2-0.2-0.3-0.3l0,0v-0.1c0-0.1-0.1-0.1-0.1-0.2s0-0.2,0-0.3c0-0.1,0-0.2,0-0.2c0.1-0.2,0.2-0.3,0.3-0.5
							c0.1-0.1,0.3-0.2,0.5-0.3c0.2-0.1,0.3-0.2,0.5-0.3c0.1,0,0.2-0.1,0.3-0.1l0.1-0.1c0,0,0.1,0,0.2,0c0.2-0.1,0.4-0.1,0.5-0.2
							c0.2-0.1,0.4-0.1,0.6-0.1s0.4-0.1,0.6-0.1s0.5,0,0.7,0s0.4,0,0.7,0c0.1,0,0.2,0.1,0.3,0.1h0.1c0.3,0.1,0.5,0.2,0.7,0.4
							c0.1,0.1,0.1,0.1,0.2,0.2s0.4,0.3,0.5,0.4s0.2,0.2,0.2,0.3c0.1,0.1,0.2,0.2,0.2,0.3v0.1l0,0v0.1c0,0,0.1,0,0.1,0.1v0.1
							c0,0.1,0.1,0.1,0.1,0.2s0,0.1,0.1,0.2c0.1,0.3,0.2,0.6,0.3,0.9c0.2,0.9,0.2,1.9,0.2,2.8c0,0.2,0,0.4,0,0.5v0.1
							c0,0.1,0,0.3,0,0.4c0,0.2-0.1,0.3-0.1,0.5c-0.1,0.3-0.2,0.6-0.3,0.9c-0.1,0.2-0.2,0.3-0.3,0.4c-0.1,0.1-0.2,0.2-0.3,0.3
							c-0.1,0.1-0.3,0.2-0.4,0.3c-0.1,0-0.1,0.1-0.2,0.1l-0.1,0.1c-0.1,0.1-0.2,0.1-0.3,0.1c0,0-0.1,0-0.2,0.1
							c-0.1,0-0.3,0.1-0.4,0.1c-0.4,0.1-0.9,0.1-1.3,0h-0.1h-0.1c-0.1,0-0.1,0-0.2-0.1c-0.1,0-0.1,0-0.2,0s-0.2,0.1-0.3,0.1
							c-0.3,0.1-0.6,0.2-0.9,0.1c-0.1,0-0.3-0.1-0.4-0.2c0,0,0-0.1-0.1-0.1s-0.1,0-0.1,0v-0.1h-0.1v-0.1l-0.1-0.1c0-0.2,0-0.5,0-0.7
							c0-0.7,0-1.4,0-2.2c0.1-0.7,0.1-1.4,0.1-2.1c0-0.2,0-0.5,0-0.7c0-0.3,0.1-0.5,0.1-0.8C-31.4,126-31.4,125.8-31.4,125.5
							 M-29.3,131.3c0.2,0,0.4,0,0.6,0c0.1,0,0.3-0.1,0.4-0.1s0.1,0,0.2-0.1c0.1,0,0.1-0.1,0.2-0.1c0,0,0,0,0.1,0
							c0.2-0.2,0.3-0.3,0.5-0.5l0,0l0,0c0,0,0,0,0-0.1s0,0,0,0v-0.1c0-0.1,0.1-0.1,0.1-0.2c0-0.3,0.1-0.5,0.1-0.8c0-0.2,0-0.3,0-0.5
							c0-0.1,0-0.3,0-0.4c0-0.2,0-0.3,0-0.5s-0.1-0.4-0.1-0.6c0-0.3-0.1-0.6-0.2-0.9c0-0.1,0-0.2,0-0.2c-0.1-0.1-0.2-0.3-0.3-0.4
							c0-0.1-0.1-0.1-0.1-0.2c-0.1-0.1-0.2-0.2-0.3-0.2l-0.1-0.1c-0.2-0.2-0.5-0.3-0.8-0.2c-0.2,0-0.3,0.1-0.4,0.2
							c-0.2,2-0.3,4.1-0.2,6.1C-29.5,131.3-29.4,131.3-29.3,131.3"/>
						<path id="패스_14432" class="st4" d="M-6.7,128.1c0,0.1,0.1,0.2,0.2,0.3l0,0v0.1l0,0c0,0.1,0,0.1,0.1,0.2
							c0.1,0.1,0.1,0.1,0.2,0.2C-6.1,129-6,129-6,129.1c0.1,0.1,0.2,0.3,0.4,0.4s0.2,0.3,0.4,0.4s0.2,0.3,0.4,0.4
							c0.1,0.1,0.1,0.1,0.2,0.2s0.1,0.1,0.2,0.2c0.1,0.1,0.1,0.2,0.2,0.3l0,0l0,0c0.1,0.1,0.3,0.3,0.4,0.5c0.2,0.2,0.3,0.4,0.4,0.6
							c0,0.1,0.1,0.3,0,0.4c0,0.1-0.1,0.2-0.1,0.3s0,0.1,0,0.1c-0.1,0.1-0.2,0.2-0.3,0.2s-0.1,0-0.2,0c-0.1,0-0.1,0.1-0.2,0.1
							c-0.5,0.1-0.9-0.1-1.2-0.5v-0.1l-0.1-0.1l0,0v-0.1l0,0c0,0,0,0,0-0.1s-0.1-0.1-0.1-0.2c-0.1-0.1-0.1-0.2-0.2-0.3l-0.1-0.1
							v-0.1c0,0-0.1-0.1-0.1-0.2c0,0,0,0,0-0.1s0-0.1,0-0.1c-0.1-0.1-0.3-0.3-0.4-0.4v-0.1c-0.1-0.1-0.2-0.2-0.3-0.4v-0.1h-0.1
							c0,0,0-0.1-0.1-0.1c0-0.1-0.1-0.1-0.2-0.1l0,0l0,0c0,0,0,0,0-0.1c-0.1-0.1-0.2-0.3-0.4-0.3c0,0.2-0.1,0.4,0,0.7
							c0,0.4,0,0.9,0,1.4c0,0.3,0,0.6,0,0.8c0,0.1,0,0.1-0.1,0.2v0.1l0,0c-0.1,0.2-0.2,0.3-0.4,0.4c-0.2,0.1-0.4,0.2-0.6,0.1
							c-0.2,0-0.3-0.1-0.4-0.2c0,0,0,0,0-0.1c-0.1,0-0.1-0.1-0.1-0.1c-0.1-0.2-0.2-0.4-0.3-0.6c-0.1-0.3-0.1-0.5-0.1-0.8
							c0-0.6,0-1.1,0-1.7c0.1-0.7,0-1.4,0.1-2.2c0-0.4,0-0.7,0-1.1s0.1-0.7,0.1-1.1c0-0.3,0-0.7,0-1.1c0-0.3,0-0.7,0.1-1
							c0.1-0.1,0.4-0.2,0.7-0.2c0.1,0,0.2-0.1,0.4-0.1c0.1,0,0.3-0.1,0.4,0c0.1,0,0.2,0.1,0.3,0.1c0.1,0.1,0.2,0.2,0.2,0.3
							c0,0.2,0,0.4-0.1,0.6c0,0.2,0,0.4,0,0.6c0,0.6,0,1.2,0,1.8c0.1,0,0.2-0.1,0.3-0.2l0.1-0.1V126l0,0c0.1-0.1,0.2-0.2,0.3-0.4
							c0.1-0.1,0.1-0.2,0.2-0.2c0.1-0.1,0.1-0.3,0.2-0.4l0,0c0-0.1,0.1-0.1,0.2-0.2c0-0.1,0.1-0.1,0.1-0.2c0,0,0,0,0.1-0.1
							s0.1-0.2,0.2-0.2c0-0.1,0.1-0.1,0.1-0.2l0.1-0.1c0.2-0.2,0.3-0.4,0.5-0.6l0.1-0.1c0.3-0.3,0.8-0.5,1.2-0.4
							c0.1,0,0.2,0.1,0.3,0.1s0.1,0,0.1,0c0.1,0,0.2,0.1,0.2,0.2c0.2,0.1,0.3,0.3,0.3,0.5c0,0.1-0.1,0.2-0.1,0.2s0,0.1-0.1,0.1H-3
							c-0.1,0.1-0.1,0.1-0.2,0.1c-0.1,0.1-0.2,0.1-0.3,0.2s-0.3,0.3-0.4,0.4H-4c-0.1,0.1-0.3,0.3-0.4,0.4s-0.2,0.2-0.3,0.3
							s-0.2,0.2-0.3,0.3s-0.2,0.2-0.3,0.3c-0.1,0.1-0.1,0.2-0.2,0.3v0.1c0,0-0.1,0-0.1,0.1s0,0.1,0,0.1c0,0.1-0.1,0.1-0.1,0.2
							C-6.4,127.6-6.5,127.8-6.7,128.1"/>
						<path id="패스_14433" class="st1" d="M-76.5,66.1c-1.9,0-3-1.3-3-3.5V57c0-2.2,1.1-3.5,3-3.5c1.5-0.1,2.8,1.1,2.9,2.6v0.1
							c0,0.1,0,0.4-0.3,0.4h-0.9c-0.2,0-0.4,0-0.4-0.3c0-0.7-0.6-1.2-1.2-1.2c-0.8,0-1.3,0.7-1.3,1.9v5.6c0,1.2,0.5,1.9,1.3,1.9
							c0.6,0,1.1-0.5,1.2-1.2c0-0.3,0.2-0.3,0.4-0.3h0.9c0.3,0,0.3,0.3,0.3,0.4c0,1.5-1.2,2.7-2.7,2.7
							C-76.4,66.1-76.4,66.1-76.5,66.1"/>
						<path id="패스_14434" class="st1" d="M-68,66.1c-1.9,0-3-1.3-3-3.5V57c0-2.2,1.1-3.5,3-3.5s3,1.3,3,3.5v5.6
							C-65,64.8-66.2,66.1-68,66.1 M-68,55.2c-0.8,0-1.3,0.7-1.3,1.9v5.6c0,1.2,0.5,1.9,1.3,1.9s1.3-0.7,1.3-1.9v-5.6
							C-66.7,55.9-67.2,55.2-68,55.2"/>
						<path id="패스_14435" class="st1" d="M-61.9,66c-0.2,0-0.4-0.1-0.5-0.3v-0.1V54.2c0-0.2,0.1-0.4,0.3-0.5h0.1h3.8
							c0.2,0,0.4,0.1,0.5,0.3v0.1v0.6c0,0.2-0.1,0.4-0.3,0.5h-0.1h-2.4c-0.2,0-0.2,0-0.2,0.2v3.3c0,0.2,0,0.2,0.2,0.2h1.6
							c0.2,0,0.4,0.1,0.5,0.3v0.1V60c0,0.2-0.1,0.4-0.3,0.5h-0.1h-1.6c-0.2,0-0.2,0-0.2,0.2v4.9c0,0.2-0.1,0.4-0.3,0.5H-61L-61.9,66
							z"/>
						<path id="패스_14436" class="st1" d="M-54.8,66c-0.2,0-0.4-0.1-0.5-0.3v-0.1V54.2c0-0.2,0.1-0.4,0.3-0.5h0.1h3.8
							c0.2,0,0.4,0.1,0.5,0.3v0.1v0.6c0,0.2-0.1,0.4-0.3,0.5H-51h-2.4c-0.2,0-0.2,0-0.2,0.2v3.3c0,0.2,0,0.2,0.2,0.2h1.6
							c0.2,0,0.4,0.1,0.5,0.3v0.1V60c0,0.2-0.1,0.4-0.3,0.5h-0.1h-1.6c-0.2,0-0.2,0-0.2,0.2v4.9c0,0.2-0.1,0.4-0.3,0.5h-0.1
							L-54.8,66z"/>
						<path id="패스_14437" class="st1" d="M-47.8,66c-0.2,0-0.4-0.1-0.5-0.3v-0.1V54.2c0-0.2,0.1-0.4,0.3-0.5h0.1h3.8
							c0.2,0,0.4,0.1,0.5,0.3v0.1v0.6c0,0.2-0.1,0.4-0.3,0.5H-44h-2.3c-0.2,0-0.2,0-0.2,0.2v3.3c0,0.2,0,0.2,0.2,0.2h2.3
							c0.2,0,0.4,0.1,0.5,0.3v0.1V60c0,0.2-0.1,0.4-0.3,0.5h-0.1h-2.3c-0.2,0-0.2,0-0.2,0.2v3.7c0,0.2,0,0.2,0.2,0.2h2.3
							c0.2,0,0.4,0.1,0.5,0.3V65v0.6c0,0.2-0.1,0.4-0.3,0.5h-0.1L-47.8,66z"/>
						<path id="패스_14438" class="st1" d="M-40.4,66c-0.2,0-0.4-0.1-0.5-0.3v-0.1V54.2c0-0.2,0.1-0.4,0.3-0.5h0.1h3.8
							c0.2,0,0.4,0.1,0.5,0.3v0.1v0.6c0,0.2-0.1,0.4-0.3,0.5h-0.1H-39c-0.2,0-0.2,0-0.2,0.2v3.3c0,0.2,0,0.2,0.2,0.2h2.3
							c0.2,0,0.4,0.1,0.5,0.3v0.1V60c0,0.2-0.1,0.4-0.3,0.5h-0.1H-39c-0.2,0-0.2,0-0.2,0.2v3.7c0,0.2,0,0.2,0.2,0.2h2.3
							c0.2,0,0.4,0.1,0.5,0.3V65v0.6c0,0.2-0.1,0.4-0.3,0.5h-0.1L-40.4,66z"/>
						<path id="패스_14439" class="st1" d="M18,66c-0.2,0-0.4-0.1-0.5-0.3v-0.1V54.2c0-0.2,0.1-0.4,0.3-0.5h0.1h2.3
							c1.6-0.1,2.9,1.1,3,2.7c0,0.1,0,0.3,0,0.4v0.3c0,0.9-0.4,1.8-1.1,2.4c0.9,0.6,1.4,1.7,1.3,2.8v0.5c0.2,1.6-0.9,3-2.5,3.2
							c-0.2,0-0.4,0-0.5,0H18z M19.4,60.4c-0.2,0-0.2,0-0.2,0.2v3.7c0,0.2,0,0.2,0.2,0.2h0.9c1,0,1.5-0.6,1.5-1.8v-0.6
							c0-1.2-0.5-1.8-1.5-1.8L19.4,60.4z M19.4,55.3c-0.2,0-0.2,0-0.2,0.2v3.2c0,0.2,0,0.2,0.2,0.2h0.8c0.9,0,1.4-0.6,1.4-1.6v-0.4
							c0-1-0.5-1.6-1.4-1.6L19.4,55.3z"/>
						<path id="패스_14440" class="st1" d="M30.9,66c-0.3,0-0.4-0.1-0.5-0.4L30,63.4c0-0.1,0-0.1-0.2-0.1h-2c-0.2,0-0.2,0-0.2,0.1
							l-0.4,2.1c-0.1,0.3-0.2,0.4-0.5,0.4h-0.8c-0.1,0-0.2,0-0.3-0.1c-0.1-0.1-0.1-0.2-0.1-0.3L28,54.1c0.1-0.3,0.3-0.4,0.5-0.4h0.6
							c0.3,0,0.5,0.1,0.5,0.4l0,0l2.5,11.4c0,0.1,0,0.2-0.1,0.3c0,0.2-0.1,0.2-0.2,0.2H30.9z M27.9,61.8h1.8l-0.9-4.7L27.9,61.8z"/>
						<path id="패스_14441" class="st1" d="M39.3,66c-0.2,0-0.4-0.1-0.5-0.3l-1.7-4.4h-0.8c-0.2,0-0.2,0-0.2,0.2v4.1
							c0,0.2-0.1,0.4-0.3,0.5h-0.1h-0.8c-0.2,0-0.4-0.1-0.5-0.3v-0.1V54.2c0-0.2,0.1-0.4,0.3-0.5h0.1h2.3c1.7,0,2.9,1.3,2.9,3.3v1
							c0.1,1.1-0.4,2.2-1.4,2.9l1.8,4.6c0.1,0.1,0.1,0.2,0,0.4c0.1,0.1,0,0.1-0.1,0.1H39.3z M36.3,55.3c-0.2,0-0.2,0-0.2,0.2v4.1
							c0,0.2,0,0.2,0.2,0.2h0.8c0.6,0,1.3-0.4,1.3-1.7V57c0-1.3-0.7-1.7-1.3-1.7H36.3z"/>
						<path id="패스_14442" class="st1" d="M-45.5,6.1l-10-12.2c-0.4-0.5-0.3-1.1,0.1-1.5l0,0l1-1.3c0.5-0.6,1.1-0.5,1.6,0.1
							l10.1,12.3c0.2,0.2,0.4,0.4,0.7,0.2c0.1-0.1,0.3-0.3,0.4-0.5c0.3-0.4,0.6-0.5,1.2-0.2l1,0.7c0.6,0.3,0.7,0.7,0.5,1.1
							c-0.3,0.7-0.8,1.4-1.4,1.9C-42.1,8.2-43.9,8-45.5,6.1"/>
						<path id="패스_14443" class="st1" d="M-15.6-9.8c0.7-4.3,4.7-7.2,9-6.6c4.3,0.7,7.2,4.7,6.6,9s-4.7,7.2-9,6.6
							c-0.1,0-0.2,0-0.3-0.1c-4.1-0.6-7-4.5-6.3-8.6C-15.6-9.5-15.6-9.6-15.6-9.8 M-3.9-7.4c0.6-2.2-0.8-4.4-3-5s-4.4,0.8-5,3
							c0,0.1-0.1,0.3-0.1,0.4c-0.5,2.2,0.8,4.4,3,4.9s4.4-0.8,4.9-3C-3.9-7.2-3.9-7.3-3.9-7.4"/>
						<path id="패스_14444" class="st1" d="M-64.1,20.6c-5.4-1.6-10,1-11.8,6.7l-2,6.5c-0.1,0.2-0.2,0.8-0.2,0.9
							c-0.2,0.7-0.3,1.4-0.1,2c0.1,0.6,0.4,0.8,1.1,0.8l1.2,0.1c0.6,0,0.9-0.2,0.9-0.6c0-0.3,0-0.6,0.1-0.8c0-0.1,0.2-0.3,0.3-0.3
							l13.3,4c0.5,0.2,1.2,0,1.4-0.6c0-0.1,0-0.1,0.1-0.2l2-6.5C-56.2,26.9-58.6,22.2-64.1,20.6 M-61,31.9l-1.1,3.8l-11.8-3.6
							l1.1-3.8c1-3.4,4-5,7.6-3.9C-61.6,25.5-60,28.4-61,31.9"/>
						<path id="패스_14445" class="st1" d="M-16.7-4.2l-0.7-1.2C-17.7-6-18-6-18.5-5.7c-0.2,0.1-0.4,0.2-0.7,0.2
							c-0.5,0.1-1-0.2-2.1-1.2l-4.9-4.4l5-8.8c0.4-0.7-0.1-1.1-0.8-1l-2.3,0.5c-0.7,0.2-1,0.6-1.4,1.4l-4.8,8.4l-1.6-6.9
							c-0.1-0.5-0.5-1-1.1-0.9c-0.1,0-0.2,0-0.2,0L-35-18c-0.1,0-0.8,0.2-1.1,0.2c-0.7,0.2-1.3,0.5-1.8,1c-0.4,0.4-0.5,0.8-0.1,1.3
							l0.6,1.1c0.3,0.5,0.7,0.6,1,0.4c0.2-0.1,0.5-0.3,0.7-0.4c0.3-0.1,0.4,0,0.5,0.4l0.2,0.8l2.8,12.6c0.1,0.6,0.6,1,1.1,0.9
							c0.1,0,0.1,0,0.2,0l1.6-0.4c0.6-0.1,0.9-0.6,0.9-1.1c0-0.1,0-0.1-0.1-0.2l-1.1-4.9l1.1-1.9l4.1,3.6c0.9,0.9,1.9,1.6,2.9,2.3
							c0.9,0.4,1.9,0.5,2.8,0.3c0.6-0.1,1.2-0.4,1.7-0.9C-16.4-3.2-16.3-3.8-16.7-4.2C-16.6-4.2-16.6-4.2-16.7-4.2"/>
						<path id="패스_14446" class="st1" d="M22.6,0.7c-1.4-1.3-3.4-1.8-5.3-1.5C17.5-4,15-6.8,11.8-7c-0.6,0-1.1,0-1.7,0.1
							c0.8-1.3,0.4-3-0.8-3.8c-0.5-0.5-1.2-0.8-1.8-0.9c-0.6-0.1-0.9,0.1-1.1,0.7L5.8-9.8C5.5-9.2,5.7-8.9,6-8.8
							c0.2,0.1,0.5,0.2,0.7,0.4s0.2,0.4,0,0.6L0.3-0.4c-0.4,0.4-0.4,1,0,1.4l0.1,0.1l1.3,1.1c0.4,0.4,1,0.4,1.4,0
							c0,0,0.1-0.1,0.1-0.2L8-3.3c1-1.3,2.8-1.6,4.1-0.6c0.1,0.1,0.2,0.1,0.3,0.2c1.4,1.2,1.4,2.8,0.1,4.3L7.8,6
							c-0.4,0.4-0.4,1,0,1.4l0.1,0.1l1.3,1.1c0.4,0.4,1,0.4,1.4,0c0,0,0.1-0.1,0.1-0.2l4.7-5.5c1-1.3,2.8-1.6,4.1-0.6
							c0.1,0.1,0.2,0.1,0.3,0.2c1.4,1.2,1.4,2.8,0.1,4.3l-2.3,2.7l-0.7,0.8c-1.6,1.8-1.4,3.6,0.3,5.1c0.6,0.5,1.3,0.9,2.1,1
							c0.5,0.1,0.8,0,1-0.7l0.5-1.1c0.2-0.6,0.1-1-0.3-1.1c-0.2-0.1-0.4-0.1-0.5-0.3c-0.2-0.2-0.2-0.4,0-0.6l0.5-0.6l1.6-1.9l0,0
							l1-1.2C25.4,6.4,25.3,3,22.6,0.7"/>
						<path id="패스_14447" class="st1" d="M38.5,30.1c-0.6-1.8-2.1-3.2-3.9-3.8c1.7-2.7,0.9-6.3-1.8-8c-0.5-0.3-1-0.5-1.6-0.7
							c1.3-0.8,1.8-2.4,1.1-3.8c-0.2-0.6-0.6-1.2-1.2-1.7c-0.4-0.4-0.8-0.4-1.3,0l-1,0.7c-0.5,0.4-0.5,0.7-0.3,1
							c0.1,0.2,0.4,0.4,0.5,0.7s0,0.4-0.3,0.5l-9.2,3.5c-0.5,0.1-0.9,0.7-0.7,1.2c0,0.1,0,0.1,0.1,0.2l0.6,1.6
							c0.2,0.5,0.7,0.8,1.2,0.7c0.1,0,0.1,0,0.2-0.1l6.7-2.5c1.5-0.7,3.2,0,3.9,1.4c0,0.1,0.1,0.2,0.1,0.3c0.6,1.7-0.1,3.1-1.9,3.8
							L23,27.7c-0.5,0.1-0.9,0.7-0.7,1.3c0,0.1,0,0.1,0.1,0.2l0.6,1.6c0.2,0.5,0.7,0.8,1.2,0.7c0.1,0,0.1,0,0.2-0.1l6.7-2.6
							c1.5-0.7,3.2,0,3.9,1.4c0,0.1,0.1,0.2,0.1,0.3c0.6,1.7-0.1,3.1-1.9,3.8L31.3,35l0,0l-2.5,0.9c-2.3,0.9-3,2.5-2.2,4.6
							c0.3,0.7,0.7,1.4,1.3,1.9c0.4,0.3,0.7,0.4,1.2-0.1l0.9-0.7c0.5-0.4,0.6-0.8,0.2-1.2c-0.1-0.1-0.3-0.3-0.3-0.5
							c-0.1-0.3,0.1-0.5,0.4-0.6l3-1.1l0,0l1.4-0.5C38.3,36.5,39.8,33.4,38.5,30.1"/>
						<path id="패스_14448" class="st1" d="M-46.3,8.5l-1.1-0.4c-0.6-0.1-1,0-1.1,0.5c0,0.2-0.1,0.4-0.2,0.6
							c-0.2,0.3-0.4,0.2-0.7,0l-1.9-1.3L-57,3.6c-0.4-0.4-1-0.4-1.4,0c0,0-0.1,0.1-0.1,0.2l-0.6,0.9c-0.4,0.4-0.4,1,0.1,1.4
							c0,0,0.1,0.1,0.2,0.1l0.5,0.4c-1.8,0.3-3.4,1.3-4.5,2.7c-2.6,3.4-1.7,7.8,1.7,10.3c3.4,2.6,7.9,2.2,10.4-1.2
							c1.1-1.5,1.6-3.3,1.2-5.1l-0.1-0.1c1.4,0.3,2.8-0.4,3.5-1.6c0.4-0.6,0.7-1.4,0.8-2.2C-45.5,8.9-45.6,8.6-46.3,8.5 M-53.2,16
							c-1.3,1.8-3.8,2.1-5.6,0.8c-0.1-0.1-0.2-0.1-0.2-0.2c-1.8-1.2-2.4-3.7-1.1-5.6c0-0.1,0.1-0.1,0.2-0.2c1.3-1.7,3.7-2.1,5.5-0.8
							c0.1,0.1,0.2,0.2,0.3,0.3c1.8,1.2,2.4,3.6,1.2,5.4C-53,15.8-53.1,15.9-53.2,16"/>
					</g>
				</g>
			</g>
		</g>
	</g>
</g>
</svg>
