<?xml version="1.0" encoding="utf-8"?>
<!-- Generator: Adobe Illustrator 25.2.3, SVG Export Plug-In . SVG Version: 6.00 Build 0)  -->
<svg version="1.1" id="Layer_1" xmlns="http://www.w3.org/2000/svg" xmlns:xlink="http://www.w3.org/1999/xlink" x="0px" y="0px"
	 viewBox="0 0 48 48" style="enable-background:new 0 0 48 48;" xml:space="preserve">
<style type="text/css">
	.st0{fill:#FFFFFF;}
</style>
<path class="st0" d="M7,40c-0.8,0-1.5-0.3-2.1-0.9C4.3,38.5,4,37.8,4,37V11c0-0.8,0.3-1.5,0.9-2.1C5.5,8.3,6.2,8,7,8h34
	c0.8,0,1.5,0.3,2.1,0.9C43.7,9.5,44,10.2,44,11v26c0,0.8-0.3,1.5-0.9,2.1C42.5,39.7,41.8,40,41,40H7z M24,24.6c0.2,0,0.3,0,0.4-0.1
	c0.1-0.1,0.2-0.1,0.4-0.2l15.7-10.2c0.2-0.1,0.3-0.2,0.4-0.4s0.1-0.3,0.1-0.6c0-0.4-0.2-0.8-0.6-1c-0.4-0.2-0.8-0.2-1.2,0L24,21.9
	L8.8,12.1c-0.4-0.3-0.8-0.3-1.2-0.1S7,12.7,7,13.1c0,0.2,0.1,0.4,0.2,0.6s0.2,0.3,0.3,0.4l15.7,10.2c0.1,0.1,0.3,0.1,0.4,0.2
	C23.7,24.6,23.8,24.6,24,24.6z"/>
</svg>
