<?xml version="1.0" encoding="utf-8"?>
<!-- Generator: Adobe Illustrator 25.2.3, SVG Export Plug-In . SVG Version: 6.00 Build 0)  -->
<svg version="1.1" id="Layer_1" xmlns="http://www.w3.org/2000/svg" xmlns:xlink="http://www.w3.org/1999/xlink" x="0px" y="0px"
	 viewBox="0 0 819.1 298.4" style="enable-background:new 0 0 819.1 298.4;" xml:space="preserve">
<g>
	<path d="M295.9,149.4c0,85.8-71.1,149-149.8,149S0,235.2,0,149.4C0,61.9,69.9,0,148.6,0S295.9,63.2,295.9,149.4z M258.7,149.4
		c0-86.2-40.2-145.2-108.4-145.2c-68.6,0-112.6,59-112.6,145.2c0,85.8,38.5,144.8,106.7,144.8C212.6,294.2,258.7,235.2,258.7,149.4z
		"/>
	<path d="M566.1,294.3c-12.8,0-34.1,0-40.7,0s-31.9,0-44.7,0c-0.9,0-0.8-3,0-3c20.3,0,25.4-3.3,26.6-19.4V161.1H355.3v96.7
		c0,28.6,2.2,33.5,27,33.5c0.9,0,1,3,0,3c-12.8,0-34.1,0-40.7,0c-6.6,0-31.9,0-44.7,0c-0.9,0-0.8-3,0-3c20.3,0,25.4-3.3,26.6-19.4
		V29.4C322.5,10.7,317.8,7,296.7,7c-0.9,0-1-3,0-3h85.4c0.9,0,0.8,3,0,3c-21.9,0-26.1,3.8-26.8,23.6v126.3h152.1V29.4
		C506.4,10.7,501.7,7,480.6,7c-0.9,0-1-3,0-3H566c0.9,0,0.8,3,0,3c-21.9,0-26.1,3.8-26.8,23.6v227.2c0,28.6,2.2,33.5,27,33.5
		C567,291.3,567.1,294.3,566.1,294.3z"/>
	<path d="M818.6,294.2l-49.6-0.1c-10.9,0.1-15.8-4.1-20.2-10.9c-7.2-11.3-15.7-27.7-25.4-50.5c-9.8-22.7-16.8-35.9-23.3-44
		c-9.8-12.5-27.3-15.8-30.9-16.4c-0.2,0-0.3,0-0.5-0.1c-0.2,0-0.3,0-0.3,0l0.1,0c0,0,0,0-0.1,0l-0.1,0l0,0
		c-11-1.8-10.5-8.9-10.5-8.9c0-8.5,13.2-10.7,17.2-11.2l0,0c0.3,0,0.5-0.1,0.7-0.1c4.6-0.5,31.5-4.5,49.5-22.2
		C738.2,116.5,745,98,745,76.2c0-45.7-27.2-68.3-80.8-68.3h-20.2c-10.8,2-13.1,8.3-13.4,24.8v234.4c0.7,20.3,5.1,24.1,26.9,24.1
		c0.9,0,1,3,0,3h-85.4c-0.9,0-0.7-3,0-3c21.3,0,25.8-3.6,26.8-21.9V33.1c-0.5-21.9-4.3-26-25.7-26c-0.9,0-1-3,0-3h97.3l-0.2,0.1h0.2
		c67.8,0,110.5,25.6,110.5,72.4c0,40.1-33.3,69-83.4,76l-26,3.8c0,0-9.4,1.3-9.4,7.6c0,0.5,0.1,0.9,0.2,1.3
		c1.5,4.2,11.6,3.6,11.6,3.6c12.2-0.1,21.1,1.2,26.9,2.5c0.2,0,0.5,0.1,0.7,0.2c5.5,1.3,8.1,2.5,8.1,2.5l-0.3,0
		c7,2.8,13.3,7,18.5,12.8c9.3,10.5,18.4,26,29.7,48.6c8.6,18.2,13.6,26.7,18.1,33.1c9.6,13.8,25.4,22.2,42.2,22.1c0.2,0,0.4,0,0.7,0
		C818.6,290.5,819.6,292.6,818.6,294.2z"/>
</g>
</svg>
