<?xml version="1.0" standalone="no"?>
<!DOCTYPE svg PUBLIC "-//W3C//DTD SVG 1.1//EN" "http://www.w3.org/Graphics/SVG/1.1/DTD/svg11.dtd" >
<svg xmlns="http://www.w3.org/2000/svg" xmlns:xlink="http://www.w3.org/1999/xlink" version="1.1">
<metadata>
Created by FontForge 20190801 at Fri Oct  2 03:08:22 2020
 By root
</metadata>
<defs>
<font id="CultureRegular" horiz-adv-x="692" >
  <font-face 
    font-family="Culture"
    font-weight="400"
    font-stretch="normal"
    units-per-em="1000"
    panose-1="0 0 0 0 0 0 0 0 0 0"
    ascent="800"
    descent="-200"
    x-height="468.83"
    cap-height="647.961"
    bbox="-190.002 -285.842 1038.46 897.411"
    underline-thickness="0"
    underline-position="0"
    unicode-range="U+000A-FB02"
  />
<missing-glyph horiz-adv-x="527" 
d="M50 700h427v-700h-427v700zM78 680l185 -309l186 309h-371zM251 350l-180 300v-601zM264 329l-185 -308h370zM276 350l181 -303v605z" />
    <glyph glyph-name="fl.liga" unicode="fl" horiz-adv-x="484" 
d="M392.342 111.133c0 -116.725 6.55957 -105.642 96.8291 -105.63v-5.99414h-235.938v5.99414c87.5439 0 87.4307 -13.6855 87.4307 105.641v527.41c0 2.60156 -0.226562 5.08984 -0.453125 7.23926c-6.10742 7.35156 -12.668 13.7988 -19.9062 19.2275
c0 0 0 0.113281 -0.113281 0.113281c-4.52441 3.50586 -9.27441 6.55957 -14.1377 9.16113c-35.085 18.6738 -79.1279 14.2627 -124.891 -30.165c-0.259766 -0.259766 -0.49707 -0.508789 -0.746094 -0.768555c-31.873 -33.2188 -40.9893 -86.9775 -42.9912 -167.497
h180.041v-7.43066h-180.199c-0.0449219 -2.81641 -0.101562 -5.61035 -0.146484 -8.49414v-348.806c0 -116.668 6.53711 -105.595 96.8174 -105.595v-6.04004h-235.938v6.04004c87.5439 0 87.4307 -13.7314 87.4307 105.595l1.84375 335.617l0.0449219 0.0791016
c0.723633 7.34082 1.75293 14.4893 2.84961 21.6035h-74.7061v7.43066h75.8711c4.34277 24.8945 10.9033 48.3184 19.4883 69.9219v0.124023c12.3281 31.4434 28.7285 59.1543 47.9561 82.4541l2.89551 3.25781c0.283203 0.328125 0.577148 0.678711 0.860352 0.995117
c0.124023 0.147461 0.282227 0.294922 0.417969 0.442383l1.36816 1.52734c2.26172 2.60156 4.63672 5.08984 6.89844 7.46484c1.92285 1.92285 3.73242 3.8457 5.54199 5.65527c0.938477 0.916016 1.85449 1.73047 2.78223 2.6123
c1.65137 1.59473 3.31445 3.16699 5.01074 4.70508c1.09668 1.00684 2.18262 2.08105 3.29102 3.08789c1.92285 1.58301 3.8457 3.2793 5.76855 4.8623c2.03613 1.69629 4.07227 3.39258 6.22168 4.97559c52.9336 41.5098 104.51 46.4863 145.793 28.3896l35.2891 19.6807
h11.4238v-604.888z" />
    <glyph glyph-name=".notdef" horiz-adv-x="527" 
d="M50 700h427v-700h-427v700zM78 680l185 -309l186 309h-371zM251 350l-180 300v-601zM264 329l-185 -308h370zM276 350l181 -303v605z" />
    <glyph glyph-name=".null" horiz-adv-x="0" 
 />
    <glyph glyph-name=".null" horiz-adv-x="0" 
 />
    <glyph glyph-name="controlLF" unicode="&#xa;" horiz-adv-x="0" 
 />
    <glyph glyph-name="controlCR" unicode="&#xd;" horiz-adv-x="0" 
 />
    <glyph glyph-name="space" unicode=" " horiz-adv-x="304" 
 />
    <glyph glyph-name="exclam" unicode="!" horiz-adv-x="114" 
d="M52.0596 312.966c-0.169922 12.5098 -0.329102 24.793 -0.476562 36.8496c-0.158203 12.0342 -0.237305 24.9395 -0.237305 38.7158v268.489h13.1543v-268.489c0 -13.7646 -0.0791016 -26.6816 -0.237305 -38.7158
c-0.169922 -12.0566 -0.317383 -24.3398 -0.475586 -36.8496c-0.158203 -12.5205 -0.463867 -25.9805 -0.938477 -40.3672c-0.474609 -14.3984 -0.870117 -30.8213 -1.17578 -49.2803h-7.50977c-0.633789 18.459 -1.1084 34.8818 -1.40234 49.2803
c-0.316406 14.3867 -0.542969 27.8467 -0.701172 40.3672zM77.8691 44.2383c6.10742 -6.10742 9.16113 -13.3809 9.17285 -21.8301c0 -8.44922 -3.05371 -15.5752 -9.16113 -21.3662c-6.09668 -5.79102 -13.3809 -8.68652 -21.8301 -8.68652
s-15.5752 2.90723 -21.3662 8.68652c-5.79102 5.79102 -8.68652 12.917 -8.68652 21.3662s2.88379 15.7334 8.6748 21.8301s12.917 9.15039 21.3662 9.15039s15.7334 -3.04297 21.8301 -9.15039z" />
    <glyph glyph-name="numbersign" unicode="#" horiz-adv-x="465" 
d="M346.545 441.103l110.31 0.0117188v-2.81641c0 -3.75488 -2.19434 -5.63281 -6.57129 -5.63281h-104.679l-46 -208.408h124.394c4.37695 0 6.57129 -1.87793 6.57129 -5.63281v-2.81641h-131.903l-48.3408 -215.918h-2.81641
c-4.06055 0 -6.09668 1.24414 -6.09668 3.75488c0 1.57227 0.62207 4.85254 1.87793 9.86328l45.0498 202.301h-160.52l-46.4639 -208.408c-0.938477 -5.01074 -3.44922 -7.51074 -7.50977 -7.51074h-4.69434l48.3408 215.918h-100.924
c-4.38867 0 -6.57129 1.87793 -6.57129 5.63281v2.81641h108.435l46 208.408h-128.148v2.81641c0 3.75488 2.18262 5.63281 6.57129 5.63281h122.505l46.4746 208.408c0.938477 4.99902 3.75488 7.50977 8.44922 7.50977h3.74414l-48.3408 -215.918h160.53l48.3408 215.918
h4.69434c3.12207 0 4.69434 -1.41406 4.69434 -4.23047c0 -1.25586 -0.780273 -5.01074 -2.34082 -11.2656zM289.267 224.246l45.999 208.408h-160.53l-45.9883 -208.408h160.52z" />
    <glyph glyph-name="dollar" unicode="$" horiz-adv-x="428" 
d="M292.467 339.21c127.66 -84.4902 118.27 -207.042 90.0996 -259.602c0 0 -34.7305 -71.3398 -161.45 -76.9795v-113.58h-13.9902v113.58c-108.89 5.63965 -168.02 47.8799 -168.02 47.8799v180.23h7.50977c0 -163.33 27.2305 -214.95 160.511 -219.65v324.78
l-58.2002 39.4199c-45.0498 34.7402 -167.08 110.771 -100.44 230.921c0 0 47.8604 72.29 158.63 74.1602v115.46h13.9902v-115.46c91.9902 -7.50977 152.061 -43.1797 152.061 -43.1797v-157.7h-9.37988c0 123.9 -13.1299 183.98 -142.67 191.49v-285.78zM207.126 393.128
v278.789c-100.44 -2.80957 -215.9 -137.979 -57.25 -241.239zM221.116 11.0771c168.96 11.2695 174.59 200 71.3496 270.4l-71.3496 46.9297v-317.33z" />
    <glyph glyph-name="percent" unicode="%" horiz-adv-x="647" 
d="M617.64 230.343c7.03516 -20.6533 10.5518 -45.2207 10.5635 -73.7002c0 -28.1631 -3.5293 -52.5713 -10.5645 -73.2246s-16.5137 -37.7207 -28.4014 -51.1689c-11.8877 -13.46 -25.8105 -23.4697 -41.7695 -30.041s-32.8564 -9.8623 -50.6934 -9.8623
c-18.1426 0 -35.1992 3.29102 -51.1582 9.8623s-29.8818 16.5928 -41.7695 30.041c-11.8984 13.46 -21.2861 30.5166 -28.1631 51.1699s-10.3262 45.0615 -10.3262 73.2246c0 28.4795 3.44922 53.0459 10.3262 73.6992s16.2646 37.7773 28.1631 51.3955
c11.876 13.6064 25.8105 23.707 41.7695 30.2783s33.0156 9.8623 51.1582 9.8623c17.8369 0 34.7354 -3.29102 50.6943 -9.8623s29.8711 -16.6719 41.7695 -30.2783c11.8877 -13.6064 21.3662 -30.7422 28.4014 -51.3955zM608.239 86.2451
c6.41309 19.7139 9.62598 43.1826 9.62598 70.4072s-3.22363 50.6943 -9.625 70.4082c-6.41309 19.7139 -15.1787 35.9785 -26.2861 48.8164c-11.1182 12.8379 -24.0234 22.2939 -38.7275 28.4014s-30.1992 9.16113 -46.4639 9.16113
c-16.5928 0 -32.1562 -3.05371 -46.7012 -9.16113s-27.3828 -15.5742 -38.4902 -28.4004c-11.1074 -12.8379 -19.8613 -29.1025 -26.2861 -48.8164s-9.62598 -43.1836 -9.62598 -70.4082s3.21191 -50.6943 9.625 -70.4082s15.1787 -35.9102 26.2861 -48.5781
s23.9453 -21.9883 38.4902 -27.9268c14.5449 -5.94922 30.1084 -8.92383 46.7012 -8.92383c16.2646 0 31.749 2.97461 46.4639 8.92383c14.7148 5.93848 27.6201 15.2588 38.7275 27.9268s19.873 28.8643 26.2861 48.5781zM149.417 335.02
c-18.1426 0 -35.1992 3.29102 -51.1582 9.8623s-29.8818 16.5811 -41.7695 30.041c-11.8984 13.4482 -21.2861 30.5049 -28.1631 51.1582s-10.3262 45.0615 -10.3262 73.2246c0 28.4795 3.44922 53.0459 10.3262 73.6992s16.2646 37.7773 28.1631 51.3955
c11.876 13.6182 25.8105 23.707 41.7695 30.2783s33.0156 9.8623 51.1582 9.8623c17.8369 0 34.7344 -3.29102 50.6934 -9.8623s29.8711 -16.6602 41.7695 -30.2783c11.8877 -13.6064 21.3662 -30.7422 28.4014 -51.3955s10.5645 -45.2197 10.5645 -73.6992
c0 -28.1631 -3.5293 -52.5713 -10.5645 -73.2246s-16.5137 -37.71 -28.4014 -51.1582c-11.8877 -13.46 -25.8105 -23.4697 -41.7695 -30.041s-32.8564 -9.8623 -50.6934 -9.8623zM64.2256 380.318c11.1074 -12.6787 23.9453 -21.9883 38.4902 -27.9268
c14.5449 -5.94922 30.1084 -8.92383 46.7012 -8.92383c16.2646 0 31.749 2.97461 46.4639 8.92383c14.7148 5.93848 27.6201 15.2588 38.7275 27.9268s19.873 28.8643 26.2861 48.5781s9.625 43.1836 9.625 70.4082s-3.22363 50.6943 -9.625 70.4082
c-6.41309 19.7139 -15.1787 35.9785 -26.2861 48.8164c-11.1182 12.8379 -24.0117 22.3047 -38.7266 28.4014c-14.7041 6.10742 -30.1992 9.16113 -46.4639 9.16113c-16.5928 0 -32.1562 -3.05371 -46.7012 -9.16113c-14.5449 -6.09668 -27.3828 -15.5752 -38.4902 -28.4014
c-11.1074 -12.8379 -19.873 -29.1025 -26.2861 -48.8164c-6.4248 -19.7139 -9.62598 -43.1836 -9.62598 -70.4082s3.21191 -50.6943 9.625 -70.4082s15.1787 -35.8994 26.2861 -48.5781zM553.09 657.019l6.57227 -0.000976562l-463.755 -653.388
c-1.57227 -2.51074 -4.07227 -3.75488 -7.51074 -3.75488h-6.57129l463.755 653.388c1.56055 2.5 4.06055 3.75586 7.50977 3.75586z" />
    <glyph glyph-name="ampersand" unicode="&#x26;" horiz-adv-x="856" 
d="M806.005 438.841c-63.1133 -3.8457 -94.7852 8.82422 -155.297 -52.7051l-120.684 -160.044l21.6035 -54.1777c59.041 -150.204 73.1787 -159.592 120.117 -159.592l53.7246 -0.113281v-8.37012h-279.257l0.226562 8.48242h63.791
c45.1289 0 44.1113 10.293 -15.9473 163.324l-0.905273 2.03613l-40.6045 -53.8379c-5.08984 -7.12598 -10.1797 -14.1387 -15.7217 -20.6992l-0.338867 -0.338867v-0.113281c-112.313 -135.727 -303.914 -130.75 -371.551 -57.5713
c-32.3477 34.9492 -47.1641 82.001 -47.1641 131.881c0 37.6641 8.37012 76.9121 24.0918 113.897c3.50586 8.25684 7.23828 16.2871 11.4229 24.3174c1.13086 2.375 2.375 4.63672 3.61914 6.89844c3.05371 5.65527 6.2207 11.3105 9.61426 16.7393
c2.82812 4.75 5.88184 9.27441 8.93555 13.7988c2.03613 3.05371 4.18555 6.10742 6.33496 9.04785c7.23828 9.95312 14.9297 19.4541 23.1865 28.3896c2.48828 2.71484 4.97656 5.42969 7.57812 8.03125c5.31641 5.54199 10.8584 10.8584 16.7402 15.7217
c2.82812 2.60156 5.76855 4.97656 8.70898 7.35156c5.99414 4.6377 11.9883 9.04883 18.209 13.2334s12.5547 7.91699 19.1152 11.3105c6.44727 3.50586 13.1201 6.67285 19.9062 9.3877c-3.28027 56.5527 -8.4834 111.748 -7.0127 138.667
c-8.25684 186.624 202.459 188.999 311.267 112.427l-28.1631 -27.0322c-70.3516 110.165 -241.593 97.2715 -230.509 -78.834c-0.113281 -0.678711 -0.113281 -2.94043 0 -6.55957c-0.113281 -0.791992 -0.113281 -1.58398 0 -2.48926
c0.338867 -22.6211 2.71387 -82.001 4.18457 -119.778v-1.13086h0.226562c2.60156 0.678711 5.20312 1.13086 7.69141 1.69629c6.56055 1.4707 13.0078 2.60156 19.2285 3.61914c0.905273 0.113281 1.81055 0.226562 2.60254 0.339844
c2.375 0.452148 4.75 0.678711 7.01172 0.905273c2.375 0.338867 4.63672 0.56543 6.89844 0.791992c2.26172 0.338867 4.52344 0.56543 6.67285 0.678711c2.26172 0.113281 4.41113 0.339844 6.56055 0.453125c2.14941 0.226562 4.29883 0.339844 6.44824 0.339844
c6.10742 0.226562 12.1016 0.339844 17.8701 0.226562h1.69629c15.3818 0.338867 29.9727 -1.35742 43.5449 -4.6377c0.338867 -0.113281 0.56543 -0.113281 0.904297 -0.226562s0.56543 -0.113281 0.904297 -0.226562c3.05371 -0.791992 5.99414 -1.69727 8.93457 -2.71484
c0.113281 0 0.113281 0 0.226562 -0.113281c0.226562 0 0.453125 -0.113281 0.679688 -0.226562c18.8887 -6.44727 35.4023 -16.4004 48.4092 -29.4072c3.16699 -3.05371 6.2207 -6.44727 8.93555 -9.95312c0.452148 -0.56543 0.904297 -1.24414 1.35645 -1.80957v-0.113281
c4.29785 -5.76855 8.25684 -11.7627 11.876 -17.9834c3.39355 -5.88184 6.44727 -11.9893 9.16211 -18.3232l0.113281 -0.338867l3.73242 -9.16113l1.24414 -3.16699l27.4844 -68.6553l1.4707 -3.8457l27.4844 -68.7686l72.7266 97.7227l44.1113 58.0234
c15.043 23.2998 8.93555 43.3193 -93.877 43.3193v8.37012h258.446v-8.37012zM456.281 149.858l31.6689 40.8281l-35.4023 83.8115l-6.78613 16.0605l-0.113281 0.338867l-10.9717 26.0146l-7.80469 18.5488l-15.9482 37.5508
c-1.92285 5.08984 -4.07227 10.1797 -6.44727 15.1562c-6.56055 13.2334 -15.043 26.0146 -25.2227 37.4385c-24.3174 27.4844 -57.6836 46.8252 -94.2168 45.6943c-0.452148 0 -0.791016 -0.113281 -1.24316 -0.113281
c-3.50586 -0.113281 -7.01172 -0.452148 -10.6309 -0.904297c0.113281 0.113281 0.339844 0.113281 0.566406 0.226562h-0.678711c-1.4707 -0.226562 -3.05371 -0.339844 -4.52441 -0.678711c-1.80957 -0.226562 -3.61914 -0.453125 -5.42871 -0.791992
c-3.73242 -0.678711 -7.57812 -1.4707 -11.5371 -2.37598c-1.92285 -0.452148 -3.8457 -0.904297 -5.88184 -1.46973h-0.226562s-0.339844 -0.113281 -0.566406 -0.113281c-3.61914 -1.01758 -7.35156 -2.14844 -11.1973 -3.39258
c-1.80957 -0.56543 -3.61914 -1.13086 -5.42871 -1.80957c-2.375 -0.791992 -4.75 -1.69727 -7.23828 -2.71484c-2.71484 -1.01758 -5.31641 -2.14844 -8.03125 -3.2793c-3.50586 -1.4707 -7.01172 -3.05371 -10.5176 -4.75
c-2.26172 -1.01758 -4.41113 -2.14844 -6.56055 -3.2793c-2.26172 -1.24414 -4.52344 -2.60156 -6.67285 -3.95898c-2.26172 -1.24414 -4.52344 -2.60156 -6.67285 -4.07227c-1.92285 -1.24414 -3.8457 -2.48828 -5.65527 -3.73242
c-5.42871 -3.61914 -10.5186 -7.69141 -15.4951 -11.9893c-2.375 -2.03613 -4.75 -4.18555 -7.01172 -6.33496c-2.375 -2.26172 -4.63672 -4.52344 -6.89844 -6.78516c-4.52441 -4.52441 -8.82227 -9.3877 -12.668 -14.3643
c-1.4707 -1.92285 -2.94141 -3.73242 -4.41211 -5.65527c-0.905273 -1.01758 -1.69727 -2.14844 -2.48926 -3.2793c-1.58301 -2.03613 -3.16602 -4.29785 -4.52344 -6.55957c-3.73242 -5.20312 -7.12598 -10.6318 -10.1797 -16.2871
c-1.58301 -2.82715 -3.16602 -5.54199 -4.63672 -8.48242c-1.58301 -2.82812 -2.94043 -5.65625 -4.41113 -8.59668c-1.35742 -2.94043 -2.71484 -5.76758 -4.07227 -8.82129c-2.71484 -5.88184 -5.08984 -11.876 -7.23926 -17.8701
c-1.01758 -2.71484 -1.92285 -5.42969 -2.94043 -8.14453c-0.226562 -0.791992 -0.56543 -1.58398 -0.791992 -2.37598c-0.791992 -2.60156 -1.69727 -5.20312 -2.48926 -7.80469c-22.6211 -74.5361 -11.9893 -151.787 8.25684 -196.803
c39.7002 -87.7695 214.9 -138.667 339.43 18.3232c7.12598 8.82227 15.2695 17.418 21.9424 27.5977z" />
    <glyph glyph-name="parenleft" unicode="(" horiz-adv-x="152" 
d="M72.3057 88.8252c20.6533 -65.5557 51.6436 -129.316 92.9385 -191.253c1.24414 -1.57227 1.87793 -2.97461 1.87793 -4.23047s-0.633789 -2.35254 -1.87793 -3.29102l-4.69434 -2.81641c-24.4082 37.2451 -44.9141 72.9189 -61.4951 107.021
s-29.8711 67.6709 -39.8926 100.687c-10.0215 33.0039 -17.2041 66.0195 -21.5928 99.0352s-6.57129 67.1963 -6.57129 102.564c0 35.04 2.18262 69.1523 6.57129 102.326c4.38867 33.1621 11.5713 66.2568 21.5928 99.2725
c10.0098 33.0156 23.2998 66.5742 39.8926 100.687c16.5928 34.1016 37.0986 69.7754 61.4951 107.021l4.69434 -2.81641c1.24414 -0.633789 1.87793 -1.73047 1.87793 -3.29102c0 -1.25586 -0.633789 -2.66992 -1.87793 -4.23047
c-41.3057 -61.959 -72.2852 -125.796 -92.9385 -191.51s-30.9795 -134.878 -30.9795 -207.469c0 -72.9189 10.3262 -142.15 30.9795 -207.706z" />
    <glyph glyph-name="parenright" unicode=")" horiz-adv-x="152" 
d="M113.551 398.858c4.37695 -33.1738 6.57129 -67.2852 6.57129 -102.348c0 -35.3682 -2.19434 -69.5488 -6.57129 -102.564c-4.38867 -33.0156 -11.582 -66.0312 -21.5918 -99.0352c-10.0098 -33.0264 -23.3105 -66.585 -39.8916 -100.687
c-16.5928 -34.1016 -37.0879 -69.7754 -61.4961 -107.021l-4.69434 2.81641c-1.25586 0.938477 -1.87793 2.04688 -1.87793 3.29102c0 1.25586 0.62207 2.66992 1.87793 4.23047c41.3057 61.959 72.2852 125.717 92.9385 191.272s30.9795 134.787 30.9795 207.706
c0 72.5908 -10.3262 141.755 -30.9795 207.469s-51.6445 129.551 -92.9395 191.51c-1.25586 1.57227 -1.87793 2.97461 -1.87793 4.23047c0 1.57227 0.62207 2.6582 1.87793 3.29199l4.69434 2.81641c24.4199 -37.2461 44.9033 -72.9199 61.4961 -107.021
c16.5703 -34.1123 29.8711 -67.6816 39.8926 -100.686c10.0098 -33.0156 17.2031 -66.1104 21.5918 -99.2725z" />
    <glyph glyph-name="asterisk" unicode="*" horiz-adv-x="271" 
d="M158.76 557.51l95.7393 -55.3994l-4.7002 -8.4502l-95.7598 55.3896c-1.58008 0.94043 -2.90039 1.7207 -4 2.35059c-1.08984 0.629883 -2.17969 1.33984 -3.2793 2.12012c-1.11035 0.780273 -2.43066 1.7998 -3.99023 3.0498
c-1.58008 1.25 -3.4502 3.12012 -5.62988 5.62988c0.94043 -5.62012 1.64062 -9.61035 2.11035 -11.96s0.700195 -5.25 0.700195 -8.69043v-107.02h-9.37988v107.02c0 3.4502 0.230469 6.33984 0.700195 8.68945s1.33984 6.16992 2.58984 11.5
c-4.05957 -4.07031 -6.87988 -6.65039 -8.4502 -7.75s-4.2207 -2.75 -7.98047 -4.92969l-94.8096 -55.3896l-4.7002 8.4502l94.8203 55.3896c3.12988 1.57031 5.87012 2.75 8.21973 3.53027c2.33984 0.780273 6.03027 1.9502 11.0303 3.52051
c-5.33008 2.19043 -9.08008 3.59082 -11.2598 4.23047c-2.19043 0.620117 -4.86035 1.87988 -7.98047 3.75l-95.75 55.3896l4.69043 8.4502l95.7598 -55.3896c1.55957 -0.94043 2.87988 -1.81055 3.99023 -2.58008c1.09961 -0.790039 2.10938 -1.65039 3.0498 -2.59082
s2.12012 -2.10059 3.53027 -3.51074c1.40039 -1.41992 3.36035 -3.22949 5.87012 -5.40918c-1.25 5.62988 -2.11035 9.68945 -2.59082 12.1992c-0.459961 2.5 -0.700195 5.63965 -0.700195 9.38965v107.02h9.38965v-107.02c0 -3.75 -0.0800781 -6.88965 -0.240234 -9.38965
c-0.160156 -2.50977 -1.02051 -6.56934 -2.58008 -12.1992c4.37988 4.38965 7.42969 7.34961 9.14941 8.91992c1.73047 1.57031 4.30078 3.29004 7.75098 5.16992l94.8301 55.3896l4.69043 -8.4502l-94.8301 -55.3896c-3.12988 -1.87012 -5.87012 -3.36035 -8.20996 -4.4502
c-2.34961 -1.11035 -5.86914 -2.29004 -10.5596 -3.53027c5.30957 -1.57031 8.98926 -2.74023 11.0293 -3.52051c2.03027 -0.790039 4.62012 -1.96973 7.74023 -3.5293z" />
    <glyph glyph-name="plus" unicode="+" horiz-adv-x="533" 
d="M270.612 319.062h212.175v-9.3877h-212.175v-221.551h-9.3877v221.551h-211.225v9.3877h211.225v220.612h9.3877v-220.612z" />
    <glyph glyph-name="comma" unicode="," horiz-adv-x="80" 
d="M60.0039 44.001c5.47461 -6.26562 8.20898 -15.3379 8.19727 -27.2363c0 -24.0918 -5.24805 -47.3232 -15.7324 -69.707c-10.4854 -22.3721 -23.707 -42.0068 -39.666 -58.9043l-1.40234 1.41406c-0.938477 0.938477 -1.40234 1.87695 -1.40234 2.81543
s0.769531 2.51074 2.3418 4.69336c3.12207 4.07227 7.34082 9.61426 12.668 16.6611s10.4844 15.2588 15.4951 24.6465s9.30859 19.7139 12.9053 30.9795c3.6084 11.2656 5.40723 23.1641 5.40723 35.6738c-5.32715 -5.94922 -12.5098 -8.92383 -21.5918 -8.92383
c-7.50977 0 -13.7754 2.58984 -18.7744 7.74707c-4.99902 5.16895 -7.49902 11.9775 -7.49902 20.4268c0 7.49902 2.5791 14.2285 7.74805 20.1777c5.15723 5.94922 11.9658 8.92383 20.415 8.92383s15.416 -3.13281 20.8906 -9.3877z" />
    <glyph glyph-name="hyphen" unicode="-" horiz-adv-x="215" 
d="M210.542 271.185h-206.542v9.3877h206.542v-9.3877z" />
    <glyph glyph-name="period" unicode="." horiz-adv-x="84" 
d="M19.6982 2.89453c-5.80273 5.79102 -8.69824 12.9053 -8.69824 21.3545s2.89551 15.7217 8.69824 21.8291c5.76855 6.09668 12.8945 9.15039 21.3438 9.15039s15.7334 -3.05371 21.8301 -9.15039c6.10742 -6.10742 9.16113 -13.3799 9.16113 -21.8291
s-3.05371 -15.5635 -9.16113 -21.3545c-6.09668 -5.79102 -13.3809 -8.68652 -21.8301 -8.68652s-15.5752 2.89551 -21.3438 8.68652z" />
    <glyph glyph-name="slash" unicode="/" horiz-adv-x="415" 
d="M359.796 675.797h4.70508l-300.408 -706.897c-0.938477 -2.5 -2.43164 -4.06055 -4.46777 -4.69434c-2.03613 -0.62207 -3.99316 -0.938477 -5.87109 -0.938477h-3.75488l300.408 706.897c1.87793 3.75488 5 5.63281 9.38867 5.63281z" />
    <glyph glyph-name="zero" unicode="0" horiz-adv-x="585" 
d="M289.45 668.24c206.51 0 267.779 -209.55 267.77 -346.6c0 -135.17 -61.2695 -331.14 -267.77 -331.14c-207.45 0 -262.45 195.97 -262.45 331.14c0 137.05 55 346.6 262.45 346.6zM289.2 -3.71973c85.4102 0 205.93 54.3613 205.93 323.762
c0 271.28 -123.89 342.34 -204.609 342.34c-84.4805 0 -204.61 -61.7305 -204.61 -333.011c0 -269.4 120.69 -333.091 203.29 -333.091z" />
    <glyph glyph-name="one" unicode="1" horiz-adv-x="397" 
d="M249.981 111.629c0 -116.714 6.56055 -105.641 96.8184 -105.641v-5.99414h-235.938v5.99414c87.5439 0 87.4307 -13.6855 87.4307 105.641v470.857c0 55.1953 -145.691 -41.5098 -145.691 -41.5098l-2.60156 3.39355l188.558 115.594h11.4238v-548.335z" />
    <glyph glyph-name="two" unicode="2" horiz-adv-x="501" 
d="M482.942 168.02l-35.2217 -153.233l-3.4043 -14.5v-0.226562h-374.56l0.0117188 -0.0566406h-63.7686l47.9902 47.1992c64.0625 63.5762 112.879 115.027 173.447 179.249c90.043 97.7344 147.682 139.911 147.682 249.872c0 79.8408 -25.7881 182.404 -129.642 182.404
c-72.1387 0 -132.424 -26.2744 -158.472 -80.7568c-21.8516 -46.0791 -23.4346 -85.4854 -23.4346 -176.659h-7.36328l-7.25 215.172c63.3047 20.6191 120.038 47.9111 201.248 47.9111c112.8 0 191.487 -66.4492 190.051 -183.921
c-1.17676 -95.9248 -106.467 -158.212 -207.945 -261.613c-64.334 -65.3408 -119.462 -119.926 -168.73 -175.98h5.41797l245.303 -0.463867l49.834 -0.101562h10.6436c85.3945 0 90.3711 86.2881 104.419 125.705h3.74414z" />
    <glyph glyph-name="three" unicode="3" horiz-adv-x="457" 
d="M398.302 367.428c97.1572 -105.878 1.46973 -311.958 -151.347 -356.612c-152.806 -44.5635 -236.956 10.0664 -236.956 10.0664l19.748 29.6904c12.5547 -10.1797 96.6377 -82.5107 220.375 -31.3867c133.917 55.3086 149.752 226.211 118.422 298.033
c-23.8652 54.5166 -91.9551 89.127 -167.51 63.2256c-1.35742 -0.452148 -2.60156 -0.904297 -3.95898 -1.35645c-0.791992 -0.338867 -1.69727 -0.56543 -2.48926 -0.904297v12.2158c59.3799 29.5205 99.0801 98.7412 102.36 159.592
c3.39355 70.4756 -56.4619 146.709 -175.245 61.5176c-74.7061 -55.1045 -58.792 -192.935 -58.792 -192.935h-7.69141l-2.47656 137.875l-0.554688 0.554688c0.169922 0.226562 0.362305 0.441406 0.532227 0.667969l-0.53125 29.8936v12.7354
s95.3818 58.917 176.852 58.498l-0.180664 -0.0566406c51.1123 3.15527 94.8164 -17.373 110.402 -66.0088c16.5137 -70.917 -29.0674 -146.585 -93.3115 -189.226c63.791 12.5547 121.927 -3.05371 152.353 -36.0801z" />
    <glyph glyph-name="four" unicode="4" horiz-adv-x="525" 
d="M391.126 97.9434c0.735352 -103.197 12.0449 -92.9951 98.8877 -92.9834v-5.99414h-235.938v5.99414c80.7803 0 86.9219 -11.5703 87.3857 80.3955l-0.101562 -0.0117188v111.409h-291.359l7.80469 11.5371l21.1504 31.2168l284.912 420.3h27.2588v-420.877h10.6318
c85.2812 0 90.2578 86.1865 104.283 125.547h3.73242l-35.1758 -153.031l-3.39355 -14.4775v-0.226562h-80.0791v-98.7979zM98.4082 255.782c-5.08984 -7.22754 -8.82227 -12.543 -10.9717 -16.2871l253.922 -0.452148v374.039z" />
    <glyph glyph-name="five" unicode="5" horiz-adv-x="481" 
d="M416.28 378.06c97.1504 -105.87 1.4707 -311.96 -151.329 -356.63c-152.8 -44.5703 -236.95 10.0596 -236.95 10.0596l26.1699 36.9805c12.5498 -10.1797 90.21 -89.7998 213.95 -38.6699c133.92 55.3096 149.75 226.21 118.42 298.03
c-42.8701 98.1797 -229.601 131.54 -344.181 -135.5h-7.7998v0.00976562l0.00976562 0.129883l0.0996094 1.55957c0.00976562 0.0400391 0.0292969 0.0800781 0.0390625 0.120117l43.0195 470.82h345.55l-6.62988 -167.76h-3.76953s10.4004 117.08 -55.6494 117.08h-275.4
l-36.3496 -393.94c11.9199 26.79 25.5 50.5205 40.1904 71.4102c105.41 148.96 271.11 151 330.61 86.2998z" />
    <glyph glyph-name="six" unicode="6" horiz-adv-x="533" 
d="M476.55 366.81c75 -81.7002 35.0703 -222.988 -57.21 -303.748c-0.610352 -0.540039 -1.20996 -1.12012 -1.83008 -1.63965c-0.179688 -0.160156 -0.370117 -0.299805 -0.570312 -0.459961c-3.80957 -3.25977 -7.66992 -6.4502 -11.6504 -9.49023l0.679688 0.219727
c-0.55957 -0.330078 -1.23926 -0.669922 -1.80957 -1.12988c-6.16016 -4.66016 -12.54 -9.03027 -19.0801 -13.1406c-2.91992 -1.83008 -5.82031 -3.67969 -8.74023 -5.29004c-0.230469 -0.230469 -0.450195 -0.34082 -0.790039 -0.460938
c-0.120117 -0.110352 -0.230469 -0.110352 -0.34082 -0.220703c-2.30957 -1.30957 -4.56934 -2.39941 -6.85938 -3.61914c-1 -0.530273 -2 -1.08984 -3.00977 -1.59961c-7.30957 -3.7998 -14.54 -7.30957 -21.5801 -10.2793
c-0.219727 0 -0.450195 -0.110352 -0.560547 -0.220703c-48.5195 -19.9102 -87.5498 -20.1406 -87.5498 -20.1406h-0.450195c-2.37012 -0.110352 -4.75 -0.220703 -6.90039 -0.220703c-23.0703 0 -45.9199 3.5 -67.75 10.6299
c-87.3096 27.9404 -157.55 111.521 -157.55 247.471c0 125.78 102.36 328.58 315.45 409.22c6.55957 2.83008 9.38965 -3.72949 3.72949 -5.53906c-195.22 -75.0996 -262.859 -271.34 -262.859 -392.37c0 -140.81 87.3203 -249.729 195.221 -249.729
c12.1104 0 23.7607 1.01953 35.0703 2.93945c0.110352 0 0.220703 0 0.34082 0.110352c38.7197 7.90039 66.8301 29.4199 76.96 38.0498c1.08008 1 2.29004 1.87988 3.33984 2.89941c0.259766 0.230469 0.529297 0.44043 0.789062 0.790039l0.120117 0.110352h0.0400391
c75.3203 73.9697 81.1006 198.14 55.6006 256.64c-42.8604 98.1699 -229.601 131.54 -344.181 -135.5h-7.7998l0.110352 1.69043c14.25 37.8896 31.6699 70.2393 51.0098 97.7295c105.42 148.96 271.12 150.99 330.61 86.2998z" />
    <glyph glyph-name="seven" unicode="7" horiz-adv-x="562" 
d="M485.682 617.55c-110.176 -196.204 -167.486 -360.216 -185.753 -510.657c-10.9824 -106.704 2.04688 -101.897 91.2871 -101.897v-6.02832h-235.949v6.04004c74.627 0 72.9531 -5.59863 84.5693 62.9658c0.802734 4.91992 1.67383 9.83984 2.5332 14.7373
c1.45898 8.38086 3.13281 17.6211 5.14648 27.8906c31.9863 159.061 97.3271 310.045 227.84 506.961h-317.271c-85.3379 0 -90.2354 -86.1074 -104.317 -125.536h-3.7666l38.6143 167.77h423.354z" />
    <glyph glyph-name="eight" unicode="8" horiz-adv-x="505" 
d="M282.572 363.164c105.471 -47.8779 199.572 -94.8027 199.572 -198.068c0 -120.163 -96.1621 -174.601 -223.349 -174.601c-153.043 0 -236.798 51.6328 -236.798 165.213c0 80.7344 79.6152 151.131 187.156 188.682
c-111.669 57.2656 -140.624 89.1836 -140.624 173.662c0 96.6826 86.8652 150.192 180.958 150.192c124.076 0 179.419 -66.6533 179.917 -155.825c0.373047 -66.5742 -76.5156 -131.418 -146.833 -149.255zM105.753 549.033c0 -105.132 62.0381 -140.805 164.41 -179.295
c32.0537 4.69434 122.097 37.8906 122.018 144.561c-0.0791016 118.319 -75.4863 145.499 -142.693 145.499c-68.248 0 -143.734 -42.2451 -143.734 -110.765zM258.796 -1.04297c51.7002 0 179.916 22.5283 176.817 151.129
c-2.06934 63.8369 -29.9834 99.5107 -184.056 172.724c-17.5879 8.44922 -18.6172 8.44922 -34.124 16.8984c-45.502 -17.8477 -148.903 -62.8975 -148.903 -183.049c0 -128.601 104.441 -157.702 190.266 -157.702z" />
    <glyph glyph-name="nine" unicode="9" horiz-adv-x="532" 
d="M352.233 652.75c87.3203 -27.9404 157.566 -111.522 157.557 -247.482c0 -125.77 -102.37 -328.569 -315.46 -409.209c-6.55957 -2.83008 -9.37988 3.72949 -3.72949 5.53906c195.22 75.0996 262.859 271.34 262.859 392.359c0 140.82 -87.3203 249.74 -195.221 249.74
c-12.0996 0 -23.75 -1.01953 -35.0596 -2.93945c-0.120117 0 -0.230469 0 -0.34082 -0.110352c-38.7305 -7.90039 -66.8408 -29.4199 -76.9707 -38.0498c-1.08008 -1 -2.29004 -1.87988 -3.33984 -2.89941c-0.259766 -0.240234 -0.529297 -0.44043 -0.789062 -0.790039
l-0.110352 -0.110352h-0.0498047c-75.3096 -73.9697 -81.0898 -198.14 -55.5996 -256.64c42.8701 -98.1797 229.601 -131.54 344.181 135.5h7.7998l-0.110352 -1.7002c-14.25 -37.8896 -31.6699 -70.2295 -51.0098 -97.7197
c-105.41 -148.96 -271.11 -150.99 -330.61 -86.2998c-75 81.6904 -35.0596 222.98 57.21 303.75c0.610352 0.540039 1.20996 1.12012 1.83008 1.63965c0.179688 0.150391 0.379883 0.300781 0.570312 0.460938c3.80957 3.25977 7.66992 6.4502 11.6504 9.49023
l-0.679688 -0.230469c0.570312 0.339844 1.24023 0.679688 1.81055 1.12988c6.16016 4.66016 12.54 9.04004 19.0801 13.1504c2.91992 1.83008 5.83008 3.66992 8.74023 5.29004c0.230469 0.230469 0.460938 0.34082 0.800781 0.451172
c0.110352 0.120117 0.220703 0.120117 0.34082 0.230469c2.2998 1.32031 4.5498 2.41016 6.84961 3.62988c1.00977 0.519531 1.99023 1.06934 3 1.5791c7.30957 3.7998 14.5498 7.31934 21.5898 10.2793c0.219727 0 0.450195 0.120117 0.560547 0.230469
c48.5303 19.9102 87.5498 20.1299 87.5498 20.1299h0.450195c2.37988 0.120117 4.75 0.230469 6.90039 0.230469c23.0703 0 45.9199 -3.50977 67.75 -10.6299z" />
    <glyph glyph-name="colon" unicode=":" horiz-adv-x="94" 
d="M46.0518 385.715c-8.44922 0 -15.5635 2.89551 -21.3545 8.68652c-5.80273 5.79102 -8.69824 12.9053 -8.69824 21.3545s2.89551 15.7217 8.69824 21.8291c5.7793 6.09668 12.9053 9.15039 21.3545 9.15039s15.7334 -3.04297 21.8301 -9.15039
c6.10742 -6.10742 9.16113 -13.3799 9.16113 -21.8291s-3.05371 -15.5635 -9.16113 -21.3545c-6.09668 -5.79102 -13.3809 -8.68652 -21.8301 -8.68652zM46.0518 53.3887c8.45996 0 15.7334 -3.05371 21.8301 -9.15039c6.10742 -6.10742 9.16113 -13.3799 9.16113 -21.8291
s-3.05371 -15.5752 -9.16113 -21.3662c-6.09668 -5.79102 -13.3809 -8.68652 -21.8301 -8.68652s-15.5752 2.90723 -21.3545 8.68652c-5.80273 5.79102 -8.69824 12.917 -8.69824 21.3662s2.89551 15.7217 8.69824 21.8291c5.7793 6.09668 12.9053 9.15039 21.3545 9.15039z
" />
    <glyph glyph-name="semicolon" unicode=";" horiz-adv-x="94" 
d="M46.0518 385.715c-8.44922 0 -15.5752 2.89551 -21.3545 8.68652c-5.80273 5.79102 -8.69824 12.9053 -8.69824 21.3545s2.89551 15.7217 8.69824 21.8291c5.7793 6.09668 12.9053 9.15039 21.3545 9.15039s15.7334 -3.04297 21.8301 -9.15039
c6.10742 -6.10742 9.16113 -13.3799 9.16113 -21.8291s-3.05371 -15.5635 -9.16113 -21.3545c-6.09668 -5.79102 -13.3809 -8.68652 -21.8301 -8.68652zM46.0518 53.3887c8.44922 0 15.4121 -3.13379 20.8643 -9.39941c5.48535 -6.26562 8.22266 -15.3369 8.22266 -27.2246
c0 -24.0918 -5.24805 -47.3232 -15.7324 -69.707c-10.4844 -22.3721 -23.7061 -42.0068 -39.665 -58.9043l-1.40234 1.41406c-0.938477 0.938477 -1.41309 1.87695 -1.41309 2.81543s0.780273 2.51074 2.35254 4.69336c3.12207 4.07227 7.34082 9.61426 12.668 16.6611
s10.4844 15.2588 15.4951 24.6465c4.99902 9.3877 9.30859 19.7139 12.9053 30.9795c3.6084 11.2656 5.40723 23.1641 5.40723 35.6738c-5.32715 -5.94922 -12.5205 -8.92383 -21.5918 -8.92383c-7.50977 0 -13.7754 2.58984 -18.7744 7.74707
c-4.99902 5.16895 -7.50977 11.9775 -7.50977 20.4268c0 7.49902 2.58984 14.2285 7.75879 20.1777c5.15723 5.94922 11.9658 8.92383 20.415 8.92383z" />
    <glyph glyph-name="less" unicode="&#x3c;" horiz-adv-x="359" 
d="M38.918 323.756c-3.75488 -1.87793 -7.44141 -3.67676 -11.0381 -5.37305c-3.6084 -1.73047 -7.27344 -3.05371 -11.0283 -3.99219c3.75488 -1.25586 7.43066 -2.66992 11.0273 -4.23047c3.6084 -1.57227 7.28418 -3.29102 11.0391 -5.16895l301.821 -153.021
c5.93848 -3.13281 8.91309 -6.41309 8.91309 -9.85156v-5.16895l-342.652 174.612v5.63281l342.652 174.612v-5.16895c0 -3.75488 -2.97461 -7.0459 -8.91309 -9.8623z" />
    <glyph glyph-name="equal" unicode="=" horiz-adv-x="390" 
d="M382.499 243.96h-375.499v9.3877h375.499v-9.3877zM382.499 381.96h-375.499v9.3877h375.499v-9.3877z" />
    <glyph glyph-name="greater" unicode="&#x3e;" horiz-adv-x="359" 
d="M9.00977 491.8l342.641 -174.638v-5.62988l-342.65 -174.61v5.16992c0 3.42969 2.96973 6.70996 8.91016 9.84961l301.82 153.02c3.4502 1.57031 6.96973 3.20996 10.5596 4.92969c3.61035 1.71973 7.29004 3.20996 11.04 4.46973
c-3.75 0.94043 -7.34961 2.27051 -10.79 3.99023c-3.4502 1.71973 -7.04004 3.51953 -10.7998 5.38965l-301.82 153.03c-5.94043 2.80957 -8.91016 6.09961 -8.91016 9.85938v5.16992z" />
    <glyph glyph-name="question" unicode="?" horiz-adv-x="358" 
d="M329.28 587.316c8.44922 -16.4229 12.666 -35.1328 12.666 -56.0684c0 -23.7969 -3.83398 -44.292 -11.5029 -61.4951c-7.66895 -17.2148 -17.2939 -32.3145 -28.8643 -45.2988c-11.582 -12.9844 -24.1025 -24.4873 -37.5508 -34.4971
c-13.46 -10.0215 -26.0488 -19.4775 -37.7891 -28.4014c-11.7295 -8.91309 -21.5918 -17.916 -29.5654 -26.9873c-7.98535 -9.07129 -12.1367 -19.2393 -12.4424 -30.5049l-2.81641 -80.7344h-7.50977v81.6738c0 12.2041 3.82324 23.0732 11.5029 32.6191
c7.65723 9.53516 17.3613 18.8438 29.1016 27.9258c11.7295 9.07129 24.3291 18.459 37.7891 28.1631c13.4482 9.69336 26.0479 20.959 37.7881 33.7969c11.7295 12.8145 21.4229 27.6084 29.0918 44.3477s11.5029 36.5322 11.5029 59.3799
c0 19.3975 -3.91309 36.7588 -11.7285 52.0957c-7.81543 15.3262 -18.1416 28.3105 -30.9795 38.9541c-12.8379 10.6318 -27.6211 18.7754 -44.3604 24.4082s-34.0215 8.44922 -51.8584 8.44922c-22.2139 0 -41.4648 -3.13281 -57.7295 -9.3877
c-16.2871 -6.26562 -29.9727 -13.1533 -41.0801 -20.6631s-19.7148 -14.3975 -25.8115 -20.6523c-6.09668 -6.26562 -9.79492 -9.3877 -11.0391 -9.3877s-2.51074 0.780273 -3.75488 2.35254l-2.34082 3.29102c7.50977 7.81543 16.0264 15.5635 25.584 23.2324
c9.53516 7.66895 20.1787 14.5566 31.9189 20.6533c11.7295 6.09668 24.5557 10.9492 38.4785 14.5459c13.9346 3.59668 29.1816 5.40625 45.7744 5.40625c19.0811 0 37.6982 -3.05371 55.8516 -9.15039c18.1426 -6.10742 34.1924 -14.873 48.1152 -26.2852
c13.9229 -11.4238 25.1094 -25.3467 33.5586 -41.7812zM173.17 56.1035c8.44922 0 15.7227 -3.05371 21.8301 -9.15039c6.10742 -6.10742 9.16113 -13.3799 9.16113 -21.8291s-3.05371 -15.5635 -9.16113 -21.3545c-6.09668 -5.79102 -13.3809 -8.68652 -21.8301 -8.68652
s-15.5752 2.89551 -21.3545 8.68652c-5.80273 5.79102 -8.69824 12.9053 -8.69824 21.3545s2.89551 15.7217 8.69824 21.8291c5.7793 6.09668 12.9053 9.15039 21.3545 9.15039z" />
    <glyph glyph-name="at" unicode="@" horiz-adv-x="703" 
d="M434.831 170.261c0 4.07227 0.177734 8.21094 0.483398 12.4414s0.780273 8.52832 1.41406 12.917c-15.959 -35.9902 -35.6729 -62.2764 -59.1426 -78.8574c-23.4805 -16.5928 -49.291 -24.8838 -77.4541 -24.8838c-16.5811 0 -30.8096 2.89551 -42.708 8.68652
s-21.8291 13.6182 -29.8027 23.4697c-7.98535 9.85156 -13.8555 21.4336 -17.6104 34.7344c-3.75488 13.29 -5.63281 27.6094 -5.63281 42.9463c0 17.5205 2.27344 35.2783 6.80859 53.2734c4.54688 17.9951 11.1973 35.21 19.9512 51.6328
c8.75391 16.4346 19.5557 31.8398 32.3936 46.2383c12.8145 14.3867 27.3711 26.8281 43.6465 37.3125c16.2646 10.4844 34.2598 18.7754 53.9736 24.8721c19.7256 6.10742 40.9893 9.16113 63.8369 9.16113c12.8379 0 25.8906 -1.17676 39.2031 -3.5293
c13.3008 -2.35254 24.6455 -5.87012 34.0332 -10.5645l-41.3057 -157.714c-4.38867 -16.2754 -7.51074 -30.832 -9.38867 -43.6582c-1.87793 -12.8379 -2.81641 -24.4082 -2.81641 -34.7344c0 -15.6426 1.95703 -28.4004 5.87012 -38.252s9.16113 -17.5312 15.7324 -22.9941
c6.57129 -5.47461 14.0811 -9.22949 22.5303 -11.2656s17.2031 -3.05371 26.2852 -3.05371c20.0088 0 39.2598 4.93164 57.7295 14.7949c18.4473 9.85156 34.7227 24.0918 48.8047 42.709s25.3477 41.3057 33.7969 68.0664c8.44922 26.749 12.668 56.8691 12.668 90.3594
c0 49.1221 -8.21191 91.8418 -24.6465 128.138c-16.4346 36.3066 -38.4902 66.4268 -66.1895 90.3604c-27.6885 23.9326 -59.6182 41.6904 -95.7549 53.2725s-74.084 17.373 -113.818 17.373c-29.1016 0 -57.502 -3.83398 -85.1904 -11.5029
c-27.6992 -7.66895 -53.8262 -18.7764 -78.3926 -33.3213s-47.0967 -32.3027 -67.5918 -53.2725s-38.1846 -44.5186 -53.0469 -70.6455c-14.8506 -26.127 -26.4443 -54.7656 -34.7236 -85.8926c-8.30176 -31.1377 -12.4414 -64.2324 -12.4414 -99.2725
c0 -56.96 9.21777 -107.258 27.6875 -150.905c18.459 -43.6475 43.4209 -80.2705 74.8643 -109.836c31.4434 -29.5771 68.1348 -51.8701 110.062 -66.8906s86.209 -22.5303 132.843 -22.5303c45.3662 0 88.0186 5.55371 127.911 16.6611s77.5117 28.4014 112.88 51.8711
c1.24414 0.938477 2.6582 1.41309 4.23047 1.41309c2.17188 0 3.75488 -0.938477 4.69336 -2.81641l2.81641 -5.16895c-36.001 -24.0918 -74.7959 -42.166 -116.407 -54.2119c-41.6338 -12.0459 -87 -18.0742 -136.122 -18.0742
c-49.1328 0 -95.291 7.82715 -138.475 23.4697c-43.1719 15.6533 -80.8926 38.7266 -113.116 69.2422c-32.2236 30.5049 -57.6611 68.124 -76.2783 112.88c-18.6289 44.7441 -27.9258 96.377 -27.9258 154.897c0 53.1934 9.07129 102.101 27.2246 146.687
c18.1309 44.5859 42.7764 82.917 73.9258 114.994c31.127 32.0654 67.3545 57.0273 108.649 74.8643c41.3057 17.8369 85.2695 26.7607 131.903 26.7607c26.9082 0 53.3525 -2.74805 79.333 -8.22266c25.9688 -5.48535 50.4561 -13.6172 73.4502 -24.4072
c23.0059 -10.8018 44.2021 -24.4082 63.5996 -40.8428c19.4092 -16.4229 36.0693 -35.7529 49.9922 -57.9668c13.9346 -22.2256 24.8037 -47.2559 32.6309 -75.1025c7.81543 -27.8574 11.7285 -58.5205 11.7285 -92c0 -34.4297 -4.38867 -65.4883 -13.1426 -93.1768
c-8.75391 -27.6992 -20.6523 -51.3271 -35.6611 -70.8828c-15.0205 -19.5674 -32.4727 -34.667 -52.3457 -45.2988c-19.873 -10.6436 -40.9102 -15.96 -63.124 -15.96c-28.1631 0 -48.4316 7.35156 -60.7939 22.0664c-12.3623 14.7041 -18.5381 34.418 -18.5381 59.1426z
M417.704 178.482c11.0957 19.8613 20.7227 45.1289 28.8545 75.8027l39.4395 152.07c-9.7041 2.51074 -18.9443 4.53516 -27.6875 6.10742c-8.76562 1.57227 -19.8838 2.35254 -33.332 2.35254c-21.5918 0 -41.7812 -2.98633 -60.5566 -8.9248
c-18.7646 -5.94922 -35.9111 -14.002 -51.3955 -24.1699s-29.2607 -22.2246 -41.3066 -36.1367c-12.0459 -13.9346 -22.2256 -28.7969 -30.5049 -44.5977c-8.30176 -15.8008 -14.6357 -32.1445 -19.0127 -49.043c-4.38867 -16.8975 -6.57129 -33.6367 -6.57129 -50.2178
c0 -13.7764 1.80957 -26.7607 5.40625 -38.9648c3.58496 -12.2041 8.91211 -22.8477 15.959 -31.9189c7.03516 -9.08203 15.959 -16.2754 26.749 -21.5918c10.79 -5.32715 23.5371 -7.98535 38.252 -7.98535c12.8262 0 26.127 2.18262 39.9033 6.57129
c13.7539 4.38867 27.0547 12.2832 39.8926 23.707c12.8262 11.4238 24.8037 27.0664 35.9111 46.9395z" />
    <glyph glyph-name="A" unicode="A" horiz-adv-x="660" 
d="M668.04 6.20996l30.9932 -0.111328v-6.09961h-267.83l-0.00976562 5.90039h74.3096c33.9297 0 43.8896 14.0098 7.12988 110.71c-7.91016 20.8203 -17.9805 45.4707 -30.4209 74.8809l-17.8701 41.2803l-3.74023 9.38965l-10.7402 25.3398
c-43.8896 96.8203 -192.729 130.07 -303.46 -83.25l-3.16992 -7.7998c-17.0801 -41.7402 -30.9902 -84.6104 -34.2705 -115.94c0 -0.110352 -0.110352 -0.450195 -0.110352 -0.669922c-0.799805 -6.11035 0 -14.1406 0 -14.1406
c2.70996 -25.9004 18.5996 -40.1406 56.9492 -40.1406c10.29 0 70.5703 0.339844 74.3105 0.339844l0.0498047 -5.90039h-280.16v5.90039h3.84961c71.4404 0.269531 83.8105 8.12988 106.2 46.7002c19.46 33.4805 41.2803 76.9102 61.9805 128.601l191.49 469.27
c0.910156 1.91992 1.91992 2.83008 6.55957 2.83008h7.46973c5.65039 0 7.57031 -0.910156 8.48047 -2.83008l142.74 -340.45l28.9502 -69.2197l20.7002 -49.3096c70.4697 -167.06 84.4893 -185.279 129.619 -185.279zM170.153 242.608
c73.7402 103.72 169.88 134.149 240.35 118.43l-98.29 233.11z" />
    <glyph glyph-name="B" unicode="B" horiz-adv-x="527" 
d="M288.51 340.68c126.68 -8.37012 220.561 -60.9707 220.561 -163.331c0 -104.06 -66.4004 -172.369 -234.471 -177.009c-6.11035 -0.219727 -12.5605 -0.339844 -19.001 -0.339844h-251.78v6c87.5498 0 87.4395 -13.6904 87.4395 105.64h0.19043l3.37012 424.69
c0 116.72 -6.55957 105.64 -96.8193 105.64v5.99023h235.94c143.75 -3.16992 253.52 -40.3604 253.52 -150.521c0 -96.7002 -85.3896 -141.72 -198.949 -156.76zM182.951 642.229c-36.4902 -1.84961 -36.4404 -16.7305 -36.4404 -105.891l-1.45996 -191.92h85.21
c116.39 0 198.05 41.4004 198.05 154.051s-94.2197 143.42 -215.239 143.42zM251.871 8.36719c133.23 0 198.039 59.1602 198.039 168.97c0 104.17 -72.2695 156.76 -207.43 156.76h-97.5098l-1.87012 -244.62h-0.0400391v-0.0195312
c0.44043 -35.3301 2.40039 -55.7998 9.2207 -67.6602c3.03027 -4.66016 11.3203 -12.96 32.4502 -13.1396c22.1602 -0.290039 50.8398 -0.290039 67.1396 -0.290039z" />
    <glyph glyph-name="C" unicode="C" horiz-adv-x="640" 
d="M600.633 241.257l7.50977 -0.0224609l0.0449219 -209.335c-50.6826 -22.5195 -146.438 -42.2334 -233.732 -42.2334c-204.642 0 -360.456 136.111 -360.456 335.12c0 200.875 161.446 335.108 362.333 335.108c76.0293 0 180.233 -18.7754 230.916 -41.2949
l-0.0449219 -201.825l-8.52832 -0.0341797c-5.63281 62.8975 -9.25195 136.156 -42.1094 173.696c-34.7344 39.4395 -102.326 60.0811 -181.172 60.0811c-174.601 0 -299.446 -125.784 -299.446 -325.721c0 -199.009 120.151 -325.732 295.691 -325.732
c81.6738 0 150.193 23.4805 185.867 64.7754c33.7842 38.4902 36.5557 115.458 43.127 177.417z" />
    <glyph glyph-name="D" unicode="D" horiz-adv-x="614" 
d="M241.32 647.96c193.38 0 358.128 -117.59 358.108 -318.46c0 -197.13 -145.5 -329.49 -354.83 -329.49l0.639648 5.98047c180.23 0 293.181 126.38 293.181 323.51c0 198.06 -128.14 310.01 -298.989 310.01h-65.2803
c-27.6797 -3.46973 -27.6494 -21.8594 -27.6494 -103.18l-3.41016 -446.56c1.16016 -93.3604 12.5303 -83.7705 96.71 -83.7705v-6h-235.94v6c87.54 0 87.4297 -13.6904 87.4297 105.64h0.160156l3.37012 424.69c0 116.72 -6.55957 105.64 -96.8193 105.64v5.99023h243.32z
" />
    <glyph glyph-name="E" unicode="E" horiz-adv-x="508" 
d="M476.318 196.254l10.5439 -0.00195312v-186.85c0 -5.13477 -4.15137 -9.29688 -9.28613 -9.29688h-474.715v5.99414c87.5439 0 87.4307 -13.6855 87.4307 105.641h0.158203l3.37012 424.688c0 116.725 -6.56055 105.641 -96.8184 105.641v5.99414h462.104
c5.12402 0 9.28613 -4.16211 9.29785 -9.28613v-186.861h-10.5527s18.4473 181.919 -120.819 188.954l-110.47 1.13086c-80.9385 -0.56543 -81.0518 10.7568 -81.0518 -105.572l-1.49316 -193.795l80.6553 -2.10352c93.4248 1.13086 140.363 16.5693 140.363 100.833
h5.99414v-194.881h-5.99414c0 87.5439 -42.8672 87.4307 -162.193 87.4307v0.113281l-58.8828 0.407227l-1.86621 -244.557c1.15332 -93.3682 12.5312 -83.7764 96.7041 -83.7764l116.702 1.19922c139.267 7.03516 120.819 188.954 120.819 188.954z" />
    <glyph glyph-name="F" unicode="F" horiz-adv-x="476" 
d="M460.104 647.957c5.12402 0 9.28711 -4.16406 9.29883 -9.29883v-186.85h-10.5527s18.4473 181.919 -120.819 188.954l-110.47 1.13086c-80.9385 -0.56543 -81.0518 10.7568 -81.0518 -105.572l-1.49316 -194.892l80.6445 -0.283203
c93.4248 1.13086 140.363 15.959 140.363 100.223h5.99414v-194.881h-5.99414c0 87.5439 -42.8672 87.4307 -162.193 87.4307v0.113281l-58.8711 0.259766l-1.86621 -244.522c1.15332 -93.3682 12.5312 -83.7764 96.7041 -83.7764v-5.99414h-235.938v5.99414
c87.5439 0 87.4307 -13.6855 87.4307 105.641h0.158203l3.37012 424.688c0 116.725 -6.56055 105.641 -96.8184 105.641v5.99414h462.104z" />
    <glyph glyph-name="G" unicode="G" horiz-adv-x="698" 
d="M295.949 316.734l402.891 0.000976562v-8.91309c-63.6445 0 -73.1562 8.41504 -74.5811 -51.6211c-0.587891 -77.4883 -0.599609 -163.245 -0.599609 -256.489h-10.6543c-12.3965 11.9102 -27.4961 23.4238 -38.5352 29.4297
c-38.1387 -4.64844 -108.818 -39.0215 -208.249 -39.0215c-204.483 0 -352.222 135.636 -352.222 330.821c0 198.862 159.841 331.795 358.703 331.795c75.3281 0 178.537 -18.583 228.677 -40.9551l-8.32422 -198.67l-8.23438 -0.192383
c0 60.8955 1.65137 126.44 -24.2949 161.786c-36.3066 45.502 -106.014 68.7334 -188.693 68.7334c-174.748 0 -296.449 -123.636 -296.449 -322.498c0 -195.175 115.209 -321.524 293.645 -321.524c59.0752 0 130.377 33.0723 171.853 70.7363
c30.3008 29.4863 31.918 61.3711 31.8838 68.2588c-0.135742 6.58301 -0.226562 17.124 -0.226562 33.8301c0 16.5703 -0.113281 33.3555 -0.293945 48.625c-4.6709 96.1396 -199.959 86.9551 -276.294 86.9551v8.91309z" />
    <glyph glyph-name="H" unicode="H" horiz-adv-x="623" 
d="M528.15 89.6104c1.16016 -93.3398 12.5381 -83.749 96.6885 -83.749v-5.99023h-235.94v5.99023c87.54 0 87.4297 -13.6904 87.4297 105.64h0.160156l1.5498 195.15h-333.31l-1.63965 -215.57c1.15039 -93.3604 12.5303 -83.7705 96.7002 -83.7705v-6h-235.94v6
c87.5498 0 87.4297 -13.6904 87.4297 105.64h0.160156l3.37012 424.69c0 116.72 -6.55957 105.64 -96.8096 105.64v5.99023h235.93v-5.99023c-87.54 0 -87.4297 13.6797 -87.4297 -105.641l-1.67969 -221.43h333.31l1.74023 219.99
c0 116.72 -6.55957 105.64 -96.8193 105.64v5.99023h235.94v-5.99023c-87.54 0 -87.4297 13.6904 -87.4297 -105.64z" />
    <glyph glyph-name="I" unicode="I" horiz-adv-x="238" 
d="M91.29 111.64l0.15918 0.000976562l3.37012 424.69c0 116.72 -6.55957 105.64 -96.8193 105.64v5.99023h235.94v-5.99023c-87.5498 0 -87.4297 13.6797 -87.4297 -105.641l-3.41016 -446.58c1.16016 -93.3398 12.5303 -83.75 96.7002 -83.75v-6h-235.94v6
c87.54 0 87.4297 -13.6904 87.4297 105.64z" />
    <glyph glyph-name="J" unicode="J" horiz-adv-x="227" 
d="M-5.62695 642.102l0.00976562 5.98535h235.938v-5.99414c-87.5439 0 -87.4307 13.6855 -87.4307 -105.641l-3.4043 -446.834v-58.7021s0.158203 -11.1182 -1.73047 -28.8867c-2.375 -22.4736 -8.21094 -55.625 -21.5684 -90.3936v-0.101562
c-0.113281 -0.305664 -0.260742 -0.588867 -0.384766 -0.894531c-5.22559 -13.46 -11.6504 -27.0664 -19.4551 -40.4805c-1.00684 -1.74219 -2.00195 -3.48438 -3.01953 -5.20312c-0.780273 -1.27832 -1.4248 -2.59082 -2.23926 -3.86914l0.0341797 0.418945
c-7.0918 -11.5254 -14.6699 -22.4629 -22.8926 -32.4277l-5.54199 -6.2207c-2.26172 -2.60156 -4.63672 -5.08984 -6.89844 -7.46484c-7.46484 -7.80469 -14.9297 -14.7041 -22.3945 -20.9248c-2.03613 -1.69629 -4.07227 -3.39258 -6.22168 -4.97559
c-79.0605 -61.9814 -155.067 -42.4141 -198.5 13.3467c-2.375 3.05371 -4.63672 6.10742 -6.67285 9.27441l36.6465 49.0879c26.376 -70.4648 89.7598 -116.386 161.197 -69.0283l-0.373047 0.203125c9.04883 5.08984 16.5137 13.1201 24.7705 21.7158
c34.1582 35.5146 42.1885 94.6689 43.3193 185.153c0.113281 3.61914 0.113281 7.35156 0.113281 11.084l-0.0341797 77.9746l3.55176 448.157c0 116.725 -6.56055 105.641 -96.8184 105.641z" />
    <glyph glyph-name="K" unicode="K" horiz-adv-x="609" 
d="M589.768 4.96777h29.1855v-4.97656h-118.421s-17.6445 -0.452148 -30.8779 20.6982c-15.1562 24.2041 -42.5273 66.3926 -76.3457 143.305c-21.6035 50.5586 -38.5693 86.9785 -55.7617 113.105c-2.71484 4.29785 -5.54297 8.37012 -8.37109 12.1025
c-24.9961 32.9141 -52.0283 45.6953 -95.6865 50.1064l-89.3535 -122.493l-1.01758 -127.356h-0.0341797c1.17676 -93.0293 12.623 -83.4609 96.6943 -83.4609v-5.99414h-235.938v5.99414c87.5439 0 87.4307 -13.6855 87.4307 105.641h0.271484l3.28027 424.699
c0 116.725 -6.56055 105.641 -96.8184 105.641v5.99414h236.164l-0.226562 -5.99414c-55.5352 0 -75.7812 5.54199 -83.1328 -20.9248c-0.113281 -0.452148 -0.226562 -0.791016 -0.453125 -1.24316c-3.8457 -15.3828 -3.8457 -41.0576 -3.8457 -83.4717l-1.35742 -185.04
l-0.113281 -9.83984l-0.226562 -22.0557l-0.226562 -36.0811l-0.338867 -51.8027l77.8164 108.808l8.03027 11.1973l73.8916 103.096l5.33887 7.52148c52.4805 73.1787 80.6436 121.022 80.6436 150.204c0 19.6807 -14.9756 29.4639 -42.2344 29.4639
c-10.293 0 -47.0518 -0.113281 -53.6123 -0.113281l0.395508 6.27734h271.227v-6.93359h-47.165c-26.2402 0 -60.9639 -10.9258 -90.0322 -45.6494c-36.6465 -38.4561 -81.6514 -100.427 -108.91 -137.978l0.0341797 -0.0117188l-8.40332 -11.5137l-68.8926 -94.9297
c55.1611 -3.4043 94.7256 -17.9951 128.307 -51.0107c4.52441 -4.52441 8.93555 -9.27441 13.2334 -14.4775c18.21 -21.6035 34.8369 -49.4277 51.6895 -84.8301c76.0068 -160.496 95.0088 -195.672 154.163 -195.672z" />
    <glyph glyph-name="L" unicode="L" horiz-adv-x="473" 
d="M337.018 7.32031c139.267 7.03516 120.819 188.953 120.819 188.953h10.5527v-186.85c0 -5.13477 -4.15137 -9.29688 -9.28613 -9.29688h-462.104v5.99414c90.2578 0 96.8184 -11.084 96.8184 105.641l-3.37012 424.688h-0.158203
c0 119.326 0.113281 105.641 -87.4307 105.641v5.99414h235.938v-5.99414c-84.1729 0 -95.5508 9.60254 -96.7041 -83.7773l3.4043 -446.552c0 -116.329 0.124023 -105.007 81.0508 -105.572z" />
    <glyph glyph-name="M" unicode="M" horiz-adv-x="791" 
d="M696.154 89.582c1.17676 -93.0176 12.625 -83.4609 96.6963 -83.4609v-5.99414h-235.938v5.99414c81.3115 0 87.001 -11.7402 87.3965 82.2168h-0.0224609v6.89941l0.0566406 3.77734v12.7461h0.169922l3.39355 424.699c0 30.7305 -0.486328 52.5146 -2.79395 68.0332
c-3.6875 -0.293945 -8.39258 -6.09668 -20.2803 -24.374l-235.599 -375.51c-2.82812 -5.54199 -5.65527 -7.46484 -9.3877 -7.46484h-5.65527c-2.82812 0 -5.65625 1.92285 -9.38867 7.46484l-259.012 378.225c-0.338867 -12.668 -0.338867 -27.9375 -0.338867 -46.374
l-3.39355 -389.987c1.13086 -93.4248 12.4414 -140.363 96.7051 -140.363v-5.99414h-194.881v5.99414c87.5439 0 87.4307 42.8672 87.4307 162.193h0.113281l3.39355 368.158c0 11.3105 -0.113281 21.4902 -0.339844 30.5391c0 3.16699 -0.113281 6.2207 -0.226562 9.16113
c-2.14941 62.208 -13.2334 66.5059 -62.8867 66.167h-1.13086c-9.3877 0 -20.0195 -0.226562 -32.2354 -0.226562v5.99414h128.375c1.13086 -2.03613 2.60156 -4.52441 4.18457 -7.12598c8.37012 -13.7988 21.377 -33.2529 31.4434 -47.7305l238.426 -349.156
l196.238 312.623c20.585 32.8008 34.7227 55.3086 44.1104 71.2568l0.0117188 -0.0341797l11.9775 20.167h134.256v-5.99414c-87.5439 0 -87.4307 13.6855 -87.4307 -105.641l-3.39355 -446.879h-0.0449219z" />
    <glyph glyph-name="N" unicode="N" horiz-adv-x="667" 
d="M475.418 642.113v5.98438h194.881v-5.99414c-87.5439 0 -87.4307 -42.8672 -87.4307 -162.193h-0.113281l-3.28027 -457.059l-0.113281 -22.7344h-12.5547c-3.39355 2.375 -7.0127 6.33398 -11.3105 11.9893c-1.4707 1.69629 -2.82812 3.61914 -4.41113 5.76855
l-445.183 569.146c0 -1.35742 -0.113281 -2.71484 -0.113281 -4.18555c-0.338867 -12.668 -0.338867 -27.9375 -0.338867 -46.374l-3.39355 -389.987c1.13086 -93.4248 12.4414 -140.363 96.7051 -140.363v-5.99414h-194.881v5.99414
c87.5439 0 87.4307 42.8672 87.4307 162.193h0.113281l3.39355 368.158c0 11.3105 -0.113281 21.4902 -0.339844 30.5391c0 3.16699 -0.113281 6.2207 -0.226562 9.16113c-0.226562 6.2207 -0.56543 11.876 -0.904297 16.9658
c-3.8457 46.0342 -17.3057 49.54 -61.9824 49.2012h-1.13086c-3.28027 0 -6.67383 0 -10.293 -0.113281c-6.67285 0 -14.0244 -0.113281 -21.9414 -0.113281v5.99414h130.071c0.678711 -1.35742 1.58398 -2.82812 2.60156 -4.41113
c7.46484 -12.2158 20.585 -29.1816 33.7051 -44.79l404.238 -512.809c0.113281 7.80469 0.113281 16.2871 0.113281 25.6748l3.39355 389.987c-1.13086 93.4248 -12.4414 140.363 -96.7051 140.363z" />
    <glyph glyph-name="O" unicode="O" 
d="M347.242 659.904c184.916 0 330.415 -141.744 330.415 -335.109c0 -192.438 -159.569 -334.182 -334.17 -334.182c-182.111 0 -329.487 141.744 -329.487 334.182c0 196.182 153.947 335.109 333.242 335.109zM339.732 0.0136719
c158.63 0 276.905 132.355 276.905 324.793c0 193.365 -101.376 325.721 -265.639 325.721c-160.52 0 -275.039 -132.355 -275.039 -325.721c0 -192.438 105.143 -324.793 263.772 -324.793z" />
    <glyph glyph-name="P" unicode="P" horiz-adv-x="549" 
d="M285.905 648.051c160.508 -0.441406 257.487 -64.2686 257.476 -180.247c0 -115.367 -101.455 -193.297 -253.469 -193.297c-1.92285 0 -3.95898 0.113281 -5.99512 0.113281c-6.33398 0 -12.668 0.113281 -19.002 0.339844
c-49.5742 1.24414 -98.9111 6.09668 -121.352 8.47168l-1.4707 -193.523c1.15332 -93.3682 12.5312 -83.7764 96.7041 -83.7764v-5.99414h-235.938v5.99414c87.5439 0 87.4307 -13.6855 87.4307 105.641h0.158203l3.37012 424.688
c0 116.725 -6.56055 105.641 -96.8184 105.641v5.99414h289.278zM273.07 284.788c135.161 0 210.263 71.3818 210.263 184.023c0 113.558 -70.4648 169.884 -209.358 169.884h-93.8779c-15.9365 0 -24.9512 -1.82129 -30.0635 -16.5479
c-4.54688 -15.0996 -4.53516 -41.1025 -4.53516 -85.7002l-1.65137 -216.947c33.0039 -21.5576 79.0605 -33.4678 121.984 -34.7119h7.23926z" />
    <glyph glyph-name="Q" unicode="Q" horiz-adv-x="697" 
d="M632.517 80.1035c76.0293 -160.52 92.9268 -188.669 152.069 -188.681h29.1924v-8.44922h-118.501s-17.6221 -0.520508 -30.8438 20.6523c-15.1562 24.2607 -40.3672 62.8867 -74.1631 139.854c-6.23242 14.6016 -12.0684 28.0049 -17.6445 40.333
c-61.3711 -57.5596 -143.418 -91.7852 -229.141 -91.7852c-182.111 0 -329.487 141.744 -329.487 334.182c0 196.182 153.948 335.109 333.243 335.109c184.928 0 330.415 -141.744 330.415 -335.109c0 -77.6133 -25.9912 -146.958 -68.417 -202.108
c7.82715 -13.2109 15.541 -27.7109 23.2773 -43.998zM339.732 1.41895c90.3145 0 167.51 42.958 217.276 115.425c-44.1787 88.2676 -76.7646 103.299 -171.377 104.057h-57.2539v9.3877c23.458 0.938477 55.3877 0.938477 89.1719 0.938477
c75.916 -0.984375 124.325 -18.7646 165.292 -68.8135c21.6484 46.8936 33.7959 102.247 33.7959 163.799c0 193.365 -101.376 325.721 -265.639 325.721c-160.52 0 -275.039 -132.355 -275.039 -325.721c0 -192.438 105.143 -324.793 263.772 -324.793z" />
    <glyph glyph-name="R" unicode="R" horiz-adv-x="643" 
d="M626.561 6.09766l29.1895 -0.000976562v-4.97656h-118.421s-17.6445 -0.452148 -30.8779 20.6982c-15.1562 24.2041 -42.584 66.3809 -76.4023 143.293c-21.6035 50.5586 -38.5693 86.9785 -55.7617 113.105c-2.70312 4.28711 -5.53027 8.34766 -8.34668 12.0684
h-0.0351562c-27.2588 35.877 -49.3145 48.8506 -97.8477 52.4697c-4.10547 0.0449219 -8.2334 0.0791016 -12.3164 0.237305c-26.2402 0.56543 -52.4805 2.14844 -73.9707 3.73145c-4.75 0.338867 -9.27441 0.677734 -13.5723 1.0166
c-9.30859 0.871094 -17.1807 1.53809 -23.1191 2.09277l-1.97949 -258.966c1.15332 -93.3457 12.5312 -83.7539 96.6934 -83.7539v-5.99414h-235.938v5.99414c87.5439 0 87.4307 -13.6855 87.4307 105.641h0.158203l3.37012 424.688
c0 116.725 -6.56055 105.641 -96.8184 105.641v5.99414h289.278l-2.47656 -0.293945c141.076 -2.64648 225.996 -54.6074 225.996 -147.682c0 -83.2451 -71.9346 -142.738 -184.135 -155.858c31.7598 -7.56641 57.6611 -21.5801 80.7236 -44.1895
c0.0117188 0 0.0234375 0.0117188 0.0351562 0.0117188c4.52441 -4.52441 8.93555 -9.27441 13.2334 -14.4775c18.21 -21.6035 34.8369 -49.4277 51.6895 -84.8301c76.0068 -160.496 95.0654 -195.66 154.22 -195.66zM145.294 379.276
c24.1025 -13.9688 55.6035 -22.9844 87.2617 -26.5586c8.03027 -1.01758 16.0605 -1.46973 23.9775 -1.69629h6.67285c7.23828 0 14.3643 0.226562 21.2637 0.678711c110.391 6.33398 171.354 63.3389 171.354 150.317c0 93.1992 -64.583 139.347 -191.826 139.347h-85.96
c-4.37695 0 -8.13184 -0.169922 -11.4463 -0.678711c-20.0879 -6.99023 -20.0879 -30.1426 -20.0879 -103.242z" />
    <glyph glyph-name="S" unicode="S" horiz-adv-x="484" 
d="M266.12 348.266c105.143 -40.3672 195.254 -78.8457 195.266 -177.417c0 -107.948 -91.9883 -180.234 -208.385 -180.234c-86.3672 0 -143.621 12.2041 -210.274 30.041l-10.3262 226.222h10.3262c0 -163.324 43.1836 -246.875 211.201 -246.875
c106.07 0 165.213 54.4375 165.213 137.988c0 91.9775 -86.3672 125.785 -195.254 168.019c-112.642 43.1836 -200.887 78.8574 -200.887 177.417c0 111.703 101.388 176.479 224.355 176.479c83.54 0 140.806 -12.2041 194.305 -24.4082l4.69434 -223.406v-1.87793h-9.3877
v1.87793c0 151.132 -14.0703 238.427 -190.549 238.427c-114.52 0 -181.173 -57.2539 -181.173 -131.417c0 -94.7939 89.1719 -127.662 200.875 -170.834z" />
    <glyph glyph-name="T" unicode="T" horiz-adv-x="554" 
d="M19.1113 648.142l515.128 -0.00195312l15.1113 -228.1h-6.66211l-7.50977 53.499c-18.7754 128.601 -50.6826 167.328 -155.825 167.328l-43.749 0.881836c-31.8848 -2.96289 -31.8506 -20.3135 -31.8506 -105.561l-3.4043 -446.552
c1.15332 -93.3682 12.5312 -83.7764 96.7041 -83.7764v-5.99414h-235.938v5.99414c87.5439 0 87.4307 -13.6855 87.4307 105.641h0.158203l3.37012 424.688c0 83.8115 -3.38184 101.728 -38.7051 105.166c-13.6748 -0.237305 -27.2705 -0.486328 -39.373 -0.486328
c-105.143 0 -137.05 -38.7275 -155.825 -167.328l-7.50977 -53.499h-6.66211z" />
    <glyph glyph-name="U" unicode="U" horiz-adv-x="663" 
d="M442.647 642.068h-53.7139v8.44922h284.8v-8.4375h-51.8135c-45.0615 0 -61.0205 -3.75488 -61.0205 -178.355v-206.52c0 -153.947 -78.8574 -266.589 -233.732 -266.589c-144.56 0 -229.038 92 -229.038 260.018v208.386c0 179.295 -4.69434 183.05 -49.7559 183.05
h-58.374v8.44922h274.473v-8.4375h-62.1396c-45.9883 0 -51.6211 -3.75488 -51.6211 -183.05v-183.062c0 -166.141 70.4082 -260.007 208.386 -260.007c119.213 0 188.683 96.6826 188.683 241.242v206.508c4.52441 186.997 -20.9473 178.355 -105.132 178.355z" />
    <glyph glyph-name="V" unicode="V" horiz-adv-x="712" 
d="M444.127 643.153l0.31543 7.36133h279.8v-8.49414l-48.9971 0.0449219c-30.9795 0 -49.7549 -14.0703 -66.6523 -47.8662c-15.0088 -29.0908 -33.7842 -68.5303 -47.8662 -104.192l-186.805 -489.995c-0.938477 -1.87793 -1.87695 -2.81641 -6.57129 -2.81641h-5.62109
c-5.63281 0 -7.51074 0.938477 -8.44922 2.81641l-192.438 482.485c-59.1318 150.182 -73.2246 159.569 -120.152 159.569l-53.6914 0.0566406v8.39258h279.167l-0.169922 -8.44922h-63.8477c-45.0615 0 -44.123 -10.3262 15.959 -163.324l161.446 -408.333
c1.87793 -3.75488 2.81641 -5.63281 4.69434 -5.63281s2.81641 1.87793 4.69434 5.63281l158.63 416.782c12.2041 32.8457 28.1631 79.7959 28.1631 107.948c0 31.918 -20.6641 47.8662 -60.0811 47.8662c-7.50977 0 -67.7725 0.147461 -71.5273 0.147461z" />
    <glyph glyph-name="W" unicode="W" horiz-adv-x="1026" 
d="M758.334 643.153l0.327148 7.36133h279.8v-8.48242l-48.9971 0.0449219c-30.9795 0 -49.7549 -14.0703 -66.6533 -47.8662c-15.0088 -29.0908 -33.7842 -68.5303 -47.8662 -104.192l-186.805 -489.995c-0.938477 -1.87793 -1.87695 -2.81641 -6.57129 -2.81641h-5.62109
c-5.63281 0 -7.51074 0.938477 -8.44922 2.81641l-150.103 376.336l-143.475 -376.336c-0.938477 -1.87793 -1.87695 -2.81641 -6.57129 -2.81641h-5.62109c-5.63281 0 -7.51074 0.938477 -8.44922 2.81641l-192.438 482.485
c-59.1318 150.182 -73.2246 159.569 -120.152 159.569l-53.6914 0.0566406v8.39258h279.167l-0.169922 -8.44922h-63.8477c-45.0615 0 -44.123 -10.3262 15.959 -163.324l161.446 -408.333c1.87793 -3.75488 2.81641 -5.63281 4.69434 -5.63281
s2.81641 1.87793 4.69434 5.63281l122.301 321.332l-36.1934 90.7441c-59.1318 150.182 -73.2246 159.569 -120.152 159.569l-53.6914 0.0566406v8.39258h423.025v-8.49414l-48.9971 0.0449219c-30.9795 0 -49.7549 -14.0703 -66.6523 -47.8662
c-15.0088 -29.0908 -33.7842 -68.5303 -47.8662 -104.192l-16.1289 -42.3125l149.175 -377.286c1.87793 -3.75488 2.81641 -5.63281 4.69434 -5.63281s2.81641 1.87793 4.69434 5.63281l158.63 416.782c12.2041 32.8457 28.1631 79.7959 28.1631 107.948
c0 31.918 -20.6641 47.8662 -60.0811 47.8662c-7.50977 0 -67.7725 0.147461 -71.5273 0.147461zM532.304 478.741l6.1416 -15.5176l9.12793 23.9668c12.2041 32.8457 28.1631 79.7959 28.1631 107.948c0 27.5859 -13.1318 46.9268 -52.4023 46.9268
c-49.0986 0 -51.1123 -10.3262 8.96973 -163.324z" />
    <glyph glyph-name="X" unicode="X" 
d="M652.011 7.52441l48.6699 -0.0214844l0.0566406 -7.38574h-271.137l-0.226562 7.38574h54.5732c18.7754 0 30.9795 2.81641 30.9795 15.959c0 20.6533 -30.9795 68.5195 -104.192 178.356l-77.918 119.213l-115.458 -160.52
c-35.6738 -48.8047 -54.4385 -88.2334 -54.4385 -110.764c0 -24.3965 18.7871 -41.7354 48.8281 -41.7354c13.1426 0 61.0312 0.271484 64.7861 0.271484l-0.678711 -8.15527h-284.855l0.0791016 7.1709l42.3018 0.226562c56.3262 0 100.438 60.0703 172.723 158.63
l121.091 165.202l-78.8574 121.091c-117.336 181.172 -127.674 188.682 -177.418 188.682l-54.6299 -0.305664v8.75391h284.8v-8.44922h-62.1396c-16.8867 0 -30.0293 -2.81641 -30.0293 -17.8252c0 -17.8369 25.3467 -58.1934 86.3672 -152.071l67.5801 -104.192
l69.4697 96.6826c52.5713 73.2129 80.7344 121.091 80.7344 150.192c0 19.7031 -15.0205 28.1523 -42.2334 28.1523c-10.3262 0 -47.0293 -0.113281 -53.6006 -0.113281l0.350586 7.62305h271.216v-8.44922h-47.1201c-26.2861 0 -61.0205 -9.3877 -90.1221 -44.1113
c-36.6006 -38.4785 -81.6621 -100.438 -108.887 -137.988l-74.1631 -100.438l106.081 -163.324c117.336 -180.233 135.173 -187.743 177.418 -187.743z" />
    <glyph glyph-name="Y" unicode="Y" horiz-adv-x="640" 
d="M379.476 642.928l0.319336 7.59082h273.115v-8.09863l-48.9971 -0.350586c-53.499 0 -102.315 -70.4082 -135.161 -126.724l-121.091 -212.141v-125.773c0 -165.202 4.69434 -168.957 50.6826 -168.957h62.1396v-8.44922c-26.2861 0 -123.613 0.124023 -137.695 0.124023
c-13.1543 0 -113.32 -0.124023 -139.595 -0.124023v8.44922h62.1289c46 0 50.6943 3.75488 50.6943 168.957v121.091l-118.274 204.642c-63.8252 110.764 -84.4893 138.916 -137.05 138.916l-53.6914 -0.0449219v8.49414l298.066 0.192383l-0.124023 -8.6416h-63.0791
c-61.959 0 -54.4492 -26.2744 13.1426 -143.61l106.07 -183.988l117.336 203.691c27.2129 46 50.6934 124.846 -25.3477 124.846c-14.0703 0 -48.8955 -0.0908203 -53.5898 -0.0908203z" />
    <glyph glyph-name="Z" unicode="Z" horiz-adv-x="530" 
d="M506.099 273.16l9.38867 -0.951172l-5.62988 -74.1504c-12.2002 -153.01 -17.3398 -192.31 -22.9697 -197.939h-475.47c-9.37988 0 -4.7002 4.57031 0 12.0801l428.04 627.03h-205.57c-118.27 0 -171.779 -47.8701 -184.919 -165.2l-7.50977 -77.9199l-11.2695 0.94043
l8.4502 76.9805c10.3301 101.37 15.96 169.9 20.6504 172.721l435.55 3.75977c7.50977 0 13.1396 -2.82031 8.44922 -9.39062l-428.05 -627.97c33.7998 0 204.64 -2.82031 232.79 -2.82031c121.09 0 178.359 61.96 191.499 189.62z" />
    <glyph glyph-name="bracketleft" unicode="[" horiz-adv-x="91" 
d="M162.041 696.449l-111.714 0.000976562v-801.714h111.714c4.37695 0 6.57129 -1.87793 6.57129 -5.63281v-2.81641h-128.612v818.611h128.612v-2.81641c0 -3.75488 -2.19434 -5.63281 -6.57129 -5.63281z" />
    <glyph glyph-name="backslash" unicode="\" horiz-adv-x="415" 
d="M64.082 670.164l300.429 -706.897h-3.75488c-1.87793 0 -3.8457 0.316406 -5.88184 0.938477c-2.03613 0.633789 -3.51758 2.19434 -4.45605 4.69434l-300.419 706.897h4.69434c4.38867 0 7.51074 -1.87793 9.38867 -5.63281z" />
    <glyph glyph-name="bracketright" unicode="]" horiz-adv-x="91" 
d="M-78 704.898l128.612 -0.000976562v-818.611h-128.612v2.81641c0 3.75488 2.18262 5.63281 6.57129 5.63281h111.714v801.714h-111.714c-4.38867 0 -6.57129 1.87793 -6.57129 5.63281v2.81641z" />
    <glyph glyph-name="asciicircum" unicode="^" horiz-adv-x="328" 
d="M166.642 657.021l153.032 -276.01h-6.57129c-4.06055 0 -7.20508 2.18262 -9.3877 6.57129l-131.429 237.51c-1.57227 3.13281 -3.12207 6.18652 -4.69434 9.16113s-2.81641 6.17578 -3.75488 9.625c-2.18262 -6.26562 -4.99902 -12.5205 -8.4375 -18.7754
l-131.429 -237.51c-0.938477 -1.57227 -2.12598 -3.04297 -3.52832 -4.45703c-1.41406 -1.41406 -3.37109 -2.11523 -5.87109 -2.11523h-6.57129l153.009 276h5.63281z" />
    <glyph glyph-name="underscore" unicode="_" horiz-adv-x="450" 
d="M409.88 -123.1h-369.88v10.3301h369.88v-10.3301z" />
    <glyph glyph-name="grave" unicode="`" horiz-adv-x="117" 
d="M28.918 654.205l76.9902 -110.774h-6.57129c-3.4502 0 -5.9502 1.24414 -7.51074 3.75488l-94.8271 117.347h12.2041c5.32715 0 9.22949 -0.633789 11.7402 -1.87793c2.5 -1.25586 5.1582 -4.07227 7.97461 -8.44922z" />
    <glyph glyph-name="a" unicode="a" horiz-adv-x="568" 
d="M477.031 111.58c0 -116.61 6.55273 -105.514 96.8125 -105.514v-6.11035h-235.94v6.11035c87.5498 0 87.4297 -13.7998 87.4297 105.521v116.28c-11.7598 -30.7695 -24.9902 -58.1396 -39.4707 -82.1201c-105.41 -174.86 -271.11 -177.351 -330.61 -101.23
c-51.46 65.7197 -48.8604 164.46 -12.3203 250.64c3.5 8.25977 7.23047 16.29 11.4209 24.3203c1.12988 2.37988 2.37012 4.63965 3.62012 6.89941c3.0498 5.66016 6.21973 11.3105 9.60938 16.7402c2.83008 4.75 5.87988 9.28027 8.93945 13.7998
c2.03027 3.0498 4.18066 6.10938 6.33105 9.0498c7.24023 9.9502 14.9307 19.4502 23.1904 28.3906c2.49023 2.70996 4.9707 5.42969 7.58105 8.0293c2.70996 2.83008 5.42969 5.42969 8.13965 8.0293c2.83008 2.70996 5.66016 5.2002 8.60059 7.69043
c2.82031 2.59961 5.76074 4.97949 8.71094 7.34961c5.99023 4.63965 11.9805 9.0498 18.2002 13.2402c6.23047 4.17969 12.5605 7.91016 19.1201 11.3105c4.86035 2.59961 9.84082 4.96973 14.8213 7.22949h0.110352c4.98047 2.26953 10.0703 4.2998 15.1602 6
c16.6201 5.76953 32.5703 10.0693 47.5 13.1191c3.73047 0.790039 7.4707 1.58008 11.0811 2.15039c2.71973 0.55957 5.42969 1.01953 8.14941 1.46973c0.900391 0.110352 1.81055 0.230469 2.60059 0.34082c2.37012 0.450195 4.75 0.680664 7.00977 0.900391
c2.37988 0.339844 4.63965 0.570312 6.89941 0.800781c2.25977 0.330078 4.5293 0.560547 6.66895 0.670898c2.26953 0.120117 4.41992 0.339844 6.55957 0.459961c2.15039 0.219727 4.30078 0.339844 6.45117 0.339844c6.21973 0.330078 12.0996 0.330078 17.8691 0.219727
h1.7002c15.3799 0.339844 29.9697 -1.36035 43.54 -4.64062c0.339844 -0.110352 0.570312 -0.110352 0.910156 -0.220703c0.339844 -0.120117 0.55957 -0.120117 0.899414 -0.230469c3.50977 -0.900391 6.89941 -1.91992 10.2998 -3.16992
c3.28027 -1.12988 6.56055 -2.37012 9.7207 -3.73047c2.49023 -1.12988 4.87012 -2.25977 7.24023 -3.38965l0.120117 -0.110352c1.34961 -0.570312 2.70996 -1.25 3.9502 -2.04004c0.120117 0 0.120117 -0.110352 0.230469 -0.110352
c1.7002 -0.910156 3.28027 -1.81055 4.86035 -2.83008c0.799805 -0.450195 1.58984 -1.02051 2.37988 -1.4707c2.25977 -1.36035 4.41016 -2.83008 6.4502 -4.41016l0.110352 -0.120117c1.46973 -1.12988 2.93945 -2.25977 4.40918 -3.5
c0.110352 0 0.110352 0 0.230469 -0.230469h0.110352c0.110352 -0.110352 0.230469 -0.220703 0.34082 -0.220703c1.46973 -1.25 2.93945 -2.49023 4.2998 -3.74023l0.220703 -0.220703c1.80957 -1.58984 3.50977 -3.28027 5.20996 -5.08984
c0.55957 -0.570312 1.12988 -1.12988 1.58008 -1.7002c1.91992 -2.03027 3.72949 -4.18066 5.42969 -6.33105c0.450195 -0.570312 0.900391 -1.25 1.36035 -1.80957v-0.120117c6.9502 -9.12012 12.6006 -19.0303 17.5508 -29.2803
c6.66992 40.3799 10.6299 71.3701 10.6299 71.3701h5.86035v-181.21zM85.0049 103.337c42.2998 -114.01 225.525 -153.487 340.325 149.183l-0.110352 44.5703c-0.900391 31.21 -5.65039 59.2598 -13.46 80.1895c-5.99023 16.0596 -14.8105 31.8896 -26.0107 45.9199
c-1.7002 2.04004 -3.40039 4.07031 -5.09082 5.99023c-24.3203 27.8301 -57.9102 47.5098 -94.7803 46.3799c-0.459961 0 -0.799805 -0.120117 -1.25 -0.120117c-3.5 -0.110352 -7.00977 -0.450195 -10.6299 -0.900391
c0.110352 0.110352 0.34082 0.110352 0.571289 0.230469h-0.679688c-1.46973 -0.230469 -3.05957 -0.34082 -4.5293 -0.680664c-1.80957 -0.230469 -3.61914 -0.450195 -5.42871 -0.790039c-3.73047 -0.679688 -7.57031 -1.46973 -11.5303 -2.37988
c-5.76953 -1.24023 -11.7695 -2.94043 -17.8691 -4.98047c-1.80957 -0.55957 -3.61914 -1.12988 -5.42871 -1.80957c-2.37988 -0.790039 -4.75 -1.69043 -7.24023 -2.70996c-2.71973 -1.01953 -5.31934 -2.03906 -8.0293 -3.2793
c-3.50977 -1.46973 -7.00977 -3.0498 -10.5195 -4.75c-4.53027 -2.15039 -8.94043 -4.53027 -13.2305 -7.24023c-2.26953 -1.24023 -4.5293 -2.60059 -6.67969 -4.07031c-1.91992 -1.12988 -3.83984 -2.37988 -5.64941 -3.72949
c-5.42969 -3.62012 -10.5195 -7.7002 -15.5 -11.9902c-2.37012 -2.04004 -4.75 -4.19043 -7.00977 -6.34082c-2.37988 -2.25977 -4.63965 -4.51953 -6.89941 -6.7793c-4.51953 -4.53027 -8.81934 -9.39062 -12.6689 -14.3711
c-1.58008 -1.80957 -3.0498 -3.72949 -4.41016 -5.64941c-0.900391 -1.01953 -1.7002 -2.14941 -2.49023 -3.2793c-1.58008 -2.04004 -3.16016 -4.2998 -4.52051 -6.55957c-3.73047 -5.20996 -7.13086 -10.6299 -10.1807 -16.29
c-1.58008 -2.83008 -3.16992 -5.54004 -4.63965 -8.48047c-1.58008 -2.83008 -3.0498 -5.66016 -4.41016 -8.60059c-1.46973 -2.94043 -2.83008 -5.88086 -4.07031 -8.82129c-2.71973 -5.87988 -5.08984 -11.8799 -7.24023 -17.8701
c-1.01953 -2.71973 -1.91992 -5.42969 -2.93945 -8.14941c-0.230469 -0.790039 -0.570312 -1.58008 -0.790039 -2.37012c-0.910156 -2.59961 -1.7002 -5.19922 -2.49023 -7.80957c-1.01953 -3.28027 -1.91992 -6.56055 -2.83008 -9.84082
c-19.4502 -71.7002 -16.0605 -147.601 0.339844 -191.82z" />
    <glyph glyph-name="b" unicode="b" horiz-adv-x="558" 
d="M502.28 436.19c97.1299 -124.19 1.47949 -366.282 -151.341 -418.692c-64.9004 -22.2695 -117.37 -23.46 -156.32 -17.5h-198.62v6.04004c87.5498 0 87.4297 -13.7305 87.4297 105.59v527.53c0 55.0801 -76.0498 7.78027 -76.0498 7.78027l-2.59961 3.36035
l118.85 66.2305h11.4902v-456.46c11.04 27.7305 23.2803 52.7607 36.5703 74.8105c105.41 174.93 271.11 177.37 330.591 101.311zM354.141 27.3281c133.88 64.96 149.729 265.561 118.39 349.94c-42.0098 113.08 -222.33 152.64 -337.41 -141.65v-123.99
c0 -27.5498 0.389648 -47.8994 2.12988 -63.0293c27.3398 -21.9004 108.78 -73.7607 216.891 -21.2705z" />
    <glyph glyph-name="c" unicode="c" horiz-adv-x="518" 
d="M503.112 257.64l8.58008 -0.00195312c-13.9102 -42.6396 -30.7598 -79.3994 -49.54 -110.619c-105.41 -174.86 -325.4 -175.771 -398.92 -96.3701c-56.6699 61.3096 -59.7197 159.6 -23.1895 245.779c3.50977 8.25977 7.24023 16.29 11.4307 24.3203
c1.12988 2.37012 2.37012 4.63965 3.62012 6.89941c3.0498 5.65039 6.21973 11.3105 9.60938 16.7402c2.83008 4.75 5.87988 9.26953 8.93945 13.7998c2.03027 3.0498 4.18066 6.09961 6.33105 9.0498c7.24023 9.9502 14.9307 19.4502 23.1904 28.3799
c2.48047 2.71973 4.9707 5.42969 7.57031 8.04004c5.32031 5.54004 10.8604 10.8496 16.7402 15.7197c2.83008 2.59961 5.77051 4.96973 8.71094 7.34961c6 4.63965 11.9902 9.0498 18.21 13.2295c6.21973 4.19043 12.5596 7.9209 19.1191 11.3105
c9.73047 5.32031 19.79 9.73047 30.0801 13.2402c16.6299 5.75977 32.5801 10.0596 47.5098 13.1191c6.55957 1.46973 13.0098 2.59961 19.2295 3.61914c0.900391 0.110352 1.81055 0.220703 2.60059 0.331055c2.37012 0.459961 4.75 0.679688 7.00977 0.910156
c2.37988 0.339844 4.63965 0.570312 6.89941 0.790039c2.25977 0.339844 4.51953 0.570312 6.66992 0.680664c2.26953 0.110352 4.40918 0.34082 6.55957 0.451172c2.15039 0.230469 4.30078 0.34082 6.45117 0.34082c3.95996 0.230469 7.7998 0.34082 11.4199 0.34082
c2.26953 0 4.2998 -0.110352 6.4502 -0.110352h1.7002c15.3799 0.339844 29.9697 -1.36035 43.54 -4.64062c0.339844 -0.110352 0.570312 -0.110352 0.910156 -0.230469c0.339844 -0.110352 0.55957 -0.110352 0.899414 -0.220703
c27.9404 -7.46973 51.3506 -22.1699 67.1904 -42.4199c0.450195 -0.55957 0.900391 -1.23926 1.35059 -1.80957v-0.110352c16.0703 -21.1504 26.7002 -45.4707 32.4697 -71.7109l-50.4502 -54.8496c-1.7002 26.9199 -6.21973 51.0098 -13.1201 69.5596
c-19 51.3496 -68.54 100.09 -125.89 98.2803c-0.450195 0 -0.790039 -0.110352 -1.24023 -0.110352c-3.50977 -0.110352 -7.00977 -0.450195 -10.6299 -0.900391c0.110352 0.110352 0.34082 0.110352 0.560547 0.220703h-0.669922
c-1.48047 -0.219727 -3.06055 -0.339844 -4.53027 -0.679688c-1.80957 -0.219727 -3.61914 -0.450195 -5.42871 -0.790039c-3.73047 -0.679688 -7.58008 -1.46973 -11.5303 -2.37012c-5.76953 -1.25 -11.7695 -2.94043 -17.8799 -4.98047
c-1.80957 -0.570312 -3.61914 -1.12988 -5.41895 -1.80957c-2.37988 -0.790039 -4.75977 -1.7002 -7.24023 -2.70996c-2.71973 -1.01953 -5.31934 -2.14941 -8.0293 -3.2793c-3.50977 -1.46973 -7.01953 -3.05957 -10.5195 -4.75
c-4.53027 -2.15039 -8.94043 -4.53027 -13.2402 -7.24023c-2.25977 -1.25 -4.51953 -2.59961 -6.66992 -4.06934c-1.91992 -1.25 -3.83984 -2.49023 -5.64941 -3.74023c-5.42969 -3.62012 -10.5195 -7.69043 -15.5 -11.9902
c-2.37988 -2.03027 -4.75 -4.18066 -7.00977 -6.33105c-2.37988 -2.25977 -4.63965 -4.51953 -6.89941 -6.78906c-4.53027 -4.51953 -8.82031 -9.37988 -12.6699 -14.3604c-1.46973 -1.91992 -2.93945 -3.72949 -4.40918 -5.65918
c-0.910156 -1.00977 -1.7002 -2.14941 -2.49023 -3.2793c-1.58008 -2.03027 -3.16992 -4.29004 -4.51953 -6.55957c-3.74023 -5.2002 -7.12988 -10.6299 -10.1797 -16.2803c-1.58984 -2.83008 -3.16992 -5.5498 -4.63965 -8.49023
c-1.58008 -2.82031 -2.94043 -5.65039 -4.41016 -8.59082c-1.36035 -2.94043 -2.7207 -5.77051 -4.07031 -8.82031c-2.71973 -5.88965 -5.08984 -11.8799 -7.24023 -17.8799c-1.01953 -2.70996 -1.91992 -5.41992 -2.93945 -8.13965
c-0.230469 -0.790039 -0.570312 -1.58008 -0.790039 -2.37012c-0.799805 -2.61035 -1.7002 -5.20996 -2.49023 -7.80957c-22.6201 -74.5303 -11.8799 -151.79 8.37012 -196.8c47.9502 -106.43 295.431 -158.689 410.121 148.171z" />
    <glyph glyph-name="d" unicode="d" horiz-adv-x="569" 
d="M477.219 111.64c0 -116.67 6.54102 -105.593 96.8213 -105.612v-6.04004h-235.94v6.04004c87.5498 0 87.4297 -13.7305 87.4297 105.59v119.7c-11.79 -30.9102 -25.1797 -58.2998 -39.71 -82.4199c-105.41 -174.92 -271.11 -177.37 -330.591 -101.3
c-97.1396 124.2 -1.47949 366.29 151.33 418.7c111.73 38.3203 186.7 14.3105 218.97 -1.37988v174.24c0 55.0801 -76.0498 7.78027 -76.0498 7.78027l-2.59961 3.36035l118.85 66.2305h11.4902v-604.89zM425.529 256.347l0.000976562 174.438
c-20.3896 17.8096 -105.85 82.1299 -222.17 25.6699c-133.87 -64.9697 -149.73 -265.56 -118.381 -349.949c42.3799 -114.09 225.649 -153.35 340.55 149.841z" />
    <glyph glyph-name="e" unicode="e" horiz-adv-x="519" 
d="M503.118 257.67h8.58887c-13.9102 -42.6396 -30.7705 -79.3994 -49.54 -110.619c-105.42 -174.86 -325.46 -175.86 -398.95 -96.3604c-56.6504 61.2998 -59.6904 159.58 -23.1602 245.771c3.50977 8.25977 7.24023 16.29 11.4199 24.3203
c1.12988 2.37012 2.37988 4.63965 3.62012 6.89941c3.05957 5.65039 6.21973 11.3105 9.62012 16.7402c2.82031 4.75 5.87988 9.26953 8.92969 13.7998c2.04004 3.0498 4.19043 6.09961 6.34082 9.0498c7.23047 9.9502 14.9307 19.4502 23.1807 28.3799
c2.49023 2.71973 4.98047 5.42969 7.58008 8.0293c5.32031 5.5498 10.8604 10.8594 16.7402 15.7295c2.83008 2.59961 5.77051 4.96973 8.71094 7.34961c5.99023 4.63965 11.9902 9.0498 18.21 13.2295c6.21973 4.19043 12.5498 7.9209 19.1094 11.3105
c9.73047 5.32031 19.8008 9.73047 30.0908 13.2402c16.6299 5.75977 32.5703 10.0596 47.5 13.1191c6.55957 1.46973 13.0098 2.59961 19.2295 3.61914c0.910156 0.110352 1.81055 0.220703 2.60059 0.331055c2.37988 0.459961 4.75 0.679688 7.01953 0.910156
c2.37012 0.339844 4.62988 0.55957 6.89941 0.790039c2.25977 0.339844 4.51953 0.570312 6.66992 0.680664c2.25977 0.110352 4.41016 0.34082 6.56055 0.451172c2.15039 0.230469 4.30078 0.34082 6.45117 0.34082c6.13965 0.259766 12.0898 0.319336 17.8301 0.219727
c0.389648 -0.00976562 0.790039 0.0205078 1.16992 0.0107422h0.55957c15.3896 0.339844 29.9795 -1.36035 43.5498 -4.64062c0.339844 -0.110352 0.55957 -0.110352 0.899414 -0.230469c0.339844 -0.110352 0.570312 -0.110352 0.910156 -0.220703
c27.9404 -7.46973 51.3506 -22.1699 67.1807 -42.4199c0.459961 -0.55957 0.910156 -1.23926 1.36035 -1.80957v-0.110352c29.1797 -38.46 40.3799 -87.6602 37.21 -139.12v-2.83008h-396.07c-17.8604 -70.5098 -7.30078 -141.67 11.8389 -184.12
c47.9902 -106.44 295.46 -158.7 410.14 148.16zM87.1172 314.11c-0.790039 -2.61035 -1.70117 -5.21094 -2.50098 -7.81055c-0.709961 -2.33008 -1.29004 -4.66992 -1.92969 -7.00977h339.67c-1.00977 30.8701 -5.7793 58.5498 -13.459 79.29
c-19 51.3496 -68.54 100.09 -125.89 98.2803c-0.450195 0 -0.790039 -0.110352 -1.24023 -0.110352c-3.50977 -0.110352 -7.01953 -0.450195 -10.6396 -0.900391c0.120117 0.110352 0.339844 0.110352 0.570312 0.220703h-0.679688
c-1.46973 -0.219727 -3.0498 -0.339844 -4.51953 -0.679688c-1.80957 -0.219727 -3.61914 -0.450195 -5.42871 -0.790039c-3.73047 -0.679688 -7.58008 -1.46973 -11.54 -2.37012c-5.76953 -1.25 -11.7598 -2.94043 -17.8701 -4.98047
c-1.80957 -0.570312 -3.61914 -1.12988 -5.42871 -1.80957c-2.37012 -0.790039 -4.75 -1.7002 -7.24023 -2.70996c-2.70996 -1.01953 -5.30957 -2.14941 -8.0293 -3.2793c-3.5 -1.46973 -7.00977 -3.05957 -10.5195 -4.75
c-4.51953 -2.15039 -8.92969 -4.53027 -13.2295 -7.24023c-2.25977 -1.25 -4.51953 -2.59961 -6.66992 -4.08008c-1.92969 -1.24023 -3.84961 -2.48047 -5.65918 -3.73047c-5.42969 -3.62012 -10.5195 -7.69043 -15.4893 -11.9902
c-2.37988 -2.03027 -4.75 -4.18066 -7.01953 -6.33105c-2.37012 -2.25977 -4.62988 -4.51953 -6.89941 -6.78906c-4.51953 -4.51953 -8.81934 -9.37988 -12.6592 -14.3604c-1.46973 -1.91992 -2.93945 -3.72949 -4.40918 -5.65918
c-0.910156 -1.00977 -1.7002 -2.14941 -2.49023 -3.2793c-1.58984 -2.03027 -3.16992 -4.29004 -4.53027 -6.55957c-3.73047 -5.2002 -7.12012 -10.6299 -10.1797 -16.2803c-1.58008 -2.83008 -3.16016 -5.5498 -4.62988 -8.49023
c-1.58984 -2.82031 -2.93945 -5.65039 -4.40918 -8.59082c-1.36035 -2.94043 -2.7207 -5.77051 -4.08105 -8.83008c-2.70996 -5.87988 -5.08984 -11.8701 -7.24023 -17.8701c-1.00977 -2.70996 -1.91992 -5.41992 -2.93945 -8.13965
c-0.219727 -0.790039 -0.55957 -1.58008 -0.790039 -2.37012z" />
    <glyph glyph-name="f" unicode="f" horiz-adv-x="234" 
d="M403.517 655.054c2.375 -3.05371 4.63867 -6.1084 6.6748 -9.27539l-36.6465 -49.0879c-29.6338 79.1738 -105.979 127.47 -187.98 47.165c-32.8008 -34.1914 -41.4873 -90.2354 -43.127 -174.793h157.567v-8.33594h-157.726v-349.088
c0 -116.668 6.53711 -105.595 96.8174 -105.595v-6.04004h-235.938v6.04004c87.5439 0 87.4307 -13.7314 87.4307 105.595l1.85449 335.606l0.0449219 0.0791016c0.441406 4.55859 1.17676 8.93555 1.76465 13.4033h-96.2529v8.33594h97.3496
c4.26367 27.6543 11.2197 53.5781 20.6523 77.2959c12.3281 31.4434 28.7285 59.1543 47.9561 82.4541c1.24414 1.4707 2.48828 2.94141 3.73242 4.29883c0.56543 0.678711 1.13086 1.24414 1.80957 1.92285c2.26172 2.60156 4.63672 5.08984 6.89844 7.46484
c7.0127 7.57812 14.5908 14.5908 22.3955 20.9248c2.03613 1.69629 4.07227 3.39258 6.22168 4.97559c79.0605 61.9814 155.067 42.4141 198.5 -13.3467z" />
    <glyph glyph-name="g" unicode="g" horiz-adv-x="454" 
d="M337.35 39.9102c97.6104 0 132.329 -46.9414 132.329 -99.5312c0 -115.48 -173.73 -227.12 -318.28 -226.21c-107 -0.910156 -161.4 52.5898 -161.4 118.31c0 61.7197 51.9297 111.91 111.689 143.44h-60.5v5.41016h151.27v-5.41016h-75.6299
c-55.1602 -27.8301 -91.2002 -69.9102 -91.2002 -115.271c0 -62.8896 63.9004 -108.02 172.71 -108.02c124.87 0 247.811 69.4502 247.811 159.601c0 59.1504 -36.5303 83.5801 -137.98 83.5801h-161.41c-71.3701 0.910156 -124.86 15.9502 -124.86 60.96
c0 41.29 61.0703 80.7598 136.061 92.9795c-80.6396 13.1201 -135.159 66.6201 -135.159 156.76c0 95.6904 86.4102 169.891 196.24 169.891c32.9199 0 66.3496 -13.71 85.0898 -22.8096c46.71 26.8701 94.2295 34.79 134.329 27.7998l1.58984 -40.4902
c-33.54 22.9404 -78.4004 29.1504 -125.681 7.39062c0.200195 -0.0996094 0.390625 -0.189453 0.581055 -0.299805c0.790039 -0.450195 1.58984 -0.900391 2.25977 -1.24023c0.570312 -0.339844 1.12988 -0.679688 1.7002 -1.01953
c0.110352 -0.110352 0.34082 -0.110352 0.451172 -0.220703v-0.120117c48.8604 -28.8398 78.0508 -78.1494 78.0508 -137.079c0 -99.4199 -84.4902 -161.4 -198.05 -161.4c-5.66016 0 -11.3105 0 -15.9502 0.900391c-57.3398 -4.62988 -120.229 -29.9697 -120.229 -65.71
c0 -38.46 55.4199 -42.1904 119.21 -42.1904h154.96zM76.2988 313.959c0 -98.5098 55.4199 -157.66 132.45 -157.66c76.9102 0 136.061 47.8398 136.061 152.01c0 87.3203 -57.2305 158.69 -131.431 158.69c-80.75 0 -137.08 -50.6699 -137.08 -153.04z" />
    <glyph glyph-name="h" unicode="h" horiz-adv-x="598" 
d="M509.58 111.64c0 -116.67 4.14941 -105.602 94.4189 -105.602v-6.04004h-235.93v6.04004c82.0703 0 85.5508 -12.0703 85.6709 84.7393v175.56c0.790039 13.6904 0.679688 26.9209 0 39.5908c0 0.55957 0 1.12988 -0.120117 1.68945
c-1.58008 27.04 -6.09961 51.2402 -13 69.6807c-38.2998 103.07 -191.49 144.96 -305.5 -71.2705v-196.2c0 -116.67 6.54004 -105.6 96.8203 -105.6v-6.04004h-235.94v6.04004c87.54 0 87.4297 -13.7305 87.4297 105.6v527.52c0 55.0801 -76.0498 7.78027 -76.0498 7.78027
l-2.59961 3.36035l118.85 66.2305h11.4902v-388.29c1.61035 2.78027 3.12012 5.76074 4.75 8.45117c105.41 174.98 271 177.351 330.49 101.351c27.9199 -35.7197 39.8301 -81.1797 39.1201 -129.05l0.0996094 0.0800781v-195.62z" />
    <glyph glyph-name="i" unicode="i" horiz-adv-x="232" 
d="M141.12 111.64c0 -116.67 6.54004 -105.6 96.8203 -105.6v-6.04004h-235.94v6.04004c87.54 0 87.4297 -13.7305 87.4297 105.6l-0.0595703 287.35c0 55.0898 -76.0498 7.78027 -76.0498 7.78027l-2.59961 3.36035l118.85 66.2402h11.4902zM128.48 565.899
l-118.84 -66.2402l-2.75 4.94043l118.84 66.2402z" />
    <glyph glyph-name="j" unicode="j" horiz-adv-x="166" 
d="M129.64 476.36l0.0986328 -441.01v-0.450195c0 -9.28027 -0.790039 -19 -2.03027 -28.8398c-4.19043 -33.2598 -14.3701 -67.5293 -23.5303 -90.5996c-12.3301 -31.4404 -28.7305 -59.1504 -47.9502 -82.4502c-1.25 -1.48047 -2.49023 -2.9502 -3.74023 -4.2998
c-0.55957 -0.679688 -1.12988 -1.25 -1.80957 -1.92969c-2.25977 -2.59961 -4.62988 -5.08984 -6.89941 -7.45996c-7.00977 -7.58008 -14.5898 -14.5898 -22.3896 -20.9199c-2.04004 -1.7002 -4.07031 -3.28027 -6.2207 -4.98047l-0.0498047 0.0195312
c-79.0303 -61.9404 -155.03 -42.3701 -198.45 13.3799c-2.37988 3.05957 -4.63965 6.10938 -6.66992 9.2793l36.6396 49.0996c29.5801 -79.0303 105.69 -127.271 187.521 -47.6104c0.160156 0.169922 0.320312 0.330078 0.470703 0.5
c34.1602 35.5098 42.1904 94.6699 43.3203 185.15c0.120117 3.62012 0.120117 7.35059 0.120117 11.0811v0.230469l-0.120117 384.45c0 55.0801 -76 7.7998 -76 7.7998l-2.59961 3.38965l118.87 66.1699h11.4199zM123.179 565.9l-118.85 -66.2305l-2.75 4.94043
l118.85 66.2305z" />
    <glyph glyph-name="k" unicode="k" horiz-adv-x="484" 
d="M336.899 165.31c75.1016 -121.136 87.3154 -160.95 176.216 -160.271v-4.97656h-83.3584c-17.7578 0 -29.9736 1.80957 -41.2842 9.3877c-23.4131 15.043 -47.8438 51.5762 -91.9551 124.868l-12.4414 21.6035l-5.08984 8.93555l-73.292 127.356l-1.56055 2.66895
l-69.0166 -93.04v-90.2578c0 -116.611 6.56055 -105.527 96.8184 -105.527v-6.10742h-235.938v6.10742c87.5439 0 87.4307 -13.7988 87.4307 105.527v527.523c0 55.082 -76.0068 7.80371 -76.0068 7.80371l-2.60156 3.39355l118.874 66.2793h11.4238v-499.021
l108.921 146.245l44.1113 58.0234c15.1338 23.209 8.93555 43.3193 -93.877 43.3193v8.37012h258.446v-8.37012c-77.4209 -4.84082 -107.563 15.4951 -201.554 -106.885l-16.6943 -22.5078l1.4248 -2.375l92.7461 -154.275l5.88184 -9.95312z" />
    <glyph glyph-name="l" unicode="l" horiz-adv-x="226" 
d="M135.12 111.64c0 -116.67 6.54004 -105.601 96.8203 -105.601v-6.04004h-235.94v6.04004c87.54 0 87.4297 -13.7305 87.4297 105.6v527.52c0 55.0801 -76.0498 7.78027 -76.0498 7.78027l-2.59961 3.36035l118.85 66.2305h11.4902v-604.89z" />
    <glyph glyph-name="m" unicode="m" horiz-adv-x="970" 
d="M881.54 111.62c0 -116.66 4.14941 -105.592 94.4189 -105.592v-6.04004h-235.92v6.04004c82.0596 0 85.5498 -12.0703 85.6602 84.7393v175.56c0.790039 13.6904 0.679688 26.9209 0 39.5908c0 0.55957 0 1.12988 -0.110352 1.68945
c-1.58984 27.04 -6.10938 51.2402 -13.0098 69.6807c-37.3096 100.41 -183.72 142.88 -296.66 -55.0205c0.209961 -5.00977 0.379883 -10.0293 0.299805 -15.0996l0.0996094 0.0800781v-195.64c0 -116.67 4.13965 -105.59 94.4199 -105.59v-6.04004h-235.92v6.04004
c82.0703 0 85.5508 -12.0703 85.6611 84.7393v175.56c0.799805 13.6797 0.679688 26.9199 0 39.5898c0 0.55957 0 1.12988 -0.110352 1.68945c-1.58008 27.0303 -6.11035 51.2402 -13.0107 69.6699c-38.3799 103.32 -192.18 145.19 -306.27 -72.7197l0.0302734 -192.25
c0 -116.67 6.54004 -105.59 96.8203 -105.59v-6.04004h-235.94v6.04004c87.54 0 87.4297 -13.7305 87.4297 105.59l-0.0595703 287.36c0 55.0801 -76.0498 7.78027 -76.0498 7.78027l-2.59961 3.36035l118.85 66.2305h11.4902l0.0302734 -152.01
c1.84961 3.25977 3.62988 6.70996 5.53027 9.84961c105.41 174.98 271 177.351 330.49 101.341c21.5898 -27.5996 33.46 -61.0996 37.4795 -96.9697c105.52 170.54 268.75 172.32 327.74 96.9707c27.9102 -35.71 39.8203 -81.1699 39.1104 -129.04l0.0996094 0.0800781
v-195.63z" />
    <glyph glyph-name="n" unicode="n" horiz-adv-x="605" 
d="M516.32 111.64c0 -116.67 4.1377 -105.602 94.418 -105.611v-6.04004h-235.92v6.04004c82.0703 0 85.5508 -12.0703 85.6611 84.7393v175.56c0.799805 13.6904 0.679688 26.9209 0 39.5908c0 0.55957 0 1.12988 -0.110352 1.68945
c-1.58008 27.04 -6.11035 51.2402 -13.0107 69.6807c-38.3799 103.31 -192.18 145.18 -306.27 -72.7305l0.0302734 -192.25c0 -116.66 6.54004 -105.59 96.8203 -105.59v-6.04004h-235.94v6.04004c87.54 0 87.4297 -13.7305 87.4297 105.59l-0.0595703 287.36
c0 55.0801 -76.0498 7.78027 -76.0498 7.78027l-2.59961 3.36035l118.85 66.2402h11.4902l0.0302734 -152.02c1.84961 3.25977 3.62988 6.70996 5.53027 9.84961c105.41 174.98 271 177.351 330.49 101.351c27.9102 -35.7197 39.8203 -81.1797 39.1104 -129.05
l0.0996094 0.0800781v-195.62z" />
    <glyph glyph-name="o" unicode="o" horiz-adv-x="497" 
d="M442.951 435.28c94.7803 -124.76 -0.679688 -364.658 -152.699 -416.908c-24.2002 -8.25977 -46.6006 -13.6895 -67.291 -16.7393c-0.799805 -0.230469 -1.7002 -0.34082 -2.49023 -0.451172c-17.8701 -2.59961 -34.3896 -3.61914 -49.54 -3.2793
c-1.12988 0 -2.14941 -0.120117 -3.2793 0c-13.7998 -0.339844 -26.9199 1.00977 -39.3604 3.83984c-1.7002 0.230469 -3.40039 0.680664 -4.98047 1.02051c-28.2803 7.34961 -52.0303 22.0596 -68.0898 42.6396c-0.450195 0.570312 -0.900391 1.25 -1.36035 1.80957
c-94.8896 124.76 0.680664 364.649 152.7 416.909c23.9697 8.25 46.2598 13.5703 66.7295 16.7402c20.1299 3.0498 38.4502 4.06934 55.1904 3.72949h0.570312c15.3799 0.339844 29.9697 -1.36035 43.54 -4.64062c0.339844 -0.110352 0.570312 -0.110352 0.910156 -0.220703
c28.2803 -7.36035 52.0303 -22.1699 68.0898 -42.6396c0.450195 -0.570312 0.900391 -1.25 1.36035 -1.80957zM423.611 248.652c4.96973 50.5596 -0.121094 98.0596 -11.7715 129.51c-19.0596 51.3496 -68.54 100.109 -125.9 98.3398
c-0.429688 -0.0195312 -0.849609 -0.0693359 -1.2793 -0.0888672c-3.5 -0.160156 -7.03027 -0.44043 -10.5801 -0.980469c0.230469 0.110352 0.450195 0.220703 0.790039 0.34082c-0.339844 -0.120117 -0.55957 -0.120117 -0.899414 -0.120117
c-21.8301 -2.59961 -45.4697 -9.26953 -70.5801 -21.3691c-71.3701 -34.6104 -109.15 -107.79 -124.19 -181.2c-2.71973 -13.1201 -4.63965 -26.3506 -6 -39.251c-4.96973 -50.6699 0.120117 -98.0596 11.7705 -129.5c20.3604 -54.8496 47.2803 -103.409 137.82 -97.4893
c0.290039 0.0302734 0.580078 0.0498047 0.839844 0.109375c21.6104 2.70996 45.0205 9.26953 69.79 21.2598c71.4805 34.6104 109.261 107.9 124.19 181.53c2.71973 13.0098 4.63965 26.0195 6 38.9092z" />
    <glyph glyph-name="p" unicode="p" horiz-adv-x="552" 
d="M496.28 437.09c97.1396 -124.21 1.46973 -366.301 -151.33 -418.711c-108.24 -37.1201 -181.99 -15.7402 -215.83 -0.110352v-146.18c0 -116.67 6.54004 -105.6 96.8203 -105.6v-6.04004h-235.94v6.04004c87.54 0 87.4297 -13.7305 87.4297 105.6v527.52
c0 55.0898 -76.0498 7.78027 -76.0498 7.78027l-2.59961 3.36035l118.85 66.2402h11.4902v-215.94c98.6201 247.61 300.18 261.681 367.16 176.041zM348.15 28.2188c133.87 64.9697 149.729 265.56 118.39 349.949c-42.0098 113.07 -222.34 152.63 -337.41 -141.65v-185.29
c24.9902 -20.6797 107.9 -76.9492 219.021 -23.0088z" />
    <glyph glyph-name="q" unicode="q" horiz-adv-x="525" 
d="M563.779 -169.95l2.59961 -3.3584l-118.85 -66.2402h-11.4902v498.62c-14.1299 -43.4297 -31.1699 -80.7598 -50.2197 -112.37c-105.41 -174.93 -271.11 -177.37 -330.591 -101.311c-97.1396 124.2 -1.47949 366.29 151.33 418.7
c152.82 52.4199 236.98 -11.79 236.98 -11.79l45.4902 24.0596l-1.2998 -638.53c0 -55.0801 76.0498 -7.78027 76.0498 -7.78027zM429.389 264.151c0.219727 0.610352 0.570312 159.509 0.850586 160.089c0 0 -93.0303 94.9805 -226.88 30.0107
c-133.87 -64.96 -149.73 -265.56 -118.381 -349.939c42.8701 -115.37 229.8 -154.46 344.41 159.84z" />
    <glyph glyph-name="r" unicode="r" horiz-adv-x="382" 
d="M376.94 432.18c2.37988 -3.05957 4.64062 -6.11035 6.68066 -9.28027l-36.6504 -49.0898c-31.7803 84.8301 -117.29 134.26 -205.85 27.8301v-290c0 -116.62 6.55957 -105.53 96.8193 -105.53v-6.11035h-235.94v6.11035c87.54 0 87.4297 -13.7998 87.4297 105.53v287.4
c0 55.0801 -76.1201 7.7998 -76.1201 7.7998l-2.59961 3.38965l118.87 66.1699h11.54v-66.1699c91.6104 102.59 185.61 86.4199 235.82 21.9502z" />
    <glyph glyph-name="s" unicode="s" horiz-adv-x="386" 
d="M210.97 270.12c88.2402 -28.1602 161.473 -50.7031 161.482 -135.173c0 -79.79 -66.6504 -140.81 -165.221 -140.81c-86.3496 0 -136.109 24.4102 -173.659 34.7402c-4.69043 0.94043 -6.57031 3.75 -6.57031 11.25c0 14.0801 1.87988 40.3701 1.87988 158.64h7.50977
c0 -63.8203 12.2002 -114.521 37.5498 -145.501c27.21 -36.5996 81.6602 -50.6797 134.22 -50.6797c92 0 128.6 46 128.6 101.38c0 71.3398 -71.3301 92 -148.3 115.45v0.0195312c-84.4805 25.4297 -160.48 49.7598 -160.48 130.51
c0 43.3203 20.3604 75.7803 51.0107 97.7207l0.230469 0.110352c0.230469 0.230469 0.570312 0.460938 0.790039 0.571289c1.80957 1.24023 3.72949 2.49023 5.53906 3.73047l6.79004 4.07031c3.95996 2.26953 8.13965 4.41992 12.3301 6.4502
c0.900391 0.450195 1.91992 0.910156 2.93945 1.36035c37.7803 17.4199 81.8906 23.0703 122.15 17.6406c41.29 -5.65039 78.6104 -23.1807 101.12 -52.0303c2.37988 -3.0498 4.63965 -6.09961 6.66992 -9.26953l-8.13965 -10.9697l-28.5 -38.1201
c-2.71973 81.2002 -72.7295 104.74 -112.88 103.271h-2.94043c-70.3496 -3.28027 -123.29 -36.54 -123.29 -90.71c0 -66.6201 71.2598 -89.2402 149.189 -113.561l-11.1904 -25.2305z" />
    <glyph glyph-name="t" unicode="t" horiz-adv-x="296" 
d="M136.605 222.319l-0.114258 0.000976562v-100.958c0 -72.2744 23.5264 -105.075 67.6377 -105.075c27.7109 0 58.9277 23.8652 83.3584 66.3926l7.12598 -5.88184c-30.7646 -44.5635 -73.5186 -81.21 -118.647 -81.21c-57.2314 0 -91.0498 32.8008 -91.0498 121.136
v344.01h-104.917v8.2002h104.917v40.7861c0 55.082 -76.1201 7.80371 -76.1201 7.80371l-2.60156 3.39355l118.874 66.167h11.5371v-118.149h158.008v-8.2002h-158.008v-238.415z" />
    <glyph glyph-name="u" unicode="u" horiz-adv-x="583" 
d="M580.01 66.4805l2.58789 -3.3877l-118.88 -66.2803h-11.4199v152.17c-1.87988 -3.29004 -3.68945 -6.78027 -5.59961 -9.95996c-105.41 -174.98 -271 -177.351 -330.49 -101.341c-27.9199 35.6904 -39.8301 81.1406 -39.1299 128.98l-0.0800781 -0.0800781v195.67
c0 14.0996 -0.0595703 26.1299 -0.349609 36.7295c0 55.0801 -76.0498 7.78027 -76.0498 7.78027l-2.59961 3.36035l118.85 66.2402h17.3301l-0.950195 -58.2305h0.110352c-0.450195 -11.2002 -0.450195 -24.8799 -0.450195 -41.5098v-169.09l-0.0595703 -0.0498047
c-0.790039 -13.6504 -0.679688 -26.8604 0 -39.5107c0 -0.55957 0 -1.12988 0.120117 -1.68945c1.58008 -27.04 6.09961 -51.2402 13 -69.6807c38.4004 -103.32 192.25 -145.19 306.35 72.8691l-0.110352 192.11c0 14.3799 -0.120117 26.6494 -0.459961 37.4189
l-0.0595703 -0.0195312c0 55.0801 -76.0596 7.78027 -76.0596 7.78027l-2.59961 3.36035l118.85 66.2402h13.9199l-1.20996 -58.2305c-0.679688 -14.3701 -0.679688 -32.7998 -0.679688 -56.5498l0.110352 -287.4c0 -55.0898 76.0098 -7.7002 76.0098 -7.7002z" />
    <glyph glyph-name="v" unicode="v" horiz-adv-x="582" 
d="M361.03 468.83l226.5 0.000976562v-8.4502c-78.2402 -0.610352 -86.6006 -28.0703 -124.011 -115.45l-148.3 -346.38c-0.94043 -1.87012 -2.82031 -2.81055 -5.62988 -2.81055h-10.3301c-2.82031 0 -3.75 0 -5.62988 2.80957l-158.63 363.27
c-43.2803 106.66 -77.1201 98.3506 -141 98.5605v8.4502l261.32 -0.94043v-7.50977c-53.5 0 -121.01 8.4502 -76.21 -76.96l148.3 -333.25l126.73 298.51c44 105.38 -0.580078 111.7 -93.1104 111.7v8.4502z" />
    <glyph glyph-name="w" unicode="w" horiz-adv-x="862" 
d="M606.09 468.83l261.251 0.0283203v-8.4502c-84.3301 0 -112.19 0.980469 -157.881 -137.979l-118.27 -324.79c-0.94043 -1.87988 -3.76074 -1.87988 -5.64062 -1.87988h-9.38965c-0.929688 0 -2.80957 0 -3.75 1.87988l-144.55 367.02l-147.38 -367.02
c-0.929688 -1.87988 -0.929688 -1.87988 -2.80957 -1.87988h-9.38965c-1.87988 0 -2.82031 0 -3.74023 1.87988l-122.03 342.62c-46.1602 125.11 -63.29 120.15 -148.51 120.15v8.4502h278.27v-8.4502c-76.7998 0 -121.38 5.36035 -85.6396 -91.9893l108.89 -305.08
l119.21 291.94c3.75 12.2002 4.69043 20.6504 3.75 31.9102c-1.87012 11.2598 -5.62988 24.3994 -11.2598 35.6689c-15.5 37.3203 -25.4502 37.54 -103.45 37.54l0.240234 8.4502h245.3l-0.169922 -8.4502c-84.2402 0 -112.431 2.95996 -69.6504 -91.0498l122.97 -313.53
l98.5596 273.16c42.3398 131.19 -2.50977 132.78 -94.9795 131.4z" />
    <glyph glyph-name="x" unicode="x" horiz-adv-x="572" 
d="M417.79 98.0498c61.7998 -94.0703 77.4785 -90.1104 156.009 -90.1104v-8.4502h-270.72v8.4502c47.79 0 130.59 -12.9805 61.2002 80.7393l-96.6904 135.16l-82.5996 -107.95c-26.29 -34.7402 -36.6396 -55.4102 -35.6797 -73.2305
c0.639648 -11.8496 1.97949 -36.5596 101.56 -34.7197v-8.4502h-252.87v8.4502c86.1504 0 94.6504 -1.83984 181.351 115.46l83.54 108.89l-77.9004 108.88c-81.8604 118.21 -86.4502 118.21 -178.07 119.21l-0.469727 8.4502h262.48l-0.209961 -8.4502
c-81.1904 0.580078 -126.58 8.4502 -45.2402 -91.9795l76.04 -105.14l63.8301 87.2998c28.1504 38.5 43.8906 65.3604 45.3105 83.1406c1.59961 19.9004 -3.64062 26.6807 -106.511 26.6807v8.4502h258.5v-8.4502c-96.4502 0.19043 -102.03 8.4502 -189.8 -115.45
l-66.6396 -89.1797z" />
    <glyph glyph-name="y" unicode="y" horiz-adv-x="608" 
d="M350.73 468.88h263.201v-8.48047c-83.1299 0 -111.3 -13.2402 -155.97 -118.311l-160.5 -360.47c-48.8604 -109.82 -105.19 -165.13 -196.24 -165.13c-10.9697 0 -20.8096 0.900391 -29.5195 2.60059v68.3096c19.0596 -14.5195 49.4297 -33.3594 84.9492 -33.3594
c45.0098 0 88.2197 31.8896 131.42 129.5l10.2998 23.4199l-149.3 330.49c-59.8398 128.83 -61.4199 121.14 -155.07 122.949v8.48047h265.12v-8.48047c-37.7803 -1.58984 -91.0498 7.23047 -92.29 -24.4297c-0.679688 -16.4004 6.66992 -31.9004 23.6299 -70.3604
l135.17 -296.67l123.85 278.8c42.75 111.86 10.5098 112.66 -98.75 112.66v8.48047z" />
    <glyph glyph-name="z" unicode="z" horiz-adv-x="446" 
d="M418.182 240.73l8.46191 -0.920898l-4.69043 -64.7803l-14.2197 -175.03l-385.67 -0.509766c-5.62988 0 -12.2002 3.75977 -9.39062 8.4502l341.67 450.57h-156.75c-113.58 0 -147.38 -48.8096 -152.07 -155.819l-2.82031 -58.2002h-8.4502l2.82031 58.2002
l7.59961 167.08h363.18c7.50977 0 11.2695 -7.50977 0.939453 -19.7002l-330.41 -439.31c44.1201 0 126.73 -1.87988 171.78 -1.87988c105.12 0 153.94 48.7998 163.33 167.08z" />
    <glyph glyph-name="braceleft" unicode="{" horiz-adv-x="141" 
d="M104.46 665.708c-9.24023 -9.86328 -16.4229 -21.6768 -21.5918 -35.4189c-5.15723 -13.7646 -7.74707 -29.2598 -7.74707 -46.4629c0 -17.8369 1.65137 -35.4365 4.93164 -52.8096c3.29102 -17.3613 6.97852 -34.7227 11.0391 -52.0957
c4.07227 -17.3613 7.74805 -34.7227 11.0391 -52.0957c3.28027 -17.3613 4.93164 -34.8135 4.93164 -52.333c0 -11.8877 -2.11523 -22.4629 -6.3457 -31.6807c-4.21875 -9.24023 -9.625 -17.1348 -16.1963 -23.7061s-13.9229 -11.8193 -22.0547 -15.7324
c-8.14355 -3.9248 -16.1289 -6.50391 -23.9443 -7.74805c7.81543 -1.57227 15.8008 -4.30957 23.9443 -8.21191c8.13184 -3.9248 15.4834 -9.16113 22.0547 -15.7324s11.9775 -14.3984 16.1963 -23.4697c4.23047 -9.08203 6.3457 -19.5674 6.3457 -31.4551
c0 -17.5312 -1.65137 -34.9717 -4.93164 -52.333c-3.29102 -17.3613 -6.97852 -34.7344 -11.0391 -52.0957c-4.07227 -17.373 -7.74805 -34.7344 -11.0391 -52.1074c-3.28027 -17.3613 -4.93164 -34.9609 -4.93164 -52.7979c0 -17.2031 2.58984 -32.6875 7.74707 -46.4639
c5.16895 -13.7646 12.3623 -25.5732 21.5918 -35.4365c9.21777 -9.8623 20.0195 -17.4404 32.3818 -22.7676s25.8896 -7.98535 40.6045 -7.98535h20.6533c3.75488 0 5.63281 -1.56055 5.63281 -4.69336v-3.75488h-26.2861c-16.5928 0 -31.8506 3.13281 -45.7627 9.3877
c-13.9229 6.25488 -25.8105 14.8623 -35.6729 25.8105c-9.85156 10.9482 -17.5312 23.7861 -22.9941 38.4902c-5.48535 14.7041 -8.22266 30.5049 -8.22266 47.4033c0 18.4473 1.65137 36.374 4.93164 53.7354c3.29102 17.3613 6.9668 34.4971 11.0391 51.3955
c4.07227 16.8975 7.74805 33.875 11.0391 50.9316c3.28027 17.0449 4.93164 34.8027 4.93164 53.2725c0 10.6436 -2.04688 20.4951 -6.0957 29.5771c-4.07227 9.08203 -9.70508 16.8975 -16.8984 23.4688c-7.20508 6.57129 -15.7334 11.7402 -25.585 15.4951
c-9.86328 3.75488 -20.5967 5.63281 -32.1562 5.63281v9.3877c11.5703 0 22.293 1.79883 32.1553 5.39551c9.85156 3.59668 18.3799 8.68652 25.585 15.2578c7.19336 6.57129 12.8262 14.3867 16.8984 23.4688c4.04883 9.07129 6.0957 19.0811 6.0957 30.041
c0 18.1426 -1.65137 35.8213 -4.93164 53.0361c-3.29102 17.2031 -6.9668 34.2598 -11.0391 51.1582s-7.74805 34.0342 -11.0391 51.3955c-3.28027 17.373 -4.93164 35.2773 -4.93164 53.7471c0 16.8984 2.74805 32.6875 8.22266 47.4023
c5.46289 14.7041 13.1426 27.5303 22.9941 38.4902c9.86328 10.9482 21.751 19.5439 35.6738 25.8096c13.9229 6.25488 29.1699 9.3877 45.7627 9.3877h26.2861v-3.74414c0 -3.13281 -1.87793 -4.69336 -5.63281 -4.69336h-20.6533
c-14.7148 0 -28.2422 -2.66895 -40.6045 -7.98535c-12.3516 -5.32715 -23.1641 -12.9053 -32.3818 -22.7676z" />
    <glyph glyph-name="verticalbar" unicode="|" horiz-adv-x="90" 
d="M49.3877 -169.101h-9.3877v873.999h9.3877v-873.999z" />
    <glyph glyph-name="braceright" unicode="}" horiz-adv-x="141" 
d="M92.5762 305.682c9.85156 -3.59668 20.5723 -5.38867 32.1543 -5.42285v-9.3877c-11.5938 0 -22.3047 -1.87793 -32.1562 -5.63281s-18.3906 -8.92383 -25.584 -15.4951c-7.20508 -6.57129 -12.8379 -14.3984 -16.8984 -23.4697
c-4.06055 -9.08203 -6.09668 -18.9443 -6.09668 -29.5762c0 -18.4697 1.63965 -36.2275 4.93066 -53.2725c3.28027 -17.0566 6.95605 -34.0342 11.0283 -50.9326c4.07227 -16.8975 7.75977 -34.0215 11.04 -51.3945c3.29102 -17.3613 4.93066 -35.2773 4.93066 -53.7363
c0 -16.8984 -2.74805 -32.6875 -8.21094 -47.4023c-5.47461 -14.7041 -13.1436 -27.5303 -23.0068 -38.4902c-9.85156 -10.9482 -21.75 -19.5439 -35.6621 -25.8096c-13.9346 -6.25488 -29.1816 -9.3877 -45.7744 -9.3877h-26.2744v3.75488
c0 3.13281 1.87793 4.69336 5.62207 4.69336h20.6533c14.3867 0 27.8574 2.66895 40.3672 7.98535c12.5205 5.32715 23.3896 12.917 32.6191 22.7686s16.4346 21.6709 21.5918 35.4355c5.16895 13.7646 7.74805 29.2598 7.74805 46.4629
c0 17.8369 -1.63965 35.4365 -4.93066 52.7979c-3.28027 17.373 -6.97852 34.7344 -11.0273 52.1074c-4.08301 17.3613 -7.75879 34.7227 -11.0391 52.0957c-3.29102 17.3613 -4.93066 34.8018 -4.93066 52.333c0 11.8984 2.11523 22.3721 6.33398 31.4541
c4.23047 9.08203 9.63672 16.8975 16.208 23.4688c6.56055 6.57129 13.9121 11.8076 22.0557 15.7324c8.13184 3.90234 15.959 6.63965 23.4688 8.21191c-7.50977 1.25586 -15.3369 3.83496 -23.4688 7.74805c-8.14355 3.91309 -15.4951 9.16113 -22.0557 15.7324
c-6.57129 6.57129 -11.9775 14.4775 -16.208 23.707c-4.21875 9.21777 -6.33398 19.7822 -6.33398 31.6807c0 17.5195 1.63965 34.9717 4.93066 52.333c3.28027 17.3613 6.96777 34.7344 11.04 52.0957c4.06055 17.3613 7.74805 34.7344 11.0283 52.0957
c3.29102 17.373 4.93066 34.9727 4.93066 52.8096c0 17.2031 -2.5791 32.6875 -7.74805 46.4639c-5.15723 13.7646 -12.3506 25.5732 -21.5908 35.4365c-9.24023 9.8623 -20.1094 17.4404 -32.6191 22.7676s-25.9805 7.98535 -40.3672 7.98535h-20.6533
c-3.74414 0 -5.62207 1.56055 -5.62207 4.69336v3.75488h26.2744c16.5928 0 31.8506 -3.13281 45.7734 -9.3877c13.9121 -6.25488 25.8105 -14.8623 35.6621 -25.8105c9.8623 -10.9482 17.5312 -23.7861 23.0059 -38.4902s8.21191 -30.5049 8.21191 -47.4033
c0 -18.4697 -1.63965 -36.374 -4.93066 -53.7471c-3.28027 -17.3613 -6.96777 -34.4971 -11.04 -51.3955c-4.07227 -16.8975 -7.74805 -33.9541 -11.0283 -51.1572c-3.29102 -17.2148 -4.93066 -34.8936 -4.93066 -53.0361c0 -10.9482 2.03613 -20.9697 6.09668 -30.041
c4.06055 -9.08203 9.69336 -16.8975 16.8984 -23.4688c7.19336 -6.57129 15.7324 -11.6611 25.584 -15.2578z" />
    <glyph glyph-name="asciitilde" unicode="~" horiz-adv-x="421" 
d="M403.62 302.83l5.33105 -1.78125c-48.8301 -126.1 -159.85 -86.1299 -159.85 -86.1299l-98.5703 38.1797c-29.2998 10.6504 -108.34 13.3203 -133.2 -39.0693l-5.33008 1.78027c48.8301 125.19 159.84 86.1406 159.84 86.1406l100.35 -38.1904
c28.4199 -11.5498 110.12 -9.75977 131.43 39.0703z" />
    <glyph glyph-name="nonbreakingspace" unicode="&#xa0;" horiz-adv-x="304" 
 />
    <glyph glyph-name="sterling" unicode="&#xa3;" horiz-adv-x="565" 
d="M504.667 122.82l10.4121 -0.000976562c0.900391 -95.7998 -68.54 -120.229 -106.09 -120.229c-38.5703 0 -76.1201 37.5498 -135.16 84.4902c-43.21 -70.3496 -104.29 -84.4893 -167.17 -84.4893c-9.38965 0 -76.9199 4.75 -97.6104 70.46
c-14.0303 43.21 43.2002 165.14 198.04 100.439c0 0 37.5498 -17.8701 61.9902 -36.6504c8.48047 46.04 0 78.8398 -38.46 138.899c-15.04 23.5195 -28.1602 45.1299 -49.7705 76.1201h-92.9697v9.38965h87.3203c-153.94 274.05 43.1992 394.17 177.459 333.2
c26.4697 -11.5303 42.6396 -29.29 52.4795 -46.0303h-14.5898c-2.15039 9.83984 -14.8203 28.1602 -42.6406 38.5703c-138.89 51.5801 -272.25 -62.8896 -107.9 -325.739h164.23v-9.38965h-157.67l33.8203 -49.7695c42.1797 -68.54 29.0596 -138.89 13.1191 -180.29
c62.8799 -42.1904 105.07 -61.8701 105.07 -61.8701c42.2998 -17.8701 106.09 -1.91992 106.09 62.8896zM105.749 11.0693c63.79 0 123.961 28.1602 152.131 86.4102c-30.9902 24.3203 -63 43.1006 -90.1504 54.4102c-98.6299 41.2803 -162.42 -37.5498 -151.11 -78.8398
c15.9502 -61.9805 76.9199 -61.9805 89.1299 -61.9805z" />
    <glyph glyph-name="softhyphen" unicode="&#xad;" horiz-adv-x="0" 
 />
    <glyph glyph-name="Agrave" unicode="&#xc0;" horiz-adv-x="714" 
d="M466.714 689.94h-6.57129l-212.141 137.038l55.3877 13.1543zM695.04 6.41016l30.9902 -0.112305v-6.09668h-267.834l-0.0117188 5.89258h74.3105c33.9316 0 43.8965 14.0137 7.1377 110.719c-7.91699 20.8115 -17.9834 45.4688 -30.4248 74.876l-17.8711 41.2832
l-3.73242 9.3877l-10.7451 25.3359c-43.8848 96.8184 -192.731 130.071 -303.462 -83.2451l-3.16699 -7.80469c-17.0791 -41.7363 -30.9912 -84.6035 -34.2715 -115.934c0 -0.113281 -0.113281 -0.452148 -0.113281 -0.678711c-0.791992 -6.10742 0 -14.1377 0 -14.1377
c2.71484 -25.9014 18.6064 -40.1416 56.9492 -40.1416c10.293 0 70.5781 0.338867 74.3105 0.338867l0.0566406 -5.89258h-280.162v5.89258h3.8457c71.4482 0.271484 83.8105 8.13184 106.205 46.7012c19.4541 33.4795 41.2832 76.9121 61.9814 128.602l191.487 469.274
c0.905273 1.92285 1.92285 2.82812 6.56055 2.82812h7.46484c5.65527 0 7.57812 -0.905273 8.4834 -2.82812l142.739 -340.447l28.9551 -69.2207l20.6982 -49.3135c70.4648 -167.057 84.4902 -185.278 129.619 -185.278zM197.149 242.812
c73.7451 103.718 169.884 134.143 240.349 118.421l-98.2881 233.11z" />
    <glyph glyph-name="Aacute" unicode="&#xc1;" horiz-adv-x="714" 
d="M495.59 826.979l-212.14 -137.038h-6.56055l163.324 150.192zM695.041 6.20703l30.9902 -0.112305v-6.09668h-267.834l-0.0117188 5.89258h74.3105c33.9316 0 43.8965 14.0137 7.1377 110.719c-7.91699 20.8115 -17.9834 45.4688 -30.4248 74.876l-17.8711 41.2832
l-3.73242 9.3877l-10.7451 25.3359c-43.8848 96.8184 -192.731 130.071 -303.462 -83.2451l-3.16699 -7.80469c-17.0791 -41.7363 -30.9912 -84.6035 -34.2715 -115.934c0 -0.113281 -0.113281 -0.452148 -0.113281 -0.678711c-0.791992 -6.10742 0 -14.1377 0 -14.1377
c2.71484 -25.9014 18.6064 -40.1416 56.9492 -40.1416c10.293 0 70.5781 0.338867 74.3105 0.338867l0.0566406 -5.89258h-280.162v5.89258h3.8457c71.4482 0.271484 83.8105 8.13184 106.205 46.7012c19.4541 33.4795 41.2832 76.9121 61.9814 128.602l191.487 469.274
c0.905273 1.92285 1.92285 2.82812 6.56055 2.82812h7.46484c5.65527 0 7.57812 -0.905273 8.4834 -2.82812l142.739 -340.447l28.9551 -69.2207l20.6982 -49.3135c70.4648 -167.057 84.4902 -185.278 129.619 -185.278zM197.15 242.609
c73.7451 103.718 169.885 134.143 240.35 118.421l-98.2891 233.11z" />
    <glyph glyph-name="Acircumflex" unicode="&#xc2;" horiz-adv-x="714" 
d="M353.643 809.153l-111.703 -119.213h-10.3262l122.029 176.467l122.029 -176.467h-10.3262zM695.04 6.26367l30.9902 -0.112305v-6.09668h-267.834l-0.0117188 5.89258h74.3105c33.9316 0 43.8965 14.0137 7.1377 110.719
c-7.91699 20.8115 -17.9834 45.4688 -30.4248 74.876l-17.8711 41.2832l-3.73242 9.3877l-10.7451 25.3359c-43.8848 96.8184 -192.731 130.071 -303.462 -83.2451l-3.16699 -7.80469c-17.0791 -41.7363 -30.9912 -84.6035 -34.2715 -115.934
c0 -0.113281 -0.113281 -0.452148 -0.113281 -0.678711c-0.791992 -6.10742 0 -14.1377 0 -14.1377c2.71484 -25.9014 18.6064 -40.1416 56.9492 -40.1416c10.293 0 70.5781 0.338867 74.3105 0.338867l0.0566406 -5.89258h-280.162v5.89258h3.8457
c71.4482 0.271484 83.8105 8.13184 106.205 46.7012c19.4541 33.4795 41.2832 76.9121 61.9814 128.602l191.487 469.274c0.905273 1.92285 1.92285 2.82812 6.56055 2.82812h7.46484c5.65527 0 7.57812 -0.905273 8.4834 -2.82812l142.739 -340.447l28.9551 -69.2207
l20.6982 -49.3135c70.4648 -167.057 84.4902 -185.278 129.619 -185.278zM197.149 242.666c73.7451 103.718 169.884 134.143 240.349 118.421l-98.2881 233.11z" />
    <glyph glyph-name="Atilde" unicode="&#xc3;" horiz-adv-x="714" 
d="M296.535 776.296c-30.041 11.2656 -112.64 16.8984 -138.926 -40.3672l-2.81641 0.938477c45.9883 122.029 164.263 79.7959 164.263 79.7959l103.266 -40.3672c29.0908 -12.1924 116.396 -11.2539 137.977 40.3672l3.75488 -0.938477
c-46.9277 -123.907 -165.202 -79.7959 -165.202 -79.7959zM695.041 6.39844l30.9902 -0.112305v-6.09668h-267.834l-0.0117188 5.89258h74.3105c33.9316 0 43.8965 14.0137 7.1377 110.719c-7.91699 20.8115 -17.9834 45.4688 -30.4248 74.876l-17.8711 41.2832
l-3.73242 9.3877l-10.7451 25.3359c-43.8848 96.8184 -192.731 130.071 -303.462 -83.2451l-3.16699 -7.80469c-17.0791 -41.7363 -30.9912 -84.6035 -34.2715 -115.934c0 -0.113281 -0.113281 -0.452148 -0.113281 -0.678711c-0.791992 -6.10742 0 -14.1377 0 -14.1377
c2.71484 -25.9014 18.6064 -40.1416 56.9492 -40.1416c10.293 0 70.5781 0.338867 74.3105 0.338867l0.0566406 -5.89258h-280.162v5.89258h3.8457c71.4482 0.271484 83.8105 8.13184 106.205 46.7012c19.4541 33.4795 41.2832 76.9121 61.9814 128.602l191.487 469.274
c0.905273 1.92285 1.92285 2.82812 6.56055 2.82812h7.46484c5.65527 0 7.57812 -0.905273 8.4834 -2.82812l142.739 -340.447l28.9551 -69.2207l20.6982 -49.3135c70.4648 -167.057 84.4902 -185.278 129.619 -185.278zM197.15 242.801
c73.7451 103.718 169.885 134.143 240.35 118.421l-98.2891 233.11z" />
    <glyph glyph-name="Adieresis" unicode="&#xc4;" horiz-adv-x="714" 
d="M291.276 739.684c-17.8369 0 -30.9795 14.082 -30.9795 30.9805c0 18.7754 13.1426 32.8574 30.9795 32.8574c16.8975 0 31.9062 -14.082 31.9062 -32.8574c0 -16.8984 -15.0088 -30.9805 -31.9062 -30.9805zM414.244 739.684
c-17.8369 0 -30.9785 14.082 -30.9785 30.9805c0 18.7754 13.1426 32.8574 30.9795 32.8574c16.8975 0 31.9062 -14.082 31.9062 -32.8574c0 -16.8984 -15.0088 -30.9805 -31.9072 -30.9805zM695.041 6.41016l30.9902 -0.112305v-6.09668h-267.834l-0.0117188 5.89258
h74.3105c33.9316 0 43.8965 14.0137 7.1377 110.719c-7.91699 20.8115 -17.9834 45.4688 -30.4248 74.876l-17.8711 41.2832l-3.73242 9.3877l-10.7451 25.3359c-43.8848 96.8184 -192.731 130.071 -303.462 -83.2451l-3.16699 -7.80469
c-17.0791 -41.7363 -30.9912 -84.6035 -34.2715 -115.934c0 -0.113281 -0.113281 -0.452148 -0.113281 -0.678711c-0.791992 -6.10742 0 -14.1377 0 -14.1377c2.71484 -25.9014 18.6064 -40.1416 56.9492 -40.1416c10.293 0 70.5781 0.338867 74.3105 0.338867
l0.0566406 -5.89258h-280.162v5.89258h3.8457c71.4482 0.271484 83.8105 8.13184 106.205 46.7012c19.4541 33.4795 41.2832 76.9121 61.9814 128.602l191.487 469.274c0.905273 1.92285 1.92285 2.82812 6.56055 2.82812h7.46484
c5.65527 0 7.57812 -0.905273 8.4834 -2.82812l142.739 -340.447l28.9551 -69.2207l20.6982 -49.3135c70.4648 -167.057 84.4902 -185.278 129.619 -185.278zM197.15 242.812c73.7451 103.718 169.885 134.143 240.35 118.421l-98.2891 233.11z" />
    <glyph glyph-name="Aring" unicode="&#xc5;" horiz-adv-x="714" 
d="M357.511 755.621c-39.4961 0 -70.4199 30.9355 -70.4316 70.4316c0 40.0166 30.9346 71.3584 70.4307 71.3584c38.8408 0 70.4316 -32.0088 70.4316 -71.3584c0 -38.8408 -31.6016 -70.4316 -70.4307 -70.4316zM357.51 886.101
c-33.1514 0 -59.1084 -26.376 -59.1201 -60.0479c0 -33.1514 25.9688 -59.1201 59.1201 -59.1201c32.5967 0 59.1201 26.5234 59.1201 59.1201c0 33.1064 -26.5234 60.0479 -59.1201 60.0479zM695.04 6.20898l30.9902 -0.112305v-6.09668h-267.834l-0.0117188 5.89258
h74.3105c33.9316 0 43.8965 14.0137 7.1377 110.719c-7.91699 20.8115 -17.9834 45.4688 -30.4248 74.876l-17.8711 41.2832l-3.73242 9.3877l-10.7451 25.3359c-43.8848 96.8184 -192.731 130.071 -303.462 -83.2451l-3.16699 -7.80469
c-17.0791 -41.7363 -30.9912 -84.6035 -34.2715 -115.934c0 -0.113281 -0.113281 -0.452148 -0.113281 -0.678711c-0.791992 -6.10742 0 -14.1377 0 -14.1377c2.71484 -25.9014 18.6064 -40.1416 56.9492 -40.1416c10.293 0 70.5781 0.338867 74.3105 0.338867
l0.0566406 -5.89258h-280.162v5.89258h3.8457c71.4482 0.271484 83.8105 8.13184 106.205 46.7012c19.4541 33.4795 41.2832 76.9121 61.9814 128.602l191.487 469.274c0.905273 1.92285 1.92285 2.82812 6.56055 2.82812h7.46484
c5.65527 0 7.57812 -0.905273 8.4834 -2.82812l142.739 -340.447l28.9551 -69.2207l20.6982 -49.3135c70.4648 -167.057 84.4902 -185.278 129.619 -185.278zM197.149 242.611c73.7451 103.718 169.884 134.143 240.349 118.421l-98.2881 233.11z" />
    <glyph glyph-name="AE" unicode="&#xc6;" horiz-adv-x="773" 
d="M740.621 196.201h10.5205v-186.851c0 -5.20312 -4.07227 -9.3877 -9.27539 -9.3877h-754.865v5.88184h3.8457c71.4824 0.338867 83.8105 8.14355 106.205 46.7129c19.4541 33.4795 41.2832 76.9121 61.9814 128.602l184.361 451.856
c-12.8936 11.6494 -37.0977 8.93457 -82.1133 8.93457v5.99414h462.148c5.08984 0 9.27441 -4.18457 9.27441 -9.27441v-186.85h-10.5186s18.4365 181.873 -120.796 188.999l-110.504 1.13086c-80.9834 -0.56543 -81.0967 10.7451 -81.0967 -105.641l-1.35742 -171.694
l-0.113281 -22.0557l32.0088 -0.905273l48.6357 -1.24414c93.4248 1.13086 140.363 16.626 140.363 100.89h5.99414v-194.881h-5.99414c0 87.5439 -42.8672 87.4307 -162.193 87.4307v0.113281l-26.8057 0.113281l-31.4434 0.226562h-0.56543l-1.92285 -244.534
c1.13086 -93.3115 12.5547 -83.8105 96.7051 -83.8105l116.725 1.24414c139.232 7.0127 120.796 188.999 120.796 188.999zM352.784 616.614l-13.5723 -22.5078l-142.038 -351.486c56.8125 79.8975 104.34 94.9629 159.444 98.458l0.0117188 1.59473l0.113281 16.8525
l1.35742 176.784c0 39.8135 -0.791992 64.8096 -5.31641 80.3047zM354.594 111.599l0.225586 0.0117188l1.74219 221.811c-54.9355 -2.31836 -115.899 -19.5557 -183.129 -149.129l-0.0341797 -0.0791016l-3.16699 -7.80469
c-17.0791 -41.7363 -30.9912 -84.6035 -34.2715 -115.934c0 -0.113281 -0.113281 -0.452148 -0.113281 -0.678711c-0.791992 -6.10742 0 -14.1377 0 -14.1377c2.71484 -25.9014 18.6631 -40.1523 57.0059 -40.1523c10.293 0 70.5781 0.338867 74.3105 0.338867v0.113281
c87.5439 0 87.4307 -13.6855 87.4307 105.641z" />
    <glyph glyph-name="Ccedilla" unicode="&#xc7;" horiz-adv-x="640" 
d="M353.373 -70.1621c99.9287 22.3271 143.517 -28.707 137.138 -82.9414c-10.6318 -76.5498 -70.1592 -82.9287 -106.308 -82.9287c-45.7168 -1.06348 -60.6016 19.1367 -63.791 24.4531s-3.18945 13.8223 1.06348 20.2012
c5.31641 8.50586 17.0117 10.6318 25.5176 4.25293c9.56836 -5.31641 11.6943 -17.0117 6.37793 -25.5176c-4.25293 -5.31641 -8.50586 -7.44238 -12.7588 -7.44238c-3.18945 0 11.6953 -13.8213 43.5908 -12.7578c39.3271 0 73.3496 21.2637 73.3496 69.1074
c0 36.1484 -21.2637 98.877 -120.129 73.3604l27.168 79.4004c-199.744 4.32031 -350.593 139.131 -350.593 334.916c0 200.875 161.446 335.108 362.333 335.108c76.0293 0 180.233 -18.7754 230.916 -41.2949l-0.0449219 -201.825l-8.52832 -0.0341797
c-5.63281 62.8975 -9.25195 136.156 -42.1094 173.696c-34.7344 39.4395 -102.326 60.0811 -181.172 60.0811c-174.601 0 -299.446 -125.784 -299.446 -325.721c0 -199.009 120.152 -325.732 295.692 -325.732c81.6738 0 150.193 23.4805 185.867 64.7754
c33.7842 38.4902 36.5557 115.458 43.127 177.417h7.50977l0.0449219 -209.335c-50.5693 -22.4736 -145.951 -42.1309 -233.076 -42.2324z" />
    <glyph glyph-name="Egrave" unicode="&#xc8;" horiz-adv-x="509" 
d="M380.658 689.94h-6.57129l-212.129 137.038l55.376 13.1543zM477.318 196.145l10.543 -0.0253906v-186.85c0 -5.13477 -4.15137 -9.29688 -9.28613 -9.29688h-474.715v5.99414c87.5439 0 87.4307 -13.6855 87.4307 105.641h0.158203l3.37012 424.688
c0 116.725 -6.56055 105.641 -96.8184 105.641v5.99414h462.104c5.12402 0 9.28613 -4.15137 9.28613 -9.28613v-186.85h-10.5527s18.4365 181.919 -120.818 188.954l-110.47 1.13086c-80.9385 -0.56543 -81.0518 10.7568 -81.0518 -105.572l-1.48145 -193.783
l80.6553 -2.10352c93.4248 1.13086 140.363 16.5693 140.363 100.833h5.99414v-194.881h-5.99414c0 87.5439 -42.8672 87.4307 -162.193 87.4307v0.113281l-58.8828 0.407227l-1.86621 -244.557c1.15332 -93.3682 12.5312 -83.7764 96.7041 -83.7764l116.702 1.19922
c139.267 7.03516 120.819 188.954 120.819 188.954z" />
    <glyph glyph-name="Eacute" unicode="&#xc9;" horiz-adv-x="509" 
d="M363.602 826.979l-212.141 -137.038h-6.57129l163.324 150.192zM477.317 196.145l10.5439 -0.0253906v-186.85c0 -5.13477 -4.15137 -9.29688 -9.28613 -9.29688h-474.715v5.99414c87.5439 0 87.4307 -13.6855 87.4307 105.641h0.158203l3.37012 424.688
c0 116.725 -6.56055 105.641 -96.8184 105.641v5.99414h462.104c5.12402 0 9.28613 -4.15137 9.28613 -9.28613v-186.85h-10.5527s18.4473 181.919 -120.819 188.954l-110.47 1.13086c-80.9385 -0.56543 -81.0518 10.7568 -81.0518 -105.572l-1.48145 -193.783
l80.6553 -2.10352c93.4248 1.13086 140.363 16.5693 140.363 100.833h5.99414v-194.881h-5.99414c0 87.5439 -42.8672 87.4307 -162.193 87.4307v0.113281l-58.8828 0.407227l-1.86621 -244.557c1.15332 -93.3682 12.5312 -83.7764 96.7041 -83.7764l116.702 1.19922
c139.267 7.03516 120.819 188.954 120.819 188.954z" />
    <glyph glyph-name="Ecircumflex" unicode="&#xca;" horiz-adv-x="509" 
d="M259.986 809.153l-111.703 -119.213h-10.3262l122.029 176.467l122.029 -176.467h-10.3262zM477.329 196.145l10.5439 -0.0253906v-186.85c0 -5.13477 -4.16211 -9.29688 -9.29688 -9.29688h-474.715v5.99414c87.5439 0 87.4307 -13.6855 87.4307 105.641h0.158203
l3.37012 424.688c0 116.725 -6.56055 105.641 -96.8184 105.641v5.99414h462.104c5.13477 0 9.29688 -4.15137 9.29688 -9.28613v-186.85h-10.5527s18.4473 181.919 -120.819 188.954l-110.47 1.13086c-80.9385 -0.56543 -81.0518 10.7568 -81.0518 -105.572
l-1.48145 -193.783l80.6553 -2.10352c93.4248 1.13086 140.363 16.5693 140.363 100.833h5.99414v-194.881h-5.99414c0 87.5439 -42.8672 87.4307 -162.193 87.4307v0.113281l-58.8828 0.407227l-1.86621 -244.557c1.15332 -93.3682 12.5312 -83.7764 96.7041 -83.7764
l116.702 1.19922c139.267 7.03516 120.819 188.954 120.819 188.954z" />
    <glyph glyph-name="Edieresis" unicode="&#xcb;" horiz-adv-x="509" 
d="M196.579 739.684c-17.8477 0 -30.9805 14.082 -30.9688 30.9805c0 18.7754 13.1318 32.8574 30.9688 32.8574c16.8975 0 31.918 -14.082 31.918 -32.8574c0 -16.8984 -15.0205 -30.9805 -31.918 -30.9805zM319.546 739.684c-17.8369 0 -30.9912 14.082 -30.9795 30.9805
c0 18.7754 13.1426 32.8574 30.9795 32.8574c16.8975 0 31.9062 -14.082 31.9062 -32.8574c0 -16.8984 -15.0088 -30.9805 -31.9062 -30.9805zM477.328 196.145l10.5439 -0.0253906v-186.85c0 -5.13477 -4.16211 -9.29688 -9.29688 -9.29688h-474.715v5.99414
c87.5439 0 87.4307 -13.6855 87.4307 105.641h0.158203l3.37012 424.688c0 116.725 -6.56055 105.641 -96.8184 105.641v5.99414h462.104c5.13477 0 9.29688 -4.15137 9.29688 -9.28613v-186.85h-10.5527s18.4473 181.919 -120.819 188.954l-110.47 1.13086
c-80.9385 -0.56543 -81.0518 10.7568 -81.0518 -105.572l-1.48145 -193.783l80.6553 -2.10352c93.4248 1.13086 140.363 16.5693 140.363 100.833h5.99414v-194.881h-5.99414c0 87.5439 -42.8672 87.4307 -162.193 87.4307v0.113281l-58.8828 0.407227l-1.86621 -244.557
c1.15332 -93.3682 12.5312 -83.7764 96.7041 -83.7764l116.702 1.19922c139.267 7.03516 120.819 188.954 120.819 188.954z" />
    <glyph glyph-name="Igrave" unicode="&#xcc;" horiz-adv-x="238" 
d="M227.796 689.94h-6.57129l-212.141 137.038l55.376 13.1543zM143.103 89.7695c1.15332 -93.3682 12.5322 -83.7773 96.6943 -83.7773v-5.99414h-235.938v5.99414c87.5439 0 87.4307 -13.6855 87.4307 105.641h0.158203l3.37012 424.688
c0 116.725 -6.56055 105.641 -96.8184 105.641v5.99414h235.938v-5.99414c-87.5439 0 -87.4307 13.6855 -87.4307 -105.641z" />
    <glyph glyph-name="Iacute" unicode="&#xcd;" horiz-adv-x="238" 
d="M224.15 826.98l-212.14 -137.04h-6.57031l163.32 150.19zM143.101 89.7705c1.15039 -93.3701 12.5303 -83.7822 96.6904 -83.7822v-5.99023h-235.94v5.99023c87.5498 0 87.4297 -13.6797 87.4297 105.641h0.160156l3.37012 424.69
c0 116.73 -6.55957 105.641 -96.8096 105.641v6h235.93v-6c-87.54 0 -87.4297 13.6904 -87.4297 -105.64z" />
    <glyph glyph-name="Icircumflex" unicode="&#xce;" horiz-adv-x="239" 
d="M119.029 809.153l-111.703 -119.213h-10.3262l122.029 176.467l122.029 -176.467h-10.3262zM143.233 89.7695c1.15332 -93.3682 12.5215 -83.7773 96.6943 -83.7773v-5.99414h-235.938v5.99414c87.5439 0 87.4307 -13.6855 87.4307 105.641h0.158203l3.37012 424.688
c0 116.725 -6.56055 105.641 -96.8184 105.641v5.99414h235.938v-5.99414c-87.5439 0 -87.4307 13.6855 -87.4307 -105.641z" />
    <glyph glyph-name="Idieresis" unicode="&#xcf;" horiz-adv-x="238" 
d="M56.9502 739.684c-17.8369 0 -30.9805 14.082 -30.9688 30.9805c0 18.7754 13.1318 32.8574 30.9688 32.8574c16.8975 0 31.918 -14.082 31.918 -32.8574c0 -16.8984 -15.0205 -30.9805 -31.918 -30.9805zM179.917 739.684c-17.8369 0 -30.9688 14.082 -30.9688 30.9805
c0 18.7754 13.1318 32.8574 30.9688 32.8574c16.8975 0 31.918 -14.082 31.918 -32.8574c0 -16.8984 -15.0205 -30.9805 -31.918 -30.9805zM143.102 89.7686c1.15332 -93.3682 12.5215 -83.7773 96.6943 -83.7773v-5.99414h-235.938v5.99414
c87.5439 0 87.4307 -13.6855 87.4307 105.641h0.158203l3.37012 424.688c0 116.725 -6.56055 105.641 -96.8184 105.641v5.99414h235.938v-5.99414c-87.5439 0 -87.4307 13.6855 -87.4307 -105.641z" />
    <glyph glyph-name="Ntilde" unicode="&#xd1;" horiz-adv-x="667" 
d="M254.252 776.296c-30.0293 11.2656 -112.641 16.8984 -138.915 -40.3672l-2.81641 0.938477c45.9883 122.029 164.263 79.7959 164.263 79.7959l103.254 -40.3672c29.1016 -12.1924 116.396 -11.2539 137.988 40.3672l3.75488 -0.938477
c-46.9277 -123.907 -165.202 -79.7959 -165.202 -79.7959zM475.419 647.978l194.881 0.000976562v-5.99414c-87.5439 0 -87.4307 -42.8672 -87.4307 -162.193h-0.113281l-3.28027 -457.059l-0.113281 -22.7344h-12.5547c-3.39355 2.375 -7.0127 6.33398 -11.3105 11.9893
c-1.4707 1.69629 -2.82812 3.61914 -4.41113 5.76855l-445.183 569.146c0 -1.35742 -0.113281 -2.71484 -0.113281 -4.18555c-0.338867 -12.668 -0.338867 -27.9375 -0.338867 -46.374l-3.39355 -389.987c1.13086 -93.4248 12.4414 -140.363 96.7051 -140.363v-5.99414
h-194.881v5.99414c87.5439 0 87.4307 42.8672 87.4307 162.193h0.113281l3.39355 368.158c0 11.3105 -0.113281 21.4902 -0.339844 30.5391c0 3.16699 -0.113281 6.2207 -0.226562 9.16113c-0.226562 6.2207 -0.56543 11.876 -0.904297 16.9658
c-3.8457 46.0342 -17.3057 49.54 -61.9824 49.2012h-1.13086c-3.28027 0 -6.67383 0 -10.293 -0.113281c-6.67285 0 -14.0244 -0.113281 -21.9414 -0.113281v5.99414h130.071c0.678711 -1.35742 1.58398 -2.82812 2.60156 -4.41113
c7.46484 -12.2158 20.585 -29.1816 33.7051 -44.79l404.238 -512.819c0.113281 7.80469 0.113281 16.2871 0.113281 25.6748l3.39355 389.987c-1.13086 93.4248 -12.4414 140.363 -96.7051 140.363v5.99414z" />
    <glyph glyph-name="Ograve" unicode="&#xd2;" 
d="M461.286 689.94h-6.57227l-212.151 137.038l55.3877 13.1543zM347.241 660.839c184.916 0 330.414 -141.744 330.414 -335.109c0 -192.438 -159.569 -334.182 -334.17 -334.182c-182.111 0 -329.487 141.744 -329.487 334.182c0 196.182 153.948 335.109 333.243 335.109
zM339.73 0.936523c158.63 0 276.905 132.355 276.905 324.793c0 193.365 -101.376 325.721 -265.639 325.721c-160.52 0 -275.039 -132.355 -275.039 -325.721c0 -192.438 105.143 -324.793 263.772 -324.793z" />
    <glyph glyph-name="Oacute" unicode="&#xd3;" 
d="M464.103 826.979l-212.151 -137.038h-6.57129l163.347 150.192zM347.242 660.839c184.916 0 330.403 -141.744 330.415 -335.109c0 -192.438 -159.569 -334.182 -334.17 -334.182c-182.111 0 -329.487 141.744 -329.487 334.182
c0 196.182 153.947 335.109 333.242 335.109zM339.721 0.936523c158.642 0 276.917 132.355 276.905 324.793c0 193.365 -101.376 325.721 -265.639 325.721c-160.52 0 -275.039 -132.355 -275.039 -325.721c0 -192.438 105.143 -324.793 263.772 -324.793z" />
    <glyph glyph-name="Ocircumflex" unicode="&#xd4;" 
d="M338.442 809.153l-111.714 -119.213h-10.3154l122.029 176.467l122.029 -176.467h-10.3262zM347.242 660.839c184.916 0 330.403 -141.744 330.415 -335.109c0 -192.438 -159.569 -334.182 -334.17 -334.182c-182.111 0 -329.487 141.744 -329.487 334.182
c0 196.182 153.947 335.109 333.242 335.109zM339.732 0.936523c158.63 0 276.905 132.355 276.905 324.793c0 193.365 -101.376 325.721 -265.639 325.721c-160.52 0 -275.039 -132.355 -275.039 -325.721c0 -192.438 105.143 -324.793 263.772 -324.793z" />
    <glyph glyph-name="Otilde" unicode="&#xd5;" 
d="M282.942 776.296c-30.041 11.2656 -112.65 16.8984 -138.925 -40.3672l-2.81641 0.938477c45.9883 122.029 164.263 79.7959 164.263 79.7959l103.254 -40.3672c29.1016 -12.1924 116.407 -11.2539 137.987 40.3672l3.75488 -0.938477
c-46.9277 -123.907 -165.202 -79.7959 -165.202 -79.7959zM347.246 660.838c184.928 0 330.415 -141.744 330.415 -335.109c0 -192.438 -159.569 -334.182 -334.17 -334.182c-182.111 0 -329.487 141.744 -329.487 334.182c0 196.182 153.947 335.109 333.242 335.109z
M339.736 0.935547c158.63 0 276.905 132.355 276.905 324.793c0 193.365 -101.376 325.721 -265.639 325.721c-160.52 0 -275.039 -132.355 -275.039 -325.721c0 -192.438 105.143 -324.793 263.772 -324.793z" />
    <glyph glyph-name="Odieresis" unicode="&#xd6;" 
d="M285.759 739.684c-17.8369 0 -30.9795 14.082 -30.9795 30.9805c0 18.7754 13.1426 32.8574 30.9795 32.8574c16.8867 0 31.9072 -14.082 31.9072 -32.8574c0 -16.8984 -15.0205 -30.9805 -31.9072 -30.9805zM408.727 739.684
c-17.8369 0 -30.9795 14.082 -30.9795 30.9805c0 18.7754 13.1426 32.8574 30.9795 32.8574c16.8867 0 31.9072 -14.082 31.9072 -32.8574c0 -16.8984 -15.0205 -30.9805 -31.9072 -30.9805zM347.242 660.838c184.916 0 330.415 -141.744 330.415 -335.109
c0 -192.438 -159.569 -334.182 -334.17 -334.182c-182.111 0 -329.487 141.744 -329.487 334.182c0 196.182 153.947 335.109 333.242 335.109zM339.732 0.935547c158.63 0 276.905 132.355 276.905 324.793c0 193.365 -101.376 325.721 -265.639 325.721
c-160.52 0 -275.039 -132.355 -275.039 -325.721c0 -192.438 105.143 -324.793 263.772 -324.793z" />
    <glyph glyph-name="Oslash" unicode="&#xd8;" 
d="M528.776 608.493c90.168 -58.0908 148.868 -159.989 148.88 -282.776c0 -192.438 -159.569 -334.182 -334.17 -334.182c-56.5078 0 -109.667 13.6748 -156.119 38.2529l-38.6592 -65.5215l-9.73828 5.74609l38.5234 65.3066
c-97.8018 56.2021 -163.493 161.979 -163.493 290.41c0 196.182 153.948 335.109 333.243 335.109c63.3838 0 122.119 -16.6602 171.965 -46.3281l51.7344 87.6904l9.73828 -5.74609zM75.9453 325.728c0 -120.797 41.4424 -217.898 111.534 -273.467l321.773 545.395
c-42.2109 34.5088 -95.6533 53.793 -158.269 53.793c-160.52 0 -275.039 -132.355 -275.039 -325.721zM339.72 0.933594c158.63 0 276.903 132.355 276.915 324.793c0 114.485 -35.5488 207.571 -98.6387 264.475l-321.435 -544.806
c39.915 -28.6387 88.3359 -44.4619 143.158 -44.4619z" />
    <glyph glyph-name="Ugrave" unicode="&#xd9;" horiz-adv-x="663" 
d="M440.307 689.94h-6.57129l-212.141 137.038l55.3877 13.1543zM388.957 651.417h284.776v-8.44922h-51.8135c-45.0615 0 -61.0205 -3.75488 -61.0205 -178.355v-206.508c0 -153.947 -78.8574 -266.589 -233.732 -266.589c-144.56 0 -229.038 92 -229.038 260.018v208.386
c0 179.295 -4.69434 183.05 -49.7559 183.05h-58.374v8.44922h274.473v-8.44922h-62.1396c-45.9883 0 -51.6211 -3.75488 -51.6211 -183.05v-183.05c0 -166.141 70.4082 -260.007 208.386 -260.007c119.213 0 188.683 96.6826 188.683 241.242v206.508
c4.52441 186.997 -20.958 178.355 -105.131 178.355h-53.6914v8.44922z" />
    <glyph glyph-name="Uacute" unicode="&#xda;" horiz-adv-x="663" 
d="M458.946 826.979l-212.141 -137.038h-6.57129l163.324 150.192zM388.956 652.989h284.777v-8.4375h-51.8135c-45.0615 0 -61.0205 -3.75488 -61.0205 -178.355v-206.52c0 -153.947 -78.8574 -266.589 -233.732 -266.589c-144.56 0 -229.038 92 -229.038 260.018v208.386
c0 179.295 -4.69434 183.05 -49.7559 183.05h-58.374v8.44922h274.473v-8.4375h-62.1396c-45.9883 0 -51.6211 -3.75488 -51.6211 -183.05v-183.062c0 -166.141 70.4082 -260.007 208.386 -260.007c119.213 0 188.683 96.6826 188.683 241.242v206.508
c4.52441 186.997 -20.9473 178.355 -105.132 178.355h-53.6914v8.44922z" />
    <glyph glyph-name="Ucircumflex" unicode="&#xdb;" horiz-adv-x="663" 
d="M344.099 809.153l-111.703 -119.213h-10.3262l122.029 176.467l122.029 -176.467h-10.3262zM388.956 652.989h284.777v-8.4375h-51.8135c-45.0615 0 -61.0205 -3.75488 -61.0205 -178.355v-206.52c0 -153.947 -78.8574 -266.589 -233.732 -266.589
c-144.56 0 -229.038 92 -229.038 260.018v208.386c0 179.295 -4.69434 183.05 -49.7559 183.05h-58.374v8.44922h274.473v-8.4375h-62.1396c-45.9883 0 -51.6211 -3.75488 -51.6211 -183.05v-183.062c0 -166.141 70.4082 -260.007 208.386 -260.007
c119.213 0 188.683 96.6826 188.683 241.242v206.508c4.52441 186.997 -20.9473 178.355 -105.132 178.355h-53.6914v8.44922z" />
    <glyph glyph-name="Udieresis" unicode="&#xdc;" horiz-adv-x="663" 
d="M284.164 739.684c-17.8477 0 -30.9795 14.082 -30.9678 30.9805c0 18.7754 13.1318 32.8574 30.9688 32.8574c16.8975 0 31.918 -14.082 31.918 -32.8574c0 -16.8984 -15.0205 -30.9805 -31.9189 -30.9805zM407.132 739.684c-17.8369 0 -30.9912 14.082 -30.9795 30.9805
c0 18.7754 13.1426 32.8574 30.9795 32.8574c16.8975 0 31.9062 -14.082 31.9062 -32.8574c0 -16.8984 -15.0088 -30.9805 -31.9062 -30.9805zM388.956 651.416h284.777v-8.44922h-51.8135c-45.0615 0 -61.0205 -3.75488 -61.0205 -178.355v-206.508
c0 -153.947 -78.8574 -266.589 -233.732 -266.589c-144.56 0 -229.038 92 -229.038 260.018v208.386c0 179.295 -4.69434 183.05 -49.7559 183.05h-58.374v8.44922h274.473v-8.44922h-62.1396c-45.9883 0 -51.6211 -3.75488 -51.6211 -183.05v-183.05
c0 -166.141 70.4082 -260.007 208.386 -260.007c119.213 0 188.683 96.6826 188.683 241.242v206.508c4.52441 186.997 -20.9473 178.355 -105.132 178.355h-53.6914v8.44922z" />
    <glyph glyph-name="Yacute" unicode="&#xdd;" horiz-adv-x="640" 
d="M435.61 826.979l-212.141 -137.038h-6.57129l163.336 150.192zM379.793 651.349l273.118 0.000976562v-8.09863l-48.9971 -0.350586c-53.499 0 -102.315 -70.4082 -135.161 -126.724l-121.091 -212.141v-125.784c0 -165.202 4.69434 -168.957 50.6826 -168.957h62.1396
v-8.44922c-26.2861 0 -123.613 0.124023 -137.695 0.124023c-13.1426 0 -113.32 -0.124023 -139.595 -0.124023v8.44922h62.1289c46 0 50.6943 3.75488 50.6943 168.957v121.091l-118.274 204.642c-63.8252 110.764 -84.4893 138.916 -137.05 138.916l-53.6914 -0.0449219
v8.49414l298.066 0.192383l-0.124023 -8.6416h-63.0791c-61.959 0 -54.4492 -26.2744 13.1426 -143.61l106.07 -183.988l117.336 203.691c27.2129 46 50.6934 124.846 -25.3477 124.846c-14.0703 0 -48.8955 -0.0908203 -53.5898 -0.0908203z" />
    <glyph glyph-name="germandbls" unicode="&#xdf;" horiz-adv-x="625" 
d="M361.914 444.438c82.9062 0 245.552 -40.4912 245.552 -230.734c0 -137.197 -72.2744 -223.271 -221.121 -223.271c-34.2705 0 -60.2852 13.7988 -76.1201 30.3125h15.2695c6.44727 -7.80469 29.0684 -20.6982 60.8506 -20.6982
c80.7568 0 145.566 51.0107 141.382 216.823c-4.29785 206.305 -137.196 221.121 -222.252 221.121v8.48242c56.4395 0 147.828 13.9121 147.828 163.776c0 180.742 -132.898 174.295 -154.162 174.295c-113.784 0 -112.653 -166.83 -112.653 -166.83v-617.669h-191.487
v8.48242c39.8135 4.75 133.691 -22.2822 133.013 111.635v430.479c0 162.759 49.9922 243.516 171.128 243.516c122.267 0 220.103 -49.9922 220.103 -186.058c0 -128.601 -136.065 -163.663 -157.329 -163.663z" />
    <glyph glyph-name="agrave" unicode="&#xe0;" horiz-adv-x="568" 
d="M400.791 511.52l-6.57031 0.000976562l-212.14 137.05l55.3701 13.1396zM477.03 111.501c0 -116.61 6.55273 -105.527 96.8125 -105.527v-6.09961h-235.94v6.09961c87.5498 0 87.4297 -13.7998 87.4297 105.53v116.27
c-11.7598 -30.7598 -24.9902 -58.1299 -39.4707 -82.1104c-105.41 -174.86 -271.11 -177.351 -330.61 -101.23c-51.46 65.71 -48.8604 164.45 -12.3203 250.641c3.5 8.25977 7.23047 16.29 11.4209 24.3203c1.12988 2.37012 2.37012 4.63965 3.62012 6.89941
c3.0498 5.65039 6.21973 11.3105 9.60938 16.7402c2.83008 4.75 5.87988 9.26953 8.93945 13.7998c2.03027 3.0498 4.18066 6.09961 6.33105 9.04004c7.24023 9.95996 14.9307 19.46 23.1904 28.3896c2.49023 2.71973 4.9707 5.42969 7.58105 8.0293
c2.70996 2.83008 5.42969 5.42969 8.13965 8.04004c2.83008 2.70996 5.66016 5.2002 8.60059 7.69043c2.82031 2.59961 5.76074 4.96973 8.71094 7.34961c5.99023 4.63965 11.9805 9.0498 18.2002 13.2295c6.23047 4.19043 12.5605 7.9209 19.1201 11.3105
c4.86035 2.59961 9.84082 4.97949 14.8213 7.23926h0.110352c4.98047 2.25977 10.0703 4.2998 15.1602 6c16.6201 5.75977 32.5703 10.0596 47.5 13.1191c3.73047 0.790039 7.4707 1.58008 11.0811 2.13965c2.71973 0.570312 5.42969 1.02051 8.14941 1.48047
c0.900391 0.110352 1.81055 0.220703 2.60059 0.331055c2.37012 0.459961 4.75 0.679688 7.00977 0.910156c2.37988 0.339844 4.63965 0.55957 6.89941 0.790039c2.25977 0.339844 4.5293 0.570312 6.66895 0.680664c2.26953 0.110352 4.41992 0.34082 6.55957 0.451172
c2.15039 0.230469 4.30078 0.34082 6.45117 0.34082c6.21973 0.339844 12.0996 0.339844 17.8691 0.229492h1.7002c15.3799 0.339844 29.9697 -1.36035 43.54 -4.64062c0.339844 -0.110352 0.570312 -0.110352 0.910156 -0.230469
c0.339844 -0.110352 0.55957 -0.110352 0.899414 -0.220703c3.50977 -0.910156 6.89941 -1.91992 10.2998 -3.16992c3.28027 -1.12988 6.56055 -2.37012 9.7207 -3.73047c2.49023 -1.12988 4.87012 -2.25977 7.24023 -3.38965l0.120117 -0.120117
c1.34961 -0.55957 2.70996 -1.23926 3.9502 -2.0293c0.120117 0 0.120117 -0.120117 0.230469 -0.120117c1.7002 -0.900391 3.28027 -1.81055 4.86035 -2.82031c0.799805 -0.459961 1.58984 -1.01953 2.37988 -1.46973c2.25977 -1.36035 4.41016 -2.83008 6.4502 -4.41992
l0.110352 -0.110352c1.46973 -1.12988 2.93945 -2.25977 4.40918 -3.50977c0.110352 0 0.110352 0 0.230469 -0.219727h0.110352c0.110352 -0.110352 0.230469 -0.230469 0.34082 -0.230469c1.46973 -1.24023 2.93945 -2.49023 4.2998 -3.73047
c0.110352 -0.110352 0.110352 -0.110352 0.220703 -0.230469c1.80957 -1.58008 3.50977 -3.28027 5.20996 -5.08984c0.55957 -0.55957 1.12988 -1.12988 1.58008 -1.68945c1.91992 -2.04004 3.72949 -4.19043 5.42969 -6.34082
c0.450195 -0.55957 0.900391 -1.23926 1.36035 -1.80957v-0.110352c6.9502 -9.12988 12.6006 -19.04 17.5508 -29.2803c6.66992 40.3799 10.6299 71.3701 10.6299 71.3701h5.86035v-181.21zM85.0039 103.244c42.2998 -114.01 225.525 -153.478 340.325 149.192
l-0.110352 44.5596c-0.900391 31.2197 -5.65039 59.2695 -13.46 80.1992c-5.99023 16.0596 -14.8105 31.8896 -26.0107 45.9199c-1.7002 2.03027 -3.40039 4.07031 -5.09082 5.99023c-24.3203 27.8203 -57.9102 47.5 -94.7803 46.3701
c-0.459961 0 -0.799805 -0.110352 -1.25 -0.110352c-3.5 -0.110352 -7.00977 -0.450195 -10.6299 -0.900391c0.110352 0.110352 0.34082 0.110352 0.571289 0.220703h-0.679688c-1.46973 -0.219727 -3.05957 -0.339844 -4.5293 -0.679688
c-1.80957 -0.219727 -3.61914 -0.450195 -5.42871 -0.790039c-3.73047 -0.679688 -7.57031 -1.46973 -11.5303 -2.37012c-5.76953 -1.25 -11.7695 -2.94043 -17.8691 -4.98047c-1.80957 -0.570312 -3.61914 -1.12988 -5.42871 -1.80957
c-2.37988 -0.790039 -4.75 -1.7002 -7.24023 -2.70996c-2.71973 -1.01953 -5.31934 -2.03906 -8.0293 -3.2793c-3.50977 -1.46973 -7.00977 -3.05957 -10.5195 -4.75c-4.53027 -2.15039 -8.94043 -4.53027 -13.2305 -7.24023
c-2.26953 -1.25 -4.5293 -2.61035 -6.67969 -4.08008c-1.91992 -1.12988 -3.83984 -2.37012 -5.64941 -3.73047c-5.42969 -3.62012 -10.5195 -7.69043 -15.5 -11.9902c-2.37012 -2.03027 -4.75 -4.18066 -7.00977 -6.33105
c-2.37988 -2.25977 -4.63965 -4.5293 -6.89941 -6.78906c-4.51953 -4.51953 -8.81934 -9.37988 -12.6689 -14.3604c-1.58008 -1.80957 -3.0498 -3.72949 -4.41016 -5.65918c-0.900391 -1.00977 -1.7002 -2.14941 -2.49023 -3.2793
c-1.58008 -2.03027 -3.16016 -4.29004 -4.52051 -6.55957c-3.73047 -5.2002 -7.13086 -10.6299 -10.1807 -16.2803c-1.58008 -2.83008 -3.16992 -5.5498 -4.63965 -8.49023c-1.58008 -2.82031 -3.0498 -5.65039 -4.41016 -8.59082
c-1.46973 -2.94043 -2.83008 -5.88086 -4.07031 -8.83105c-2.71973 -5.87988 -5.08984 -11.8701 -7.24023 -17.8701c-1.01953 -2.70996 -1.91992 -5.42969 -2.93945 -8.13965c-0.230469 -0.790039 -0.570312 -1.58008 -0.790039 -2.37012
c-0.910156 -2.61035 -1.7002 -5.20996 -2.49023 -7.80957c-1.01953 -3.28027 -1.91992 -6.56055 -2.83008 -9.84082c-19.4502 -71.71 -16.0605 -147.6 0.339844 -191.83z" />
    <glyph glyph-name="aacute" unicode="&#xe1;" horiz-adv-x="568" 
d="M395.431 648.57l-212.15 -137.051h-6.57031l163.32 150.19zM477.03 111.64c0 -116.62 6.55273 -105.524 96.8125 -105.524v-6.11035h-235.94v6.11035c87.5498 0 87.4297 -13.7998 87.4297 105.53v116.27c-11.7598 -30.7695 -24.9902 -58.1396 -39.4707 -82.1201
c-105.41 -174.86 -271.11 -177.341 -330.61 -101.221c-51.46 65.71 -48.8604 164.45 -12.3203 250.641c3.5 8.25 7.23047 16.2803 11.4209 24.3105c1.12988 2.37988 2.37012 4.63965 3.62012 6.89941c3.0498 5.66016 6.21973 11.3105 9.60938 16.7402
c2.83008 4.75 5.87988 9.28027 8.93945 13.7998c2.03027 3.05957 4.18066 6.10938 6.33105 9.0498c7.24023 9.9502 14.9307 19.4502 23.1904 28.3906c2.49023 2.70996 4.9707 5.42969 7.58105 8.0293c2.70996 2.83008 5.42969 5.42969 8.13965 8.0293
c2.83008 2.71973 5.66016 5.2002 8.60059 7.69043c2.82031 2.59961 5.76074 4.97949 8.71094 7.34961c5.99023 4.63965 11.9805 9.0498 18.2109 13.2402c6.21973 4.17969 12.5498 7.91016 19.1094 11.3105c4.86035 2.59961 9.84082 4.96973 14.8213 7.23926h0.110352
c4.98047 2.25977 10.0703 4.29004 15.1602 5.99023c16.6201 5.76953 32.5703 10.0693 47.5 13.1191c3.73047 0.790039 7.4707 1.58008 11.0811 2.15039c2.71973 0.570312 5.42969 1.02051 8.14941 1.4707c0.900391 0.110352 1.81055 0.230469 2.60059 0.34082
c2.37012 0.450195 4.75 0.680664 7.00977 0.911133c2.37988 0.330078 4.63965 0.560547 6.89941 0.791016c2.25977 0.339844 4.5293 0.55957 6.66895 0.679688c2.26953 0.110352 4.41992 0.330078 6.55957 0.450195c2.15039 0.219727 4.30078 0.339844 6.45117 0.339844
c6.21973 0.339844 12.0996 0.339844 17.8691 0.219727h1.7002c15.3799 0.339844 29.9697 -1.35059 43.54 -4.63086c0.339844 -0.120117 0.570312 -0.120117 0.910156 -0.230469s0.55957 -0.110352 0.899414 -0.230469c3.50977 -0.900391 6.89941 -1.91992 10.2998 -3.16016
c3.28027 -1.12988 6.56055 -2.37988 9.7207 -3.74023c2.49023 -1.12988 4.87012 -2.25977 7.24023 -3.38965l0.120117 -0.110352c1.34961 -0.570312 2.70996 -1.25 3.9502 -2.04004c0.120117 0 0.120117 -0.110352 0.230469 -0.110352
c1.7002 -0.910156 3.28027 -1.81055 4.86035 -2.83008c0.799805 -0.450195 1.58984 -1.02051 2.37988 -1.4707c2.25977 -1.36035 4.41016 -2.83008 6.4502 -4.41016l0.110352 -0.110352c1.46973 -1.12988 2.93945 -2.26953 4.40918 -3.50977
c0.110352 0 0.110352 0 0.230469 -0.230469h0.110352c0.110352 -0.110352 0.230469 -0.220703 0.34082 -0.220703c1.46973 -1.25 2.93945 -2.49023 4.2998 -3.73047c0.110352 -0.120117 0.110352 -0.120117 0.220703 -0.230469
c1.80957 -1.58008 3.50977 -3.28027 5.20996 -5.08984c0.55957 -0.570312 1.12988 -1.12988 1.58008 -1.7002c1.91992 -2.03027 3.72949 -4.18066 5.42969 -6.33105c0.450195 -0.570312 0.900391 -1.25 1.36035 -1.80957v-0.110352
c6.9502 -9.12988 12.6006 -19.04 17.5508 -29.29c6.66992 40.3799 10.6299 71.3701 10.6299 71.3701h5.86035v-181.2zM85.0039 103.386c42.2998 -114.01 225.525 -153.475 340.325 149.195l-0.110352 44.5596c-0.900391 31.2197 -5.65039 59.2695 -13.46 80.1895
c-5.99023 16.0596 -14.8105 31.8994 -26.0107 45.9189c-1.7002 2.04004 -3.40039 4.07031 -5.09082 6c-24.3203 27.8203 -57.9102 47.5 -94.7803 46.3701c-0.459961 0 -0.799805 -0.110352 -1.25 -0.110352c-3.5 -0.120117 -7.00977 -0.459961 -10.6299 -0.910156
c0.110352 0.110352 0.34082 0.110352 0.571289 0.230469h-0.679688c-1.46973 -0.230469 -3.05957 -0.34082 -4.5293 -0.680664c-1.80957 -0.230469 -3.61914 -0.450195 -5.42871 -0.790039c-3.73047 -0.679688 -7.57031 -1.46973 -11.5303 -2.37988
c-5.76953 -1.24023 -11.7695 -2.94043 -17.8691 -4.9707c-1.80957 -0.570312 -3.61914 -1.14062 -5.42871 -1.81055c-2.37988 -0.799805 -4.75 -1.7002 -7.24023 -2.71973c-2.71973 -1.01953 -5.31934 -2.0293 -8.0293 -3.2793
c-3.50977 -1.46973 -7.00977 -3.0498 -10.5195 -4.75c-4.53027 -2.15039 -8.94043 -4.52051 -13.2305 -7.24023c-2.26953 -1.24023 -4.5293 -2.60059 -6.67969 -4.07031c-1.91992 -1.12988 -3.83984 -2.37012 -5.64941 -3.73047
c-5.42969 -3.62012 -10.5195 -7.69043 -15.5 -11.9902c-2.37012 -2.04004 -4.75 -4.19043 -7.00977 -6.34082c-2.37988 -2.25977 -4.63965 -4.51953 -6.89941 -6.7793c-4.51953 -4.53027 -8.81934 -9.39062 -12.6689 -14.3711
c-1.58008 -1.80957 -3.0498 -3.72949 -4.41016 -5.64941c-0.900391 -1.01953 -1.7002 -2.14941 -2.49023 -3.2793c-1.58008 -2.04004 -3.16016 -4.2998 -4.52051 -6.55957c-3.73047 -5.2002 -7.13086 -10.6299 -10.1807 -16.29
c-1.58008 -2.83008 -3.16992 -5.54004 -4.63965 -8.48047c-1.58008 -2.83008 -3.0498 -5.66016 -4.41016 -8.60059c-1.46973 -2.94043 -2.83008 -5.88086 -4.07031 -8.82129c-2.71973 -5.87988 -5.08984 -11.8799 -7.24023 -17.8701
c-1.01953 -2.70996 -1.91992 -5.42969 -2.93945 -8.13965c-0.230469 -0.799805 -0.570312 -1.58984 -0.790039 -2.37988c-0.910156 -2.59961 -1.7002 -5.19922 -2.49023 -7.79883c-1.01953 -3.28027 -1.91992 -6.56055 -2.83008 -9.84082
c-19.4502 -71.71 -16.0605 -147.61 0.339844 -191.83z" />
    <glyph glyph-name="acircumflex" unicode="&#xe2;" horiz-adv-x="568" 
d="M300.001 604.46l-111.7 -119.21h-10.3301l122.03 176.46l122.03 -176.46h-10.3301zM477.031 111.5c0 -116.61 6.55273 -105.527 96.8125 -105.527v-6.09961h-235.94v6.09961c87.5498 0 87.4297 -13.7998 87.4297 105.53v116.27
c-11.7598 -30.7598 -24.9902 -58.1299 -39.4707 -82.1104c-105.41 -174.86 -271.11 -177.351 -330.61 -101.23c-51.46 65.71 -48.8604 164.45 -12.3203 250.641c3.5 8.25977 7.23047 16.29 11.4209 24.3203c1.12988 2.37012 2.37012 4.63965 3.62012 6.89941
c3.0498 5.65039 6.21973 11.3105 9.60938 16.7402c2.83008 4.75 5.87988 9.26953 8.93945 13.7998c2.03027 3.0498 4.18066 6.09961 6.33105 9.04004c7.24023 9.95996 14.9307 19.46 23.1904 28.3896c2.49023 2.71973 4.9707 5.42969 7.58105 8.0293
c2.70996 2.83008 5.42969 5.42969 8.13965 8.04004c2.83008 2.70996 5.66016 5.2002 8.60059 7.69043c2.82031 2.59961 5.76074 4.96973 8.71094 7.34961c5.99023 4.63965 11.9805 9.0498 18.2002 13.2295c6.23047 4.19043 12.5605 7.9209 19.1201 11.3105
c4.86035 2.59961 9.84082 4.97949 14.8213 7.23926h0.110352c4.98047 2.25977 10.0703 4.2998 15.1602 6c16.6201 5.75977 32.5703 10.0596 47.5 13.1191c3.73047 0.790039 7.4707 1.58008 11.0811 2.13965c2.71973 0.570312 5.42969 1.02051 8.14941 1.48047
c0.900391 0.110352 1.81055 0.220703 2.60059 0.331055c2.37012 0.459961 4.75 0.679688 7.00977 0.910156c2.37988 0.339844 4.63965 0.55957 6.89941 0.790039c2.25977 0.339844 4.5293 0.570312 6.66895 0.680664c2.26953 0.110352 4.41992 0.34082 6.55957 0.451172
c2.15039 0.230469 4.30078 0.34082 6.45117 0.34082c6.21973 0.339844 12.0996 0.339844 17.8691 0.229492h1.7002c15.3799 0.339844 29.9697 -1.36035 43.54 -4.64062c0.339844 -0.110352 0.570312 -0.110352 0.910156 -0.230469
c0.339844 -0.110352 0.55957 -0.110352 0.899414 -0.220703c3.50977 -0.910156 6.89941 -1.91992 10.2998 -3.16992c3.28027 -1.12988 6.56055 -2.37012 9.7207 -3.73047c2.49023 -1.12988 4.87012 -2.25977 7.24023 -3.38965l0.120117 -0.120117
c1.34961 -0.55957 2.70996 -1.23926 3.9502 -2.0293c0.120117 0 0.120117 -0.120117 0.230469 -0.120117c1.7002 -0.900391 3.28027 -1.81055 4.86035 -2.82031c0.799805 -0.459961 1.58984 -1.01953 2.37988 -1.46973c2.25977 -1.36035 4.41016 -2.83008 6.4502 -4.41992
l0.110352 -0.110352c1.46973 -1.12988 2.93945 -2.25977 4.40918 -3.50977c0.110352 0 0.110352 0 0.230469 -0.219727h0.110352c0.110352 -0.110352 0.230469 -0.230469 0.34082 -0.230469c1.46973 -1.24023 2.93945 -2.49023 4.2998 -3.73047
c0.110352 -0.110352 0.110352 -0.110352 0.220703 -0.230469c1.80957 -1.58008 3.50977 -3.28027 5.20996 -5.08984c0.55957 -0.55957 1.12988 -1.12988 1.58008 -1.68945c1.91992 -2.04004 3.72949 -4.19043 5.42969 -6.34082
c0.450195 -0.55957 0.900391 -1.23926 1.36035 -1.80957v-0.110352c6.9502 -9.12988 12.6006 -19.04 17.5508 -29.2803c6.66992 40.3799 10.6299 71.3701 10.6299 71.3701h5.86035v-181.21zM85.0049 103.243c42.2998 -114.01 225.525 -153.478 340.325 149.192
l-0.110352 44.5596c-0.900391 31.2197 -5.65039 59.2695 -13.46 80.1992c-5.99023 16.0596 -14.8105 31.8896 -26.0107 45.9199c-1.7002 2.03027 -3.40039 4.07031 -5.09082 5.99023c-24.3203 27.8203 -57.9102 47.5 -94.7803 46.3701
c-0.459961 0 -0.799805 -0.110352 -1.25 -0.110352c-3.5 -0.110352 -7.00977 -0.450195 -10.6299 -0.900391c0.110352 0.110352 0.34082 0.110352 0.571289 0.220703h-0.679688c-1.46973 -0.219727 -3.05957 -0.339844 -4.5293 -0.679688
c-1.80957 -0.219727 -3.61914 -0.450195 -5.42871 -0.790039c-3.73047 -0.679688 -7.57031 -1.46973 -11.5303 -2.37012c-5.76953 -1.25 -11.7695 -2.94043 -17.8691 -4.98047c-1.80957 -0.570312 -3.61914 -1.12988 -5.42871 -1.80957
c-2.37988 -0.790039 -4.75 -1.7002 -7.24023 -2.70996c-2.71973 -1.01953 -5.31934 -2.03906 -8.0293 -3.2793c-3.50977 -1.46973 -7.00977 -3.05957 -10.5195 -4.75c-4.53027 -2.15039 -8.94043 -4.53027 -13.2305 -7.24023
c-2.26953 -1.25 -4.5293 -2.59961 -6.67969 -4.08008c-1.91992 -1.12988 -3.83984 -2.37012 -5.64941 -3.73047c-5.42969 -3.62012 -10.5195 -7.69043 -15.5 -11.9902c-2.37012 -2.03027 -4.75 -4.18066 -7.00977 -6.33105
c-2.37988 -2.25977 -4.63965 -4.5293 -6.89941 -6.78906c-4.51953 -4.51953 -8.81934 -9.37988 -12.6689 -14.3604c-1.58008 -1.80957 -3.0498 -3.72949 -4.41016 -5.65918c-0.900391 -1.00977 -1.7002 -2.14941 -2.49023 -3.2793
c-1.58008 -2.03027 -3.16016 -4.29004 -4.52051 -6.55957c-3.73047 -5.2002 -7.13086 -10.6299 -10.1807 -16.2803c-1.58008 -2.83008 -3.16992 -5.5498 -4.63965 -8.49023c-1.58008 -2.82031 -3.0498 -5.65039 -4.41016 -8.59082
c-1.46973 -2.94043 -2.83008 -5.88086 -4.07031 -8.83105c-2.71973 -5.87988 -5.08984 -11.8701 -7.24023 -17.8701c-1.01953 -2.70996 -1.91992 -5.42969 -2.93945 -8.13965c-0.230469 -0.790039 -0.570312 -1.58008 -0.790039 -2.37012
c-0.910156 -2.61035 -1.7002 -5.20996 -2.49023 -7.80957c-1.01953 -3.28027 -1.91992 -6.56055 -2.83008 -9.84082c-19.4502 -71.71 -16.0605 -147.6 0.339844 -191.83z" />
    <glyph glyph-name="atilde" unicode="&#xe3;" horiz-adv-x="568" 
d="M218.031 582.87c-30.0303 11.2598 -112.64 16.8984 -138.909 -40.3711l-2.82031 0.94043c45.9902 122.03 164.26 79.7803 164.26 79.7803l103.26 -40.3496c29.0996 -12.21 116.399 -11.2695 137.989 40.3506l3.75 -0.94043
c-46.9297 -123.9 -165.199 -79.7803 -165.199 -79.7803zM477.032 111.499c0 -116.61 6.55273 -105.527 96.8125 -105.527v-6.09961h-235.94v6.09961c87.5498 0 87.4297 -13.7998 87.4297 105.53v116.27c-11.7598 -30.7598 -24.9902 -58.1299 -39.4707 -82.1104
c-105.41 -174.86 -271.11 -177.351 -330.61 -101.23c-51.46 65.71 -48.8604 164.45 -12.3203 250.641c3.5 8.25977 7.23047 16.29 11.4209 24.3203c1.12988 2.37012 2.37012 4.63965 3.62012 6.89941c3.0498 5.65039 6.21973 11.3105 9.60938 16.7402
c2.83008 4.75 5.87988 9.26953 8.93945 13.7998c2.03027 3.0498 4.18066 6.09961 6.33105 9.04004c7.24023 9.95996 14.9307 19.46 23.1904 28.3896c2.49023 2.71973 4.9707 5.42969 7.58105 8.0293c2.70996 2.83008 5.42969 5.42969 8.13965 8.04004
c2.83008 2.70996 5.66016 5.2002 8.60059 7.69043c2.82031 2.59961 5.76074 4.96973 8.71094 7.34961c5.99023 4.63965 11.9805 9.0498 18.2002 13.2295c6.23047 4.19043 12.5605 7.9209 19.1201 11.3105c4.86035 2.59961 9.84082 4.97949 14.8213 7.23926h0.110352
c4.98047 2.25977 10.0703 4.2998 15.1602 6c16.6201 5.75977 32.5703 10.0596 47.5 13.1191c3.73047 0.790039 7.4707 1.58008 11.0811 2.13965c2.71973 0.570312 5.42969 1.02051 8.14941 1.48047c0.900391 0.110352 1.81055 0.220703 2.60059 0.331055
c2.37012 0.459961 4.75 0.679688 7.00977 0.910156c2.37988 0.339844 4.63965 0.55957 6.89941 0.790039c2.25977 0.339844 4.5293 0.570312 6.66895 0.680664c2.26953 0.110352 4.41992 0.34082 6.55957 0.451172c2.15039 0.230469 4.30078 0.34082 6.45117 0.34082
c6.21973 0.339844 12.0996 0.339844 17.8691 0.229492h1.7002c15.3799 0.339844 29.9697 -1.36035 43.54 -4.64062c0.339844 -0.110352 0.570312 -0.110352 0.910156 -0.230469c0.339844 -0.110352 0.55957 -0.110352 0.899414 -0.220703
c3.50977 -0.910156 6.89941 -1.91992 10.2998 -3.16992c3.28027 -1.12988 6.56055 -2.37012 9.7207 -3.73047c2.49023 -1.12988 4.87012 -2.25977 7.24023 -3.38965l0.120117 -0.120117c1.34961 -0.55957 2.70996 -1.23926 3.9502 -2.0293
c0.120117 0 0.120117 -0.120117 0.230469 -0.120117c1.7002 -0.900391 3.28027 -1.81055 4.86035 -2.82031c0.799805 -0.459961 1.58984 -1.01953 2.37988 -1.46973c2.25977 -1.36035 4.41016 -2.83008 6.4502 -4.41992l0.110352 -0.110352
c1.46973 -1.12988 2.93945 -2.25977 4.40918 -3.50977c0.110352 0 0.110352 0 0.230469 -0.219727h0.110352c0.110352 -0.110352 0.230469 -0.230469 0.34082 -0.230469c1.46973 -1.24023 2.93945 -2.49023 4.2998 -3.73047
c0.110352 -0.110352 0.110352 -0.110352 0.220703 -0.230469c1.80957 -1.58008 3.50977 -3.28027 5.20996 -5.08984c0.55957 -0.55957 1.12988 -1.12988 1.58008 -1.68945c1.91992 -2.04004 3.72949 -4.19043 5.42969 -6.34082
c0.450195 -0.55957 0.900391 -1.23926 1.36035 -1.80957v-0.110352c6.9502 -9.12988 12.6006 -19.04 17.5508 -29.2803c6.66992 40.3799 10.6299 71.3701 10.6299 71.3701h5.86035v-181.21zM85.0059 103.242c42.2998 -114.01 225.525 -153.478 340.325 149.192
l-0.110352 44.5596c-0.900391 31.2197 -5.65039 59.2695 -13.46 80.1992c-5.99023 16.0596 -14.8105 31.8896 -26.0107 45.9199c-1.7002 2.03027 -3.40039 4.07031 -5.09082 5.99023c-24.3203 27.8203 -57.9102 47.5 -94.7803 46.3701
c-0.459961 0 -0.799805 -0.110352 -1.25 -0.110352c-3.5 -0.110352 -7.00977 -0.450195 -10.6299 -0.900391c0.110352 0.110352 0.34082 0.110352 0.571289 0.220703h-0.679688c-1.46973 -0.219727 -3.05957 -0.339844 -4.5293 -0.679688
c-1.80957 -0.219727 -3.61914 -0.450195 -5.42871 -0.790039c-3.73047 -0.679688 -7.57031 -1.46973 -11.5303 -2.37012c-5.76953 -1.25 -11.7695 -2.94043 -17.8691 -4.98047c-1.80957 -0.570312 -3.61914 -1.12988 -5.42871 -1.80957
c-2.37988 -0.790039 -4.75 -1.7002 -7.24023 -2.70996c-2.71973 -1.01953 -5.31934 -2.03906 -8.0293 -3.2793c-3.50977 -1.46973 -7.00977 -3.05957 -10.5195 -4.75c-4.53027 -2.15039 -8.94043 -4.53027 -13.2305 -7.24023
c-2.26953 -1.25 -4.5293 -2.61035 -6.67969 -4.08008c-1.91992 -1.12988 -3.83984 -2.37012 -5.64941 -3.73047c-5.42969 -3.62012 -10.5195 -7.69043 -15.5 -11.9902c-2.37012 -2.03027 -4.75 -4.18066 -7.00977 -6.33105
c-2.37988 -2.25977 -4.63965 -4.5293 -6.89941 -6.78906c-4.51953 -4.51953 -8.81934 -9.37988 -12.6689 -14.3604c-1.58008 -1.80957 -3.0498 -3.72949 -4.41016 -5.65918c-0.900391 -1.00977 -1.7002 -2.14941 -2.49023 -3.2793
c-1.58008 -2.03027 -3.16016 -4.29004 -4.52051 -6.55957c-3.73047 -5.2002 -7.13086 -10.6299 -10.1807 -16.2803c-1.58008 -2.83008 -3.16992 -5.5498 -4.63965 -8.49023c-1.58008 -2.82031 -3.0498 -5.65039 -4.41016 -8.59082
c-1.46973 -2.94043 -2.83008 -5.88086 -4.07031 -8.83105c-2.71973 -5.87988 -5.08984 -11.8701 -7.24023 -17.8701c-1.01953 -2.70996 -1.91992 -5.42969 -2.93945 -8.13965c-0.230469 -0.790039 -0.570312 -1.58008 -0.790039 -2.37012
c-0.910156 -2.61035 -1.7002 -5.20996 -2.49023 -7.80957c-1.01953 -3.28027 -1.91992 -6.56055 -2.83008 -9.84082c-19.4502 -71.71 -16.0605 -147.6 0.339844 -191.83z" />
    <glyph glyph-name="adieresis" unicode="&#xe4;" horiz-adv-x="568" 
d="M229.991 548.13c-17.8398 0 -30.9795 14.0801 -30.9795 30.9805c0 18.7803 13.1396 32.8604 30.9795 32.8604c16.8896 0 31.9092 -14.0801 31.9092 -32.8604c0 -16.9004 -15.0195 -30.9805 -31.9092 -30.9805zM352.961 548.13
c-17.8398 0 -30.9795 14.0801 -30.9795 30.9805c0 18.7803 13.1396 32.8604 30.9795 32.8604c16.8799 0 31.8994 -14.0801 31.8994 -32.8604c0 -16.9004 -15.0195 -30.9805 -31.8994 -30.9805zM477.031 111.5c0 -116.61 6.55273 -105.527 96.8125 -105.527v-6.09961h-235.94
v6.09961c87.5498 0 87.4297 -13.7998 87.4297 105.53v116.27c-11.7598 -30.7598 -24.9902 -58.1299 -39.4707 -82.1104c-105.41 -174.86 -271.11 -177.351 -330.61 -101.23c-51.46 65.71 -48.8604 164.45 -12.3203 250.641c3.5 8.25977 7.23047 16.29 11.4209 24.3203
c1.12988 2.37012 2.37012 4.63965 3.62012 6.89941c3.0498 5.65039 6.21973 11.3105 9.60938 16.7402c2.83008 4.75 5.87988 9.26953 8.93945 13.7998c2.03027 3.0498 4.18066 6.09961 6.33105 9.04004c7.24023 9.95996 14.9307 19.46 23.1904 28.3896
c2.49023 2.71973 4.9707 5.42969 7.58105 8.0293c2.70996 2.83008 5.42969 5.42969 8.13965 8.04004c2.83008 2.70996 5.66016 5.2002 8.60059 7.69043c2.82031 2.59961 5.76074 4.96973 8.71094 7.34961c5.99023 4.63965 11.9805 9.0498 18.2002 13.2295
c6.23047 4.19043 12.5605 7.9209 19.1201 11.3105c4.86035 2.59961 9.84082 4.97949 14.8213 7.23926h0.110352c4.98047 2.25977 10.0703 4.2998 15.1602 6c16.6201 5.75977 32.5703 10.0596 47.5 13.1191c3.73047 0.790039 7.4707 1.58008 11.0811 2.13965
c2.71973 0.570312 5.42969 1.02051 8.14941 1.48047c0.900391 0.110352 1.81055 0.220703 2.60059 0.331055c2.37012 0.459961 4.75 0.679688 7.00977 0.910156c2.37988 0.339844 4.63965 0.55957 6.89941 0.790039c2.25977 0.339844 4.5293 0.570312 6.66895 0.680664
c2.26953 0.110352 4.41992 0.34082 6.55957 0.451172c2.15039 0.230469 4.30078 0.34082 6.45117 0.34082c6.21973 0.339844 12.0996 0.339844 17.8691 0.229492h1.7002c15.3799 0.339844 29.9697 -1.36035 43.54 -4.64062
c0.339844 -0.110352 0.570312 -0.110352 0.910156 -0.230469c0.339844 -0.110352 0.55957 -0.110352 0.899414 -0.220703c3.50977 -0.910156 6.89941 -1.91992 10.2998 -3.16992c3.28027 -1.12988 6.56055 -2.37012 9.7207 -3.73047
c2.49023 -1.12988 4.87012 -2.25977 7.24023 -3.38965l0.120117 -0.120117c1.34961 -0.55957 2.70996 -1.23926 3.9502 -2.0293c0.120117 0 0.120117 -0.120117 0.230469 -0.120117c1.7002 -0.900391 3.28027 -1.81055 4.86035 -2.82031
c0.799805 -0.459961 1.58984 -1.01953 2.37988 -1.46973c2.25977 -1.36035 4.41016 -2.83008 6.4502 -4.41992l0.110352 -0.110352c1.46973 -1.12988 2.93945 -2.25977 4.40918 -3.50977c0.110352 0 0.110352 0 0.230469 -0.219727h0.110352
c0.110352 -0.110352 0.230469 -0.230469 0.34082 -0.230469c1.46973 -1.24023 2.93945 -2.49023 4.2998 -3.73047c0.110352 -0.110352 0.110352 -0.110352 0.220703 -0.230469c1.80957 -1.58008 3.50977 -3.28027 5.20996 -5.08984
c0.55957 -0.55957 1.12988 -1.12988 1.58008 -1.68945c1.91992 -2.04004 3.72949 -4.19043 5.42969 -6.34082c0.450195 -0.55957 0.900391 -1.23926 1.36035 -1.80957v-0.110352c6.9502 -9.12988 12.6006 -19.04 17.5508 -29.2803
c6.66992 40.3799 10.6299 71.3701 10.6299 71.3701h5.86035v-181.21zM85.0049 103.243c42.2998 -114.01 225.525 -153.478 340.325 149.192l-0.110352 44.5596c-0.900391 31.2197 -5.65039 59.2695 -13.46 80.1992c-5.99023 16.0596 -14.8105 31.8896 -26.0107 45.9199
c-1.7002 2.03027 -3.40039 4.07031 -5.09082 5.99023c-24.3203 27.8203 -57.9102 47.5 -94.7803 46.3701c-0.459961 0 -0.799805 -0.110352 -1.25 -0.110352c-3.5 -0.110352 -7.00977 -0.450195 -10.6299 -0.900391c0.110352 0.110352 0.34082 0.110352 0.571289 0.220703
h-0.679688c-1.46973 -0.219727 -3.05957 -0.339844 -4.5293 -0.679688c-1.80957 -0.219727 -3.61914 -0.450195 -5.42871 -0.790039c-3.73047 -0.679688 -7.57031 -1.46973 -11.5303 -2.37012c-5.76953 -1.25 -11.7695 -2.94043 -17.8691 -4.98047
c-1.80957 -0.570312 -3.61914 -1.12988 -5.42871 -1.80957c-2.37988 -0.790039 -4.75 -1.7002 -7.24023 -2.70996c-2.71973 -1.01953 -5.31934 -2.03906 -8.0293 -3.2793c-3.50977 -1.46973 -7.00977 -3.05957 -10.5195 -4.75
c-4.53027 -2.15039 -8.94043 -4.53027 -13.2305 -7.24023c-2.26953 -1.25 -4.5293 -2.59961 -6.67969 -4.08008c-1.91992 -1.12988 -3.83984 -2.37012 -5.64941 -3.73047c-5.42969 -3.62012 -10.5195 -7.69043 -15.5 -11.9902
c-2.37012 -2.03027 -4.75 -4.18066 -7.00977 -6.33105c-2.37988 -2.25977 -4.63965 -4.5293 -6.89941 -6.78906c-4.51953 -4.51953 -8.81934 -9.37988 -12.6689 -14.3604c-1.58008 -1.80957 -3.0498 -3.72949 -4.41016 -5.65918
c-0.900391 -1.00977 -1.7002 -2.14941 -2.49023 -3.2793c-1.58008 -2.03027 -3.16016 -4.29004 -4.52051 -6.55957c-3.73047 -5.2002 -7.13086 -10.6299 -10.1807 -16.2803c-1.58008 -2.83008 -3.16992 -5.5498 -4.63965 -8.49023
c-1.58008 -2.82031 -3.0498 -5.65039 -4.41016 -8.59082c-1.46973 -2.94043 -2.83008 -5.88086 -4.07031 -8.83105c-2.71973 -5.87988 -5.08984 -11.8701 -7.24023 -17.8701c-1.01953 -2.70996 -1.91992 -5.42969 -2.93945 -8.13965
c-0.230469 -0.790039 -0.570312 -1.58008 -0.790039 -2.37012c-0.910156 -2.61035 -1.7002 -5.20996 -2.49023 -7.80957c-1.01953 -3.28027 -1.91992 -6.56055 -2.83008 -9.84082c-19.4502 -71.71 -16.0605 -147.6 0.339844 -191.83z" />
    <glyph glyph-name="aring" unicode="&#xe5;" horiz-adv-x="568" 
d="M300.411 519.05c-41.2803 0 -74.8799 33.5996 -74.8799 74.8799c0 41.6904 33.5996 75.6201 74.8799 75.6201s74.8604 -33.9199 74.8604 -75.6201c0 -41.2803 -33.5801 -74.8799 -74.8604 -74.8799zM300.411 658.24c-35.0498 0 -63.5693 -28.8496 -63.5693 -64.3096
c0 -35.0498 28.5195 -63.5693 63.5693 -63.5693c35.04 0 63.5498 28.5195 63.5498 63.5693c0 35.46 -28.5 64.3096 -63.5498 64.3096zM477.031 111.5c0 -116.61 6.55273 -105.527 96.8125 -105.527v-6.09961h-235.94v6.09961c87.5498 0 87.4297 -13.7998 87.4297 105.53
v116.27c-11.7598 -30.7598 -24.9902 -58.1299 -39.4707 -82.1104c-105.41 -174.86 -271.11 -177.351 -330.61 -101.23c-51.46 65.71 -48.8604 164.45 -12.3203 250.641c3.5 8.25977 7.23047 16.29 11.4209 24.3203c1.12988 2.37012 2.37012 4.63965 3.62012 6.89941
c3.0498 5.65039 6.21973 11.3105 9.60938 16.7402c2.83008 4.75 5.87988 9.26953 8.93945 13.7998c2.03027 3.0498 4.18066 6.09961 6.33105 9.04004c7.24023 9.95996 14.9307 19.46 23.1904 28.3896c2.49023 2.71973 4.9707 5.42969 7.58105 8.0293
c2.70996 2.83008 5.42969 5.42969 8.13965 8.04004c2.83008 2.70996 5.66016 5.2002 8.60059 7.69043c2.82031 2.59961 5.76074 4.96973 8.71094 7.34961c5.99023 4.63965 11.9805 9.0498 18.2002 13.2295c6.23047 4.19043 12.5605 7.9209 19.1201 11.3105
c4.86035 2.59961 9.84082 4.97949 14.8213 7.23926h0.110352c4.98047 2.25977 10.0703 4.2998 15.1602 6c16.6201 5.75977 32.5703 10.0596 47.5 13.1191c3.73047 0.790039 7.4707 1.58008 11.0811 2.13965c2.71973 0.570312 5.42969 1.02051 8.14941 1.48047
c0.900391 0.110352 1.81055 0.220703 2.60059 0.331055c2.37012 0.459961 4.75 0.679688 7.00977 0.910156c2.37988 0.339844 4.63965 0.55957 6.89941 0.790039c2.25977 0.339844 4.5293 0.570312 6.66895 0.680664c2.26953 0.110352 4.41992 0.34082 6.55957 0.451172
c2.15039 0.230469 4.30078 0.34082 6.45117 0.34082c6.21973 0.339844 12.0996 0.339844 17.8691 0.229492h1.7002c15.3799 0.339844 29.9697 -1.36035 43.54 -4.64062c0.339844 -0.110352 0.570312 -0.110352 0.910156 -0.230469
c0.339844 -0.110352 0.55957 -0.110352 0.899414 -0.220703c3.50977 -0.910156 6.89941 -1.91992 10.2998 -3.16992c3.28027 -1.12988 6.56055 -2.37012 9.7207 -3.73047c2.49023 -1.12988 4.87012 -2.25977 7.24023 -3.38965l0.120117 -0.120117
c1.34961 -0.55957 2.70996 -1.23926 3.9502 -2.0293c0.120117 0 0.120117 -0.120117 0.230469 -0.120117c1.7002 -0.900391 3.28027 -1.81055 4.86035 -2.82031c0.799805 -0.459961 1.58984 -1.01953 2.37988 -1.46973c2.25977 -1.36035 4.41016 -2.83008 6.4502 -4.41992
l0.110352 -0.110352c1.46973 -1.12988 2.93945 -2.25977 4.40918 -3.50977c0.110352 0 0.110352 0 0.230469 -0.219727h0.110352c0.110352 -0.110352 0.230469 -0.230469 0.34082 -0.230469c1.46973 -1.24023 2.93945 -2.49023 4.2998 -3.73047
c0.110352 -0.110352 0.110352 -0.110352 0.220703 -0.230469c1.80957 -1.58008 3.50977 -3.28027 5.20996 -5.08984c0.55957 -0.55957 1.12988 -1.12988 1.58008 -1.68945c1.91992 -2.04004 3.72949 -4.19043 5.42969 -6.34082
c0.450195 -0.55957 0.900391 -1.23926 1.36035 -1.80957v-0.110352c6.9502 -9.12988 12.6006 -19.04 17.5508 -29.2803c6.66992 40.3799 10.6299 71.3701 10.6299 71.3701h5.86035v-181.21zM85.0049 103.243c42.2998 -114.01 225.525 -153.478 340.325 149.192
l-0.110352 44.5596c-0.900391 31.2197 -5.65039 59.2695 -13.46 80.1992c-5.99023 16.0596 -14.8105 31.8896 -26.0107 45.9199c-1.7002 2.03027 -3.40039 4.07031 -5.09082 5.99023c-24.3203 27.8203 -57.9102 47.5 -94.7803 46.3701
c-0.459961 0 -0.799805 -0.110352 -1.25 -0.110352c-3.5 -0.110352 -7.00977 -0.450195 -10.6299 -0.900391c0.110352 0.110352 0.34082 0.110352 0.571289 0.220703h-0.679688c-1.46973 -0.219727 -3.05957 -0.339844 -4.5293 -0.679688
c-1.80957 -0.219727 -3.61914 -0.450195 -5.42871 -0.790039c-3.73047 -0.679688 -7.57031 -1.46973 -11.5303 -2.37012c-5.76953 -1.25 -11.7695 -2.94043 -17.8691 -4.98047c-1.80957 -0.570312 -3.61914 -1.12988 -5.42871 -1.80957
c-2.37988 -0.790039 -4.75 -1.7002 -7.24023 -2.70996c-2.71973 -1.01953 -5.31934 -2.03906 -8.0293 -3.2793c-3.50977 -1.46973 -7.00977 -3.05957 -10.5195 -4.75c-4.53027 -2.15039 -8.94043 -4.53027 -13.2305 -7.24023
c-2.26953 -1.25 -4.5293 -2.61035 -6.67969 -4.08008c-1.91992 -1.12988 -3.83984 -2.37012 -5.64941 -3.73047c-5.42969 -3.62012 -10.5195 -7.69043 -15.5 -11.9902c-2.37012 -2.03027 -4.75 -4.18066 -7.00977 -6.33105
c-2.37988 -2.25977 -4.63965 -4.5293 -6.89941 -6.78906c-4.51953 -4.51953 -8.81934 -9.37988 -12.6689 -14.3604c-1.58008 -1.80957 -3.0498 -3.72949 -4.41016 -5.65918c-0.900391 -1.00977 -1.7002 -2.14941 -2.49023 -3.2793
c-1.58008 -2.03027 -3.16016 -4.29004 -4.52051 -6.55957c-3.73047 -5.2002 -7.13086 -10.6299 -10.1807 -16.2803c-1.58008 -2.83008 -3.16992 -5.5498 -4.63965 -8.49023c-1.58008 -2.82031 -3.0498 -5.65039 -4.41016 -8.59082
c-1.46973 -2.94043 -2.83008 -5.88086 -4.07031 -8.83105c-2.71973 -5.87988 -5.08984 -11.8701 -7.24023 -17.8701c-1.01953 -2.70996 -1.91992 -5.42969 -2.93945 -8.13965c-0.230469 -0.790039 -0.570312 -1.58008 -0.790039 -2.37012
c-0.910156 -2.61035 -1.7002 -5.20996 -2.49023 -7.80957c-1.01953 -3.28027 -1.91992 -6.56055 -2.83008 -9.84082c-19.4502 -71.71 -16.0605 -147.6 0.339844 -191.83z" />
    <glyph glyph-name="ae" unicode="&#xe6;" horiz-adv-x="920" 
d="M902.83 252.27l8.58984 0.00683594c-13.9199 -42.6396 -30.7695 -79.3994 -49.5391 -110.619c-76.3496 -126.67 -212.869 -162.08 -310.249 -141.83c-7.58008 1.58008 -14.9297 3.50977 -21.9492 5.87988c-17.4102 5.42969 -33.0205 12.7793 -46.2607 22.0596
c-5.28027 3.57031 -10.0303 7.58008 -14.5 11.7598v-39.7002h-53.1396v204.5c-9.24023 -21.3896 -19.2402 -40.9697 -29.9199 -58.6602c-105.41 -174.86 -271.11 -177.351 -330.61 -101.23c-51.4502 65.7002 -48.8604 164.431 -12.3408 250.61h-0.0302734
c3.50977 8.25 7.24023 16.2803 11.4199 24.3105c1.12988 2.37988 2.37988 4.63965 3.62012 6.89941c3.05957 5.66016 6.21973 11.3105 9.62012 16.7402c2.82031 4.75 5.87988 9.28027 8.92969 13.7998c2.04004 3.05957 4.19043 6.10938 6.34082 9.0498
c7.23047 9.9502 14.9307 19.46 23.1807 28.3896c2.49023 2.70996 4.98047 5.42969 7.58008 8.0293c2.70996 2.83008 5.42969 5.42969 8.13965 8.0293c2.83008 2.71973 5.66016 5.2002 8.60059 7.69043c2.83008 2.59961 5.77051 4.97949 8.71094 7.34961
c5.99023 4.63965 11.9902 9.0498 18.21 13.2402l0.00976562 0.00976562c0.00976562 0.00976562 0.0195312 0.00976562 0.0292969 0.0195312c0.0302734 0.0195312 0.0498047 0.0390625 0.0693359 0.0488281c6.15039 4.12988 12.4102 7.80957 18.8906 11.1699
c0.0498047 0.0195312 0.0996094 0.0595703 0.15918 0.0898438c4.86035 2.59961 9.84082 4.97949 14.8213 7.23926h0.110352c0.379883 0.160156 0.769531 0.280273 1.14941 0.44043c4.61035 2.0498 9.28027 3.95996 13.96 5.51953
c15.1904 5.26953 29.71 9.16992 43.5098 12.1602c1.32031 0.290039 2.74023 0.709961 4.04004 0.979492c3.73047 0.799805 7.46094 1.58984 11.0811 2.14941c0.639648 0.120117 1.25977 0.209961 1.88965 0.320312c2.07031 0.400391 4.14062 0.770508 6.21094 1.12012
c0.700195 0.0800781 1.37012 0.169922 2.00977 0.259766c0.209961 0.0302734 0.429688 0.0703125 0.639648 0.100586c2.37012 0.450195 4.75 0.680664 7.00977 0.911133c2.37988 0.339844 4.63965 0.55957 6.89941 0.790039
c2.25977 0.339844 4.51953 0.55957 6.66992 0.679688c2.26953 0.110352 4.40918 0.34082 6.55957 0.451172c2.15039 0.230469 4.30078 0.34082 6.45117 0.34082c6.28027 0.259766 12.3301 0.299805 18.1904 0.189453h1.33008
c15.3799 0.339844 29.9795 -1.36035 43.5498 -4.64062c0.160156 -0.0400391 0.290039 -0.0800781 0.429688 -0.0996094c0.169922 -0.0302734 0.349609 -0.0498047 0.519531 -0.0898438c0.339844 -0.110352 0.55957 -0.110352 0.899414 -0.220703
c3.50977 -0.910156 6.89941 -1.92969 10.2998 -3.16992c3.28027 -1.12988 6.56055 -2.37988 9.7207 -3.72949c2.49023 -1.13965 4.87012 -2.26953 7.24023 -3.39941l0.110352 -0.110352c1.36035 -0.570312 2.7207 -1.24023 3.96094 -2.04004
c0.120117 0 0.120117 -0.110352 0.230469 -0.110352c1.7002 -0.900391 3.28027 -1.81055 4.86035 -2.83008c0.790039 -0.450195 1.58984 -1.02051 2.37988 -1.4707c2.25977 -1.34961 4.41016 -2.83008 6.4502 -4.41016l0.110352 -0.110352
c1.46973 -1.12988 2.93945 -2.25977 4.40918 -3.50977c0.110352 0 0.110352 0 0.230469 -0.219727h0.110352c0.110352 -0.120117 0.220703 -0.230469 0.34082 -0.230469c1.46973 -1.24023 2.93945 -2.49023 4.2998 -3.73047
c0.110352 -0.120117 0.110352 -0.120117 0.220703 -0.230469c1.80957 -1.58008 3.50977 -3.28027 5.20996 -5.08984c0.55957 -0.55957 1.12988 -1.12988 1.58008 -1.7002c1.91992 -2.03027 3.72949 -4.18066 5.42969 -6.33105
c0.450195 -0.55957 0.900391 -1.23926 1.35059 -1.80957v-0.200195c2.46973 -3.26953 4.83008 -6.63965 6.96973 -10.0098c1.36035 -2.04004 2.60059 -3.95996 3.85059 -6.11035c0.110352 -0.110352 0.110352 -0.230469 0.110352 -0.34082
c0.910156 -1.46973 1.7002 -2.93945 2.49023 -4.40918c1.58008 -2.71973 2.94043 -5.31934 4.30078 -8.0293c1.34961 -2.83008 2.59961 -5.66016 3.83984 -8.60059c0.790039 -1.91992 1.58984 -3.83984 2.25977 -5.76953
c1.13965 -2.70996 2.14941 -5.41992 2.94922 -8.13965c0.330078 -0.679688 0.450195 -1.23926 0.669922 -1.91895c0.120117 -0.450195 0.339844 -0.910156 0.459961 -1.36035c0.55957 -1.91992 1.12988 -3.95996 1.68945 -5.99023
c0.120117 -0.339844 0.230469 -0.679688 0.34082 -1.01953c0.570312 -2.04004 1.12988 -4.07031 1.58984 -6.2207c0.669922 -3.05957 1.34961 -6.10938 1.91992 -9.15918c0.110352 0.339844 0.34082 0.55957 0.560547 0.790039
c0.910156 1.36035 1.81055 2.70996 2.83008 4.07031c7.24023 9.9502 14.9307 19.4502 23.1904 28.3906c2.49023 2.70996 4.98047 5.42969 7.58008 8.0293c2.70996 2.70996 5.42969 5.42969 8.13965 8.0293c2.83008 2.59961 5.66016 5.19922 8.60059 7.68945
c2.82031 2.59961 5.76074 4.97949 8.71094 7.34961c5.99023 4.63965 11.9805 9.0498 18.2109 13.2402c6.21973 4.17969 12.5498 7.91016 19.1094 11.3105c9.73047 5.30957 19.79 9.71973 30.0898 13.2295c16.6201 5.76953 32.5703 10.0693 47.5 13.1191
c6.55957 1.46973 13.0098 2.59961 19.2295 3.61914c0.900391 0.110352 1.81055 0.230469 2.60059 0.34082c2.37988 0.450195 4.75 0.680664 7.00977 0.900391c2.37988 0.339844 4.63965 0.570312 6.89941 0.800781c2.25977 0.339844 4.5293 0.55957 6.67969 0.669922
c2.25977 0.120117 4.41016 0.339844 6.56055 0.459961c2.13965 0.219727 4.29004 0.339844 6.44043 0.339844c6.21973 0.219727 12.0996 0.219727 17.8691 0.109375c0.339844 0 0.790039 0.110352 1.12988 0.110352h0.570312
c15.3799 0.339844 29.9697 -1.35059 43.54 -4.63086c0.339844 -0.120117 0.570312 -0.120117 0.910156 -0.230469s0.570312 -0.110352 0.900391 -0.230469c27.9404 -7.45996 51.3506 -22.1699 67.1904 -42.4102c0.450195 -0.570312 0.900391 -1.25 1.36035 -1.80957
v-0.110352c28.8799 -38.0498 40.0898 -86.6396 37.25 -137.529v-4.46973h-396c-1.57031 -6.00977 -3.02051 -11.9902 -4.10059 -18.04c-7.57031 -40.3799 -6.2207 -80.0801 0.119141 -113.67c3.73047 -20.0195 9.27051 -37.8896 15.7207 -52.3701
c47.96 -106.43 295.43 -158.68 410.12 148.17zM486.82 308.717c-0.910156 -2.59961 -1.70703 -5.19727 -2.49707 -7.79688c-0.719727 -2.36035 -1.33984 -4.7207 -1.9502 -7.07031h339.68c-0.990234 30.8896 -5.77051 58.5898 -13.4609 79.3398
c-19 51.3496 -68.54 100.1 -125.88 98.29c-0.459961 0 -0.799805 -0.110352 -1.25 -0.110352c-3.5 -0.120117 -7.00977 -0.459961 -10.6299 -0.910156c0.110352 0.120117 0.34082 0.120117 0.571289 0.230469h-0.679688
c-1.46973 -0.230469 -3.05957 -0.34082 -4.5293 -0.680664c-1.80957 -0.230469 -3.61914 -0.450195 -5.42871 -0.790039c-3.73047 -0.679688 -7.57031 -1.46973 -11.5303 -2.37988c-5.76953 -1.24023 -11.7695 -2.94043 -17.8691 -4.9707
c-1.80957 -0.570312 -3.61914 -1.14062 -5.42871 -1.81055c-2.37988 -0.799805 -4.75 -1.7002 -7.24023 -2.71973c-2.71973 -1.01953 -5.31934 -2.0293 -8.0293 -3.2793c-3.50977 -1.46973 -7.00977 -3.0498 -10.5195 -4.75
c-4.51953 -2.15039 -8.93945 -4.52051 -13.2295 -7.24023c-2.26953 -1.24023 -4.5293 -2.60059 -6.67969 -4.07031c-1.91992 -1.12988 -3.83984 -2.37012 -5.64941 -3.73047c-5.42969 -3.62012 -10.5195 -7.69043 -15.5 -11.9902
c-2.37012 -2.04004 -4.75 -4.19043 -7.00977 -6.33008c-2.37988 -2.26953 -4.63965 -4.5293 -6.89941 -6.78906c-4.51953 -4.53027 -8.81934 -9.39062 -12.6689 -14.3711c-1.58008 -1.80957 -3.0498 -3.72949 -4.41016 -5.64941
c-0.900391 -1.01953 -1.7002 -2.14941 -2.49023 -3.2793c-1.58008 -2.04004 -3.16016 -4.2998 -4.52051 -6.55957c-3.73047 -5.2002 -7.13086 -10.6299 -10.1807 -16.29c-1.58008 -2.83008 -3.16992 -5.54004 -4.63965 -8.48047
c-1.58008 -2.83008 -3.0498 -5.66016 -4.41016 -8.60059c-1.46973 -2.94043 -2.83008 -5.88086 -4.07031 -8.82129c-2.71973 -5.87988 -5.08984 -11.8799 -7.24023 -17.8701c-1.01953 -2.70996 -1.91992 -5.42969 -2.93945 -8.13965
c-0.230469 -0.799805 -0.570312 -1.58984 -0.790039 -2.37988zM84.9932 103.238c42.2998 -114 225.484 -153.47 340.274 149.08v0.0703125l-0.120117 44.5703c-0.900391 31.2197 -5.65039 59.2695 -13.46 80.1895c-5.99023 16.0596 -14.8105 31.8994 -26.0107 45.9189
c-1.7002 2.04004 -3.39062 4.07031 -5.09082 6c-24.3203 27.8203 -57.9102 47.5 -94.7803 46.3701c-0.450195 0 -0.790039 -0.110352 -1.25 -0.110352c-3.5 -0.120117 -7.00977 -0.459961 -10.6299 -0.910156c0.120117 0.110352 0.339844 0.110352 0.570312 0.230469
c0 0 0.110352 0.110352 0.220703 0.110352h-0.0195312c-0.0703125 -0.0302734 -0.160156 -0.0800781 -0.160156 -0.0800781h-0.469727c-0.0800781 0 -0.150391 -0.0302734 -0.240234 -0.0302734c-1.46973 -0.230469 -3.0498 -0.34082 -4.51953 -0.680664
c-1.80957 -0.230469 -3.61914 -0.450195 -5.42871 -0.790039c-3.74023 -0.679688 -7.58008 -1.35938 -11.54 -2.37891c-5.76953 -1.24023 -11.7598 -2.94043 -17.8701 -4.98047c-1.80957 -0.55957 -3.61914 -1.12988 -5.42871 -1.80957
c-2.37012 -0.790039 -4.75 -1.69043 -7.24023 -2.70996c-2.70996 -1.01953 -5.30957 -2.03906 -8.0293 -3.2793c-3.50977 -1.46973 -7.00977 -3.0498 -10.5195 -4.75c-4.51953 -2.15039 -8.92969 -4.52051 -13.2295 -7.24023
c-2.25977 -1.12988 -4.5293 -2.49023 -6.66895 -4.07031c-1.91992 -1.12012 -3.83008 -2.36035 -5.62988 -3.70996c-5.41992 -3.61035 -10.5 -7.68066 -15.4805 -11.9805c-2.37012 -2.03027 -4.75 -4.18066 -7.00977 -6.33105
c-2.37988 -2.25977 -4.63965 -4.5293 -6.89941 -6.78906c-4.53027 -4.51953 -8.82031 -9.38965 -12.6699 -14.3594c-1.58008 -1.80957 -3.0498 -3.73926 -4.41016 -5.65918c-0.910156 -1.01953 -1.7002 -2.14941 -2.49023 -3.2793
c-1.58008 -2.03027 -3.16992 -4.2998 -4.51953 -6.55957c-3.74023 -5.2002 -7.12988 -10.6299 -10.1797 -16.29c-1.58984 -2.82031 -3.16992 -5.54004 -4.63965 -8.48047c-1.58008 -2.83008 -3.0498 -5.65039 -4.41016 -8.59082
c-1.46973 -2.9502 -2.83008 -5.89062 -4.07031 -8.83105c-2.71973 -5.87988 -5.08984 -11.8701 -7.24023 -17.8701c-1.01953 -2.70996 -1.91992 -5.42969 -2.93945 -8.13965c-0.230469 -0.790039 -0.570312 -1.58008 -0.790039 -2.37988
c-0.910156 -2.59961 -1.7002 -5.19922 -2.49023 -7.79883c-1.01953 -3.28027 -1.92969 -6.56055 -2.83008 -9.84082c-19.4502 -71.71 -16.0605 -147.6 0.339844 -191.83z" />
    <glyph glyph-name="ccedilla" unicode="&#xe7;" horiz-adv-x="519" 
d="M503.108 255.5l8.58789 -0.00195312c-13.9102 -42.6504 -30.7705 -79.4004 -49.54 -110.62c-63.2197 -104.85 -167.62 -147.13 -256.95 -147.08l-12.71 -34.5c99.9297 22.3301 143.52 -28.71 137.14 -82.9297c-10.6299 -76.5498 -70.1602 -82.9297 -106.3 -82.9297
c-45.7197 -1.05957 -60.6094 19.1406 -63.7891 24.4502c-3.19043 5.32031 -3.19043 13.8301 1.05957 20.21c5.30957 8.5 17.0098 10.6299 25.5098 4.25c9.57031 -5.32031 11.7002 -17.0107 6.37988 -25.5205c-4.25 -5.30957 -8.5 -7.43945 -12.75 -7.43945
c-3.19043 0 11.6895 -13.8203 43.5898 -12.7607c39.3203 0 73.3506 21.2598 73.3506 69.1094c0 36.1504 -21.2695 98.8701 -120.13 73.3604l18.7598 54.8398c-55.5703 2 -104.32 20.5303 -132.11 50.5801c-56.6504 61.2998 -59.6904 159.58 -23.1602 245.771
c3.50977 8.25977 7.24023 16.29 11.4199 24.3203c1.12988 2.37012 2.37988 4.63965 3.62012 6.89941c3.05957 5.65039 6.21973 11.3105 9.62012 16.7402c2.82031 4.75 5.87988 9.26953 8.92969 13.7998c2.04004 3.0498 4.19043 6.09961 6.34082 9.04004
c7.23047 9.95996 14.9307 19.46 23.1807 28.3896c2.49023 2.71973 4.98047 5.42969 7.58008 8.0293c5.32031 5.5498 10.8604 10.8594 16.7402 15.7295c2.83008 2.59961 5.77051 4.96973 8.71094 7.34961c5.99023 4.63965 11.9902 9.0498 18.21 13.2295
c6.21973 4.19043 12.5498 7.9209 19.1094 11.3105c9.73047 5.32031 19.8008 9.73047 30.0908 13.2402c16.6299 5.75977 32.5703 10.0596 47.5 13.1191c6.55957 1.46973 13.0098 2.59961 19.2295 3.60938c0.910156 0.120117 1.81055 0.230469 2.60059 0.34082
c2.37988 0.459961 4.75 0.679688 7.01953 0.910156c2.37012 0.339844 4.62988 0.55957 6.89941 0.790039c2.25977 0.339844 4.51953 0.570312 6.66992 0.680664c2.25977 0.110352 4.41016 0.34082 6.56055 0.451172c2.15039 0.230469 4.30078 0.34082 6.45117 0.34082
c6.13965 0.259766 12.0898 0.319336 17.8301 0.219727c0.389648 -0.0195312 0.790039 0.0205078 1.16992 0.0107422h0.55957c15.3896 0.339844 29.9795 -1.36035 43.5498 -4.64062c0.339844 -0.110352 0.55957 -0.110352 0.899414 -0.230469
c0.339844 -0.110352 0.570312 -0.110352 0.910156 -0.220703c27.9404 -7.46973 51.3506 -22.1699 67.1807 -42.4199c0.459961 -0.55957 0.910156 -1.23926 1.36035 -1.80957v-0.110352c29.1797 -38.46 40.3799 -87.6602 37.21 -139.12h-54.7402
c-0.790039 32.0098 -5.66016 60.7402 -13.5703 82.1104c-19.0098 51.3496 -68.5498 100.1 -125.89 98.29c-0.450195 0 -0.790039 -0.110352 -1.24023 -0.110352c-3.50977 -0.110352 -7.01953 -0.450195 -10.6396 -0.900391
c0.120117 0.110352 0.339844 0.110352 0.570312 0.220703h-0.679688c-1.46973 -0.219727 -3.0498 -0.339844 -4.51953 -0.679688c-1.80957 -0.219727 -3.61914 -0.450195 -5.42871 -0.790039c-3.74023 -0.679688 -7.58008 -1.46973 -11.54 -2.37012
c-5.76953 -1.25 -11.7598 -2.94043 -17.8701 -4.98047c-1.80957 -0.570312 -3.61914 -1.12988 -5.42871 -1.80957c-2.37012 -0.790039 -4.75 -1.7002 -7.24023 -2.70996c-2.70996 -1.01953 -5.30957 -2.14941 -8.0293 -3.2793
c-3.5 -1.48047 -7.00977 -3.06055 -10.5195 -4.76074c-4.51953 -2.13965 -8.92969 -4.51953 -13.2295 -7.22949c-2.25977 -1.25 -4.51953 -2.61035 -6.66992 -4.08008c-1.92969 -1.24023 -3.84961 -2.48047 -5.65918 -3.73047
c-5.42969 -3.62012 -10.5195 -7.69043 -15.4893 -11.9902c-2.37988 -2.03027 -4.75977 -4.18066 -7.01953 -6.33105c-2.37012 -2.25977 -4.62988 -4.5293 -6.89941 -6.78906c-4.51953 -4.51953 -8.81934 -9.38965 -12.6592 -14.3594
c-1.46973 -1.91992 -2.9502 -3.72949 -4.41992 -5.65918c-0.900391 -1.01953 -1.69043 -2.14941 -2.48047 -3.2793c-1.58984 -2.03027 -3.16992 -4.2998 -4.53027 -6.55957c-3.73047 -5.2002 -7.12012 -10.6299 -10.1797 -16.2803
c-1.58008 -2.83008 -3.16016 -5.5498 -4.62988 -8.49023c-1.58984 -2.83008 -2.9502 -5.65039 -4.41992 -8.59082c-1.34961 -2.94043 -2.70996 -5.77051 -4.07031 -8.83008c-2.70996 -5.87988 -5.08984 -11.8701 -7.24023 -17.8701
c-1.00977 -2.70996 -1.91992 -5.42969 -2.93945 -8.13965c-0.219727 -0.790039 -0.55957 -1.58008 -0.790039 -2.37988c-0.790039 -2.59961 -1.7002 -5.19922 -2.49023 -7.79883c-22.6201 -74.54 -11.9297 -151.8 8.35059 -196.79
c47.9902 -106.44 295.45 -158.7 410.141 148.16z" />
    <glyph glyph-name="egrave" unicode="&#xe8;" horiz-adv-x="518" 
d="M334.378 511.52l-6.57031 0.000976562l-212.14 137.05l55.3701 13.1396zM502.107 250.73h8.59766c-13.9102 -42.6396 -30.7705 -79.3994 -49.54 -110.609c-105.42 -174.86 -325.46 -175.86 -398.95 -96.3604c-56.6504 61.29 -59.6904 159.58 -23.1602 245.771
c3.50977 8.25977 7.24023 16.29 11.4199 24.3203c1.12988 2.37012 2.37988 4.62988 3.62012 6.89941c3.05957 5.65039 6.21973 11.3105 9.62012 16.7402c2.82031 4.75 5.87988 9.26953 8.92969 13.7891c2.04004 3.05957 4.19043 6.10938 6.34082 9.0498
c7.23047 9.95996 14.9307 19.46 23.1807 28.3896c2.49023 2.71973 4.98047 5.42969 7.58008 8.0293c5.32031 5.54004 10.8604 10.8604 16.7402 15.7207c2.83008 2.61035 5.77051 4.98047 8.71094 7.36035c5.99023 4.62988 11.9902 9.04004 18.21 13.2305
c6.21973 4.17969 12.5498 7.91992 19.1094 11.3096c9.73047 5.32031 19.8008 9.73047 30.0908 13.2305c16.6299 5.76953 32.5703 10.0693 47.5 13.1191c6.55957 1.46973 13.0098 2.59961 19.2295 3.61914c0.910156 0.120117 1.81055 0.230469 2.60059 0.34082
c2.37988 0.450195 4.75 0.680664 7.01953 0.911133c2.37012 0.339844 4.62988 0.55957 6.89941 0.790039c2.25977 0.339844 4.51953 0.55957 6.66992 0.679688c2.25977 0.110352 4.41016 0.34082 6.56055 0.451172c2.15039 0.230469 4.30078 0.34082 6.45117 0.34082
c6.13965 0.259766 12.0898 0.319336 17.8301 0.208984c0.389648 -0.00976562 0.790039 0.0302734 1.16992 0.0205078h0.55957c15.3896 0.330078 29.9795 -1.36035 43.5498 -4.64062c0.339844 -0.110352 0.55957 -0.110352 0.899414 -0.230469
c0.339844 -0.110352 0.570312 -0.110352 0.910156 -0.220703c27.9404 -7.46973 51.3506 -22.1699 67.1807 -42.4199c0.459961 -0.55957 0.910156 -1.23926 1.36035 -1.80957v-0.110352c29.1602 -38.4297 40.3604 -87.5898 37.21 -139.02v-2.92969h-396.08
c-17.8604 -70.5098 -7.30078 -141.67 11.8389 -184.12c47.9902 -106.45 295.45 -158.7 410.141 148.149zM86.1055 307.171c-0.790039 -2.59961 -1.71094 -5.20215 -2.50098 -7.80176c-0.709961 -2.33008 -1.29004 -4.66992 -1.92969 -7.00977h339.67
c-1.00977 30.8496 -5.7793 58.5498 -13.459 79.2803c-19.0098 51.3496 -68.5498 100.1 -125.89 98.29c-0.450195 0 -0.790039 -0.110352 -1.24023 -0.110352c-3.50977 -0.110352 -7.01953 -0.450195 -10.6396 -0.910156
c0.120117 0.120117 0.339844 0.120117 0.570312 0.230469h-0.679688c-1.46973 -0.230469 -3.0498 -0.34082 -4.51953 -0.680664c-1.80957 -0.219727 -3.61914 -0.450195 -5.42871 -0.790039c-3.74023 -0.679688 -7.58008 -1.46973 -11.54 -2.37988
c-5.76953 -1.24023 -11.7598 -2.94043 -17.8701 -4.9707c-1.80957 -0.570312 -3.61914 -1.12988 -5.42871 -1.80957c-2.37012 -0.790039 -4.75 -1.7002 -7.24023 -2.71973c-2.70996 -1.00977 -5.30957 -2.14941 -8.0293 -3.2793
c-3.5 -1.46973 -7.00977 -3.0498 -10.5195 -4.75c-4.51953 -2.15039 -8.92969 -4.52051 -13.2295 -7.24023c-2.25977 -1.24023 -4.5293 -2.60059 -6.66895 -4.07031c-1.92969 -1.24023 -3.84961 -2.49023 -5.65918 -3.73047
c-5.42969 -3.62012 -10.5195 -7.69043 -15.4893 -11.9902c-2.37988 -2.04004 -4.75977 -4.17969 -7.01953 -6.33008c-2.37012 -2.26953 -4.62988 -4.5293 -6.89941 -6.78906c-4.51953 -4.51953 -8.81934 -9.38965 -12.6592 -14.3594
c-1.46973 -1.92969 -2.9502 -3.73926 -4.41992 -5.65918c-0.900391 -1.01953 -1.69043 -2.14941 -2.48047 -3.2793c-1.58984 -2.03027 -3.16992 -4.2998 -4.53027 -6.55957c-3.73047 -5.2002 -7.12012 -10.6299 -10.1797 -16.29
c-1.58008 -2.82031 -3.16016 -5.54004 -4.62988 -8.48047c-1.58984 -2.83008 -2.9502 -5.65039 -4.41992 -8.60059c-1.34961 -2.94043 -2.70996 -5.76074 -4.07031 -8.82031c-2.70996 -5.87988 -5.08984 -11.8701 -7.24023 -17.8701
c-1.00977 -2.70996 -1.91992 -5.42969 -2.93945 -8.13965c-0.219727 -0.790039 -0.55957 -1.58984 -0.790039 -2.37988z" />
    <glyph glyph-name="eacute" unicode="&#xe9;" horiz-adv-x="519" 
d="M343.028 648.57l-212.149 -137.051h-6.57031l163.34 150.19zM503.109 255.5l8.59766 0.000976562c-13.9102 -42.6504 -30.7705 -79.4004 -49.54 -110.62c-105.42 -174.86 -325.46 -175.86 -398.95 -96.3604c-56.6504 61.2998 -59.6904 159.58 -23.1602 245.771
c3.50977 8.25977 7.24023 16.29 11.4199 24.3203c1.12988 2.37012 2.37988 4.63965 3.62012 6.89941c3.05957 5.65039 6.21973 11.3105 9.62012 16.7402c2.82031 4.75 5.87988 9.26953 8.92969 13.7998c2.04004 3.0498 4.19043 6.09961 6.34082 9.04004
c7.23047 9.95996 14.9307 19.46 23.1807 28.3896c2.49023 2.71973 4.98047 5.42969 7.58008 8.0293c5.32031 5.5498 10.8604 10.8594 16.7402 15.7295c2.83008 2.59961 5.77051 4.96973 8.71094 7.34961c5.99023 4.63965 11.9902 9.0498 18.21 13.2295
c6.21973 4.19043 12.5498 7.9209 19.1094 11.3105c9.73047 5.32031 19.8008 9.73047 30.0908 13.2402c16.6299 5.75977 32.5703 10.0596 47.5 13.1191c6.55957 1.46973 13.0098 2.59961 19.2295 3.60938c0.910156 0.120117 1.81055 0.230469 2.60059 0.34082
c2.37988 0.459961 4.75 0.679688 7.01953 0.910156c2.37012 0.339844 4.62988 0.55957 6.89941 0.790039c2.25977 0.339844 4.51953 0.570312 6.66992 0.680664c2.25977 0.110352 4.41016 0.34082 6.56055 0.451172c2.15039 0.230469 4.30078 0.34082 6.45117 0.34082
c6.13965 0.259766 12.0898 0.319336 17.8301 0.219727c0.389648 -0.0195312 0.790039 0.0205078 1.16992 0.0107422h0.55957c15.3896 0.339844 29.9795 -1.36035 43.5498 -4.64062c0.339844 -0.110352 0.55957 -0.110352 0.899414 -0.230469
c0.339844 -0.110352 0.570312 -0.110352 0.910156 -0.220703c27.9404 -7.46973 51.3506 -22.1699 67.1807 -42.4199c0.459961 -0.55957 0.910156 -1.23926 1.36035 -1.80957v-0.110352c29.1699 -38.46 40.3701 -87.6504 37.21 -139.101v-2.84961h-396.08
c-17.8604 -70.5098 -7.30078 -141.67 11.8389 -184.12c47.9902 -106.44 295.45 -158.7 410.141 148.16zM87.1074 311.931c-0.790039 -2.59961 -1.71094 -5.20312 -2.50098 -7.80273c-0.709961 -2.33008 -1.29004 -4.66992 -1.92969 -7.00977h339.67
c-1.00977 30.8604 -5.7793 58.5508 -13.459 79.2812c-19.0098 51.3496 -68.5498 100.1 -125.89 98.29c-0.450195 0 -0.790039 -0.110352 -1.24023 -0.110352c-3.50977 -0.110352 -7.01953 -0.450195 -10.6396 -0.900391
c0.120117 0.110352 0.339844 0.110352 0.570312 0.220703h-0.679688c-1.46973 -0.219727 -3.0498 -0.339844 -4.51953 -0.679688c-1.80957 -0.219727 -3.61914 -0.450195 -5.42871 -0.790039c-3.74023 -0.679688 -7.58008 -1.46973 -11.54 -2.37012
c-5.76953 -1.25 -11.7598 -2.94043 -17.8701 -4.98047c-1.80957 -0.570312 -3.61914 -1.12988 -5.42871 -1.80957c-2.37012 -0.790039 -4.75 -1.7002 -7.24023 -2.70996c-2.70996 -1.01953 -5.30957 -2.14941 -8.0293 -3.2793
c-3.5 -1.48047 -7.00977 -3.06055 -10.5195 -4.76074c-4.51953 -2.13965 -8.92969 -4.51953 -13.2295 -7.22949c-2.25977 -1.25 -4.5293 -2.61035 -6.66895 -4.08008c-1.92969 -1.24023 -3.84961 -2.48047 -5.65918 -3.73047
c-5.42969 -3.62012 -10.5195 -7.69043 -15.4893 -11.9902c-2.37988 -2.03027 -4.75977 -4.18066 -7.01953 -6.33105c-2.37012 -2.25977 -4.62988 -4.5293 -6.89941 -6.78906c-4.51953 -4.51953 -8.81934 -9.38965 -12.6592 -14.3594
c-1.46973 -1.91992 -2.9502 -3.72949 -4.41992 -5.65918c-0.900391 -1.01953 -1.69043 -2.14941 -2.48047 -3.2793c-1.58984 -2.03027 -3.16992 -4.2998 -4.53027 -6.55957c-3.73047 -5.2002 -7.12012 -10.6299 -10.1797 -16.2803
c-1.58008 -2.83008 -3.16016 -5.5498 -4.62988 -8.49023c-1.58984 -2.83008 -2.9502 -5.65039 -4.41992 -8.59082c-1.34961 -2.94043 -2.70996 -5.77051 -4.07031 -8.83008c-2.70996 -5.87988 -5.08984 -11.8701 -7.24023 -17.8701
c-1.00977 -2.70996 -1.91992 -5.42969 -2.93945 -8.13965c-0.219727 -0.790039 -0.55957 -1.58008 -0.790039 -2.37988z" />
    <glyph glyph-name="ecircumflex" unicode="&#xea;" horiz-adv-x="518" 
d="M274.428 604.46l-111.7 -119.21h-10.3301l122.03 176.46l122.04 -176.46h-10.3398zM502.107 250.73l8.59766 0.000976562c-13.9102 -42.6396 -30.7705 -79.3994 -49.54 -110.609c-105.42 -174.86 -325.46 -175.86 -398.95 -96.3604
c-56.6504 61.29 -59.6904 159.58 -23.1602 245.771c3.50977 8.25977 7.24023 16.29 11.4199 24.3203c1.12988 2.37012 2.37988 4.62988 3.62012 6.89941c3.05957 5.65039 6.21973 11.3105 9.62012 16.7402c2.82031 4.75 5.87988 9.26953 8.92969 13.7891
c2.04004 3.05957 4.19043 6.10938 6.34082 9.0498c7.23047 9.95996 14.9307 19.46 23.1807 28.3896c2.49023 2.71973 4.98047 5.42969 7.58008 8.0293c5.32031 5.54004 10.8604 10.8604 16.7402 15.7207c2.83008 2.61035 5.77051 4.98047 8.71094 7.36035
c5.99023 4.62988 11.9902 9.04004 18.21 13.2305c6.21973 4.17969 12.5498 7.91992 19.1094 11.3096c9.73047 5.32031 19.8008 9.73047 30.0908 13.2305c16.6299 5.76953 32.5703 10.0693 47.5 13.1191c6.55957 1.46973 13.0098 2.59961 19.2295 3.61914
c0.910156 0.120117 1.81055 0.230469 2.60059 0.34082c2.37988 0.450195 4.75 0.680664 7.01953 0.911133c2.37012 0.339844 4.62988 0.55957 6.89941 0.790039c2.25977 0.339844 4.51953 0.55957 6.66992 0.679688c2.25977 0.110352 4.41016 0.34082 6.56055 0.451172
c2.15039 0.230469 4.30078 0.34082 6.45117 0.34082c6.13965 0.259766 12.0898 0.319336 17.8301 0.208984c0.389648 -0.00976562 0.790039 0.0302734 1.16992 0.0205078h0.55957c15.3896 0.330078 29.9795 -1.36035 43.5498 -4.64062
c0.339844 -0.110352 0.55957 -0.110352 0.899414 -0.230469c0.339844 -0.110352 0.570312 -0.110352 0.910156 -0.220703c27.9404 -7.46973 51.3506 -22.1699 67.1807 -42.4199c0.459961 -0.55957 0.910156 -1.23926 1.36035 -1.80957v-0.110352
c29.1699 -38.46 40.3701 -87.6504 37.21 -139.101v-2.84961h-396.08c-17.8604 -70.5098 -7.30078 -141.67 11.8389 -184.12c47.9902 -106.45 295.45 -158.7 410.141 148.149zM86.1055 307.172c-0.790039 -2.59961 -1.71094 -5.20117 -2.50098 -7.80078
c-0.709961 -2.33008 -1.29004 -4.66992 -1.92969 -7.00977h339.67c-1.00977 30.8496 -5.7793 58.5498 -13.459 79.2803c-19.0098 51.3496 -68.5498 100.1 -125.89 98.29c-0.450195 0 -0.790039 -0.110352 -1.24023 -0.110352
c-3.50977 -0.110352 -7.01953 -0.450195 -10.6396 -0.910156c0.120117 0.120117 0.339844 0.120117 0.570312 0.230469h-0.679688c-1.46973 -0.230469 -3.0498 -0.34082 -4.51953 -0.680664c-1.80957 -0.219727 -3.61914 -0.450195 -5.42871 -0.790039
c-3.74023 -0.679688 -7.58008 -1.46973 -11.54 -2.37988c-5.76953 -1.24023 -11.7598 -2.94043 -17.8701 -4.9707c-1.80957 -0.570312 -3.61914 -1.12988 -5.42871 -1.80957c-2.37012 -0.790039 -4.75 -1.7002 -7.24023 -2.71973
c-2.70996 -1.00977 -5.30957 -2.14941 -8.0293 -3.2793c-3.5 -1.46973 -7.00977 -3.0498 -10.5195 -4.75c-4.51953 -2.15039 -8.92969 -4.52051 -13.2295 -7.24023c-2.25977 -1.24023 -4.5293 -2.60059 -6.66895 -4.07031
c-1.92969 -1.24023 -3.84961 -2.49023 -5.65918 -3.73047c-5.42969 -3.62012 -10.5195 -7.69043 -15.4893 -11.9902c-2.37988 -2.03027 -4.75977 -4.18066 -7.01953 -6.33105c-2.37012 -2.26953 -4.62988 -4.5293 -6.89941 -6.78906
c-4.51953 -4.51953 -8.81934 -9.38965 -12.6592 -14.3594c-1.46973 -1.92969 -2.9502 -3.73926 -4.41992 -5.65918c-0.900391 -1.01953 -1.69043 -2.14941 -2.48047 -3.2793c-1.58984 -2.03027 -3.16992 -4.2998 -4.53027 -6.55957
c-3.73047 -5.2002 -7.12012 -10.6299 -10.1797 -16.29c-1.58008 -2.82031 -3.16016 -5.54004 -4.62988 -8.48047c-1.58984 -2.83008 -2.9502 -5.65039 -4.41992 -8.60059c-1.34961 -2.94043 -2.70996 -5.76074 -4.07031 -8.82031
c-2.70996 -5.87988 -5.08984 -11.8701 -7.24023 -17.8701c-1.00977 -2.70996 -1.91992 -5.42969 -2.93945 -8.13965c-0.219727 -0.790039 -0.55957 -1.58984 -0.790039 -2.37988z" />
    <glyph glyph-name="edieresis" unicode="&#xeb;" horiz-adv-x="518" 
d="M187.328 548.13c-17.8398 0 -30.9697 14.0801 -30.9697 30.9805c0 18.7803 13.1299 32.8604 30.9697 32.8604c16.9004 0 31.9199 -14.0801 31.9199 -32.8604c0 -16.9004 -15.0195 -30.9805 -31.9199 -30.9805zM310.298 548.13
c-17.8398 0 -30.9697 14.0801 -30.9697 30.9805c0 18.7803 13.1299 32.8604 30.9697 32.8604c16.9004 0 31.9199 -14.0801 31.9199 -32.8604c0 -16.9004 -15.0195 -30.9805 -31.9199 -30.9805zM502.138 250.729l8.56543 0.000976562
c-13.9102 -42.6396 -30.7705 -79.3994 -49.54 -110.609c-105.42 -174.86 -325.45 -175.86 -398.95 -96.3604c-56.6504 61.29 -59.6904 159.58 -23.1602 245.771c3.50977 8.25977 7.24023 16.29 11.4199 24.3203c1.12988 2.37012 2.37988 4.62988 3.62012 6.89941
c3.05957 5.65039 6.21973 11.3105 9.62012 16.7402c2.82031 4.75 5.87988 9.26953 8.92969 13.7891c2.04004 3.05957 4.19043 6.10938 6.34082 9.0498c7.23047 9.95996 14.9307 19.46 23.1807 28.3896c2.49023 2.71973 4.98047 5.42969 7.58008 8.0293
c5.32031 5.54004 10.8604 10.8604 16.7402 15.7207c2.83008 2.61035 5.77051 4.98047 8.71094 7.36035c5.99023 4.62988 11.9902 9.04004 18.21 13.2305c6.21973 4.17969 12.5498 7.91992 19.1094 11.3096c9.73047 5.32031 19.8008 9.73047 30.0908 13.2305
c16.6299 5.76953 32.5703 10.0693 47.5 13.1191c6.55957 1.46973 13.0098 2.59961 19.2295 3.61914c0.910156 0.120117 1.81055 0.230469 2.60059 0.34082c2.37988 0.450195 4.75 0.680664 7.01953 0.911133c2.37012 0.339844 4.62988 0.55957 6.89941 0.790039
c2.25977 0.339844 4.51953 0.55957 6.66992 0.679688c2.25977 0.110352 4.41016 0.34082 6.56055 0.451172c2.15039 0.230469 4.30078 0.34082 6.45117 0.34082c6.15039 0.259766 12.1006 0.319336 17.8408 0.208984
c0.389648 -0.00976562 0.799805 0.0302734 1.16992 0.0205078h0.55957c15.3896 0.330078 29.9795 -1.36035 43.5498 -4.64062c0.339844 -0.110352 0.570312 -0.110352 0.900391 -0.230469c0.339844 -0.110352 0.570312 -0.110352 0.910156 -0.220703
c27.9404 -7.46973 51.3506 -22.1699 67.1807 -42.4199c0.459961 -0.55957 0.910156 -1.23926 1.36035 -1.80957v-0.110352c29.1797 -38.46 40.3799 -87.6602 37.21 -139.12v-2.83008h-396.07c-17.8604 -70.5098 -7.29004 -141.67 11.8398 -184.12
c47.9902 -106.45 295.46 -158.7 410.15 148.149zM86.123 307.171c-0.790039 -2.59961 -1.69727 -5.20117 -2.4873 -7.80078c-0.719727 -2.33008 -1.29004 -4.66992 -1.94043 -7.00977h339.67c-1.00977 30.8496 -5.7793 58.5498 -13.459 79.2803
c-19 51.3496 -68.54 100.1 -125.89 98.29c-0.450195 0 -0.790039 -0.110352 -1.24023 -0.110352c-3.50977 -0.110352 -7.00977 -0.450195 -10.6299 -0.910156c0.110352 0.120117 0.34082 0.120117 0.560547 0.230469h-0.679688
c-1.46973 -0.230469 -3.0498 -0.34082 -4.51953 -0.680664c-1.80957 -0.219727 -3.61914 -0.450195 -5.42871 -0.790039c-3.73047 -0.679688 -7.58008 -1.46973 -11.54 -2.37988c-5.76953 -1.24023 -11.7598 -2.94043 -17.8701 -4.9707
c-1.80957 -0.570312 -3.61914 -1.12988 -5.42871 -1.80957c-2.37012 -0.790039 -4.75 -1.7002 -7.24023 -2.71973c-2.70996 -1.00977 -5.30957 -2.14941 -8.0293 -3.2793c-3.5 -1.46973 -7.00977 -3.0498 -10.5098 -4.75
c-4.53027 -2.15039 -8.94043 -4.52051 -13.2402 -7.24023c-2.25977 -1.24023 -4.51953 -2.60059 -6.66992 -4.07031c-1.91992 -1.24023 -3.84961 -2.49023 -5.65918 -3.73047c-5.42969 -3.62012 -10.5195 -7.69043 -15.4893 -11.9902
c-2.37988 -2.03027 -4.75 -4.18066 -7.00977 -6.33105c-2.37988 -2.26953 -4.63965 -4.5293 -6.89941 -6.78906c-4.53027 -4.51953 -8.83008 -9.38965 -12.6699 -14.3594c-1.46973 -1.92969 -2.93945 -3.73926 -4.40918 -5.65918
c-0.910156 -1.01953 -1.7002 -2.14941 -2.49023 -3.2793c-1.58008 -2.03027 -3.16992 -4.2998 -4.53027 -6.55957c-3.73047 -5.2002 -7.12012 -10.6299 -10.1699 -16.29c-1.58984 -2.82031 -3.16992 -5.54004 -4.63965 -8.48047
c-1.58984 -2.83008 -2.93945 -5.65039 -4.40918 -8.60059c-1.36035 -2.94043 -2.7207 -5.76074 -4.08105 -8.82031c-2.70996 -5.87988 -5.08008 -11.8701 -7.23047 -17.8701c-1.01953 -2.70996 -1.92969 -5.42969 -2.93945 -8.13965
c-0.230469 -0.790039 -0.570312 -1.58984 -0.800781 -2.37988z" />
    <glyph glyph-name="igrave" unicode="&#xec;" horiz-adv-x="233" 
d="M198.71 511.52l-6.57031 0.000976562l-212.14 137.05l55.3701 13.1396zM140.88 111.641c0 -116.67 6.53027 -105.6 96.7998 -105.6v-6.04004h-235.93v6.04004c87.54 0 87.4297 -13.7305 87.4297 105.6l-0.0595703 287.35c0 55.0801 -76.0498 7.78027 -76.0498 7.78027
l-2.59961 3.36035l118.85 66.2402h11.5z" />
    <glyph glyph-name="iacute" unicode="&#xed;" horiz-adv-x="232" 
d="M220.724 648.57l-212.152 -137.05h-6.57129l163.336 150.192zM141.119 111.637c0 -116.668 6.53711 -105.595 96.8174 -105.595v-6.04004h-235.938v6.04004c87.5439 0 87.4307 -13.7314 87.4307 105.595l-0.0566406 287.355c0 55.082 -76.0518 7.78125 -76.0518 7.78125
l-2.60156 3.35938l118.852 66.2344h11.4912z" />
    <glyph glyph-name="icircumflex" unicode="&#xee;" horiz-adv-x="235" 
d="M116.029 604.459l-111.703 -119.213h-10.3262l122.029 176.467l122.029 -176.467h-10.3154zM141.24 111.637c0 -116.668 6.53711 -105.595 96.8174 -105.595v-6.04004h-235.938v6.04004c87.5439 0 87.4307 -13.7314 87.4307 105.595l-0.0566406 287.355
c0 55.082 -76.0518 7.78125 -76.0518 7.78125l-2.60156 3.35938l118.852 66.2344h11.4912z" />
    <glyph glyph-name="idieresis" unicode="&#xef;" horiz-adv-x="232" 
d="M46.5068 548.133c-17.8252 0 -30.9678 14.082 -30.9678 30.9805c0 18.7754 13.1426 32.8574 30.9678 32.8574c16.8975 0 31.918 -14.082 31.918 -32.8574c0 -16.8984 -15.0205 -30.9805 -31.918 -30.9805zM169.475 548.133c-17.8252 0 -30.9668 14.082 -30.9668 30.9805
c0 18.7754 13.1426 32.8574 30.9678 32.8574c16.8975 0 31.918 -14.082 31.918 -32.8574c0 -16.8984 -15.0205 -30.9805 -31.9189 -30.9805zM141.12 111.637c0 -116.668 6.53711 -105.595 96.8174 -105.595v-6.04004h-235.938v6.04004
c87.5439 0 87.4307 -13.7314 87.4307 105.595l-0.0566406 287.355c0 55.082 -76.0518 7.78125 -76.0518 7.78125l-2.60156 3.35938l118.852 66.2344h11.4912z" />
    <glyph glyph-name="ntilde" unicode="&#xf1;" horiz-adv-x="605" 
d="M222.601 582.867c-30.0293 11.2656 -112.641 16.9004 -138.927 -40.3652l-2.80469 0.938477c45.9883 122.029 164.263 79.7842 164.263 79.7842l103.254 -40.3564c29.1016 -12.2041 116.396 -11.2656 137.988 40.3555l3.75488 -0.938477
c-46.9385 -123.907 -165.213 -79.7852 -165.213 -79.7852zM516.336 111.106c0 -116.668 4.14258 -105.595 94.4229 -105.595v-6.04004h-235.927v6.04004c82.0693 0 85.5527 -12.0684 85.666 84.7383v175.562c0.791992 13.6855 0.678711 26.9189 0 39.5869
c0 0.56543 0 1.13086 -0.113281 1.69629c-1.58301 27.0322 -6.10742 51.2363 -13.0068 69.6729c-38.3877 103.311 -192.188 145.183 -306.278 -72.7266l0.0224609 -192.245c0 -116.668 6.53711 -105.595 96.8174 -105.595v-6.04004h-235.938v6.02832
c87.5439 0 87.4307 -13.7314 87.4307 105.595l-0.0566406 287.355c0 55.082 -76.0518 7.78125 -76.0518 7.78125l-2.60156 3.35938l118.852 66.2344h11.5029l0.0224609 -152.014c1.85449 3.25781 3.62988 6.70801 5.53027 9.85254
c105.414 174.974 271 177.349 330.493 101.342c27.9141 -35.7188 39.8242 -81.1758 39.1113 -129.042l0.101562 0.0791016v-195.627z" />
    <glyph glyph-name="ograve" unicode="&#xf2;" horiz-adv-x="497" 
d="M317.636 511.52l-6.57031 0.000976562l-212.14 137.05l55.3701 13.1396zM442.945 429.87c94.7695 -124.76 -0.688477 -364.649 -152.688 -416.909c-24.21 -8.25 -46.5996 -13.6797 -67.2998 -16.7393c-0.790039 -0.219727 -1.7002 -0.339844 -2.49023 -0.450195
c-17.8701 -2.59961 -34.3799 -3.61914 -49.54 -3.2793c-1.12988 0 -2.14941 -0.110352 -3.2793 0c-13.7998 -0.339844 -26.9199 1.02051 -39.3604 3.85059c-1.7002 0.219727 -3.39062 0.679688 -4.98047 1.00977c-28.2695 7.36035 -52.0195 22.0605 -68.0898 42.6504
c-0.450195 0.55957 -0.900391 1.23926 -1.35059 1.80957c-94.9004 124.75 0.679688 364.65 152.689 416.9c23.9805 8.25977 46.2607 13.5693 66.7305 16.7393c20.1299 3.05957 38.46 4.06934 55.2002 3.72949h0.55957c15.3799 0.339844 29.9795 -1.35059 43.5498 -4.63086
c0.339844 -0.120117 0.55957 -0.120117 0.899414 -0.230469c28.2803 -7.34961 52.0303 -22.1699 68.0898 -42.6396c0.450195 -0.570312 0.910156 -1.24023 1.36035 -1.81055zM293.407 22.7998c71.4902 34.6104 109.26 107.911 124.189 181.551
c2.71973 13.0098 4.63965 26.0098 6 38.9102c4.96973 50.5596 -0.120117 98.0596 -11.7705 129.5c-19.0498 51.3398 -68.54 100.1 -125.89 98.3398c-0.429688 -0.0302734 -0.859375 -0.0703125 -1.28906 -0.0898438c-3.5 -0.160156 -7.03027 -0.44043 -10.5801 -0.990234
c0.230469 0.120117 0.450195 0.230469 0.790039 0.34082c-0.339844 -0.110352 -0.55957 -0.110352 -0.899414 -0.110352c-21.8301 -2.59961 -45.4697 -9.2793 -70.5801 -21.3789c-71.3701 -34.6104 -109.15 -107.79 -124.19 -181.19
c-2.70996 -13.1201 -4.63965 -26.3604 -5.98926 -39.25c-4.98047 -50.6699 0.109375 -98.0596 11.7598 -129.51c20.3604 -54.8398 47.2803 -103.41 137.82 -97.4805c0.290039 0.0195312 0.589844 0.0390625 0.849609 0.0986328
c21.5996 2.70996 45.0098 9.26953 69.7793 21.2598z" />
    <glyph glyph-name="oacute" unicode="&#xf3;" horiz-adv-x="497" 
d="M362.441 648.57l-212.14 -137.051h-6.57031l163.33 150.19zM442.952 433.899c94.79 -124.76 -0.668945 -364.658 -152.699 -416.908c-24.2002 -8.25977 -46.6006 -13.6895 -67.291 -16.7393c-0.799805 -0.230469 -1.7002 -0.34082 -2.49023 -0.451172
c-17.8701 -2.59961 -34.3896 -3.61914 -49.54 -3.2793c-1.12988 0 -2.14941 -0.120117 -3.2793 0c-13.7998 -0.339844 -26.9199 1.02051 -39.3604 3.84082c-1.7002 0.230469 -3.40039 0.680664 -4.98047 1.02051c-28.2803 7.34961 -52.0303 22.0596 -68.0898 42.6396
c-0.450195 0.570312 -0.900391 1.25 -1.36035 1.80957c-94.8896 124.76 0.680664 364.649 152.7 416.909c23.9697 8.25977 46.2598 13.5693 66.7295 16.7393c20.1299 3.0498 38.4502 4.06934 55.1904 3.72949h0.570312c15.3799 0.339844 29.9697 -1.36035 43.54 -4.64062
c0.339844 -0.110352 0.570312 -0.110352 0.910156 -0.220703c28.2803 -7.34961 52.0303 -22.1699 68.0898 -42.6396c0.450195 -0.570312 0.900391 -1.25 1.36035 -1.80957zM293.434 26.8311c71.4805 34.6104 109.259 107.901 124.188 181.552
c2.71973 13 4.63965 26.0098 6 38.8994c4.96973 50.5596 -0.120117 98.0693 -11.7705 129.51c-19.0498 51.3398 -68.54 100.1 -125.89 98.3301c-0.429688 -0.0195312 -0.859375 -0.0595703 -1.28906 -0.0898438c-3.5 -0.160156 -7.03027 -0.44043 -10.5801 -0.980469
c0.230469 0.110352 0.450195 0.230469 0.790039 0.34082c-0.339844 -0.110352 -0.55957 -0.110352 -0.899414 -0.110352c-21.8301 -2.61035 -45.4697 -9.28027 -70.5801 -21.3799c-71.3701 -34.6104 -109.15 -107.79 -124.19 -181.2
c-2.70996 -13.1201 -4.63965 -26.3506 -5.98926 -39.2402c-4.98047 -50.6797 0.109375 -98.0693 11.7598 -129.51c20.3604 -54.8398 47.2803 -103.41 137.82 -97.4902c0.290039 0.0302734 0.570312 0.0498047 0.850586 0.109375
c21.5996 2.70996 45.0098 9.26953 69.7793 21.2598z" />
    <glyph glyph-name="ocircumflex" unicode="&#xf4;" horiz-adv-x="497" 
d="M269.341 615.77l-111.7 -119.21h-10.3301l122.03 176.46l122.03 -176.46h-10.3301zM442.95 433.89c94.7803 -124.76 -0.679688 -364.658 -152.699 -416.908c-24.2002 -8.25977 -46.6006 -13.6895 -67.291 -16.7393
c-0.799805 -0.230469 -1.7002 -0.34082 -2.49023 -0.451172c-17.8701 -2.59961 -34.3896 -3.61914 -49.54 -3.2793c-1.12988 0 -2.14941 -0.120117 -3.2793 0c-13.7998 -0.339844 -26.9199 1.00977 -39.3604 3.83984c-1.7002 0.230469 -3.40039 0.680664 -4.98047 1.02051
c-28.2803 7.34961 -52.0303 22.0596 -68.0898 42.6396c-0.450195 0.570312 -0.900391 1.25 -1.36035 1.80957c-94.8896 124.76 0.680664 364.649 152.7 416.909c23.9697 8.25 46.2598 13.5703 66.7295 16.7402c20.1299 3.0498 38.4502 4.06934 55.1904 3.72949h0.570312
c15.3799 0.339844 29.9697 -1.36035 43.54 -4.64062c0.339844 -0.110352 0.570312 -0.110352 0.910156 -0.220703c28.2803 -7.36035 52.0303 -22.1699 68.0898 -42.6504c0.450195 -0.55957 0.900391 -1.23926 1.36035 -1.79883zM293.42 26.8213
c71.4805 34.6104 109.258 107.9 124.198 181.54c2.71973 13.0098 4.63965 26.0195 6 38.9092c4.96973 50.5596 -0.120117 98.0596 -11.7705 129.51c-19.0498 51.3398 -68.54 100.1 -125.89 98.3301c-0.429688 -0.0195312 -0.859375 -0.0693359 -1.28906 -0.0888672
c-3.50977 -0.160156 -7.04004 -0.44043 -10.5898 -0.980469c0.230469 0.110352 0.450195 0.220703 0.790039 0.34082c-0.339844 -0.120117 -0.55957 -0.120117 -0.899414 -0.120117c-21.8301 -2.59961 -45.4697 -9.26953 -70.5801 -21.3691
c-71.3701 -34.6104 -109.15 -107.79 -124.19 -181.2c-2.71973 -13.1201 -4.63965 -26.3506 -6 -39.251c-4.96973 -50.6699 0.120117 -98.0596 11.7705 -129.5c20.3604 -54.8496 47.2803 -103.409 137.82 -97.4893c0.290039 0.0302734 0.580078 0.0498047 0.839844 0.109375
c21.6104 2.70996 45.0205 9.26953 69.79 21.2598z" />
    <glyph glyph-name="otilde" unicode="&#xf5;" horiz-adv-x="497" 
d="M200.981 582.87c-30.04 11.2598 -112.641 16.8984 -138.931 -40.3711l-2.80957 0.94043c45.9805 122.03 164.261 79.7803 164.261 79.7803l103.26 -40.3496c29.0996 -12.21 116.399 -11.2695 137.979 40.3506l3.75977 -0.94043
c-46.9297 -123.9 -165.199 -79.7803 -165.199 -79.7803zM442.95 429.85c94.7803 -124.76 -0.679688 -364.649 -152.699 -416.909c-24.2002 -8.25977 -46.6006 -13.6797 -67.291 -16.7393c-0.799805 -0.219727 -1.7002 -0.339844 -2.49023 -0.450195
c-17.8701 -2.59961 -34.3896 -3.61914 -49.54 -3.2793c-1.12988 0 -2.14941 -0.110352 -3.2793 0c-13.7998 -0.339844 -26.9199 1.02051 -39.3604 3.84082c-1.7002 0.230469 -3.40039 0.680664 -4.98047 1.02051c-28.2803 7.34961 -52.0303 22.0596 -68.0898 42.6396
c-0.450195 0.570312 -0.900391 1.25 -1.36035 1.80957c-94.8896 124.76 0.680664 364.649 152.7 416.909c23.9697 8.25977 46.2598 13.5693 66.7295 16.7393c20.1299 3.0498 38.4502 4.06934 55.1904 3.72949h0.570312c15.3799 0.339844 29.9697 -1.36035 43.54 -4.64062
c0.339844 -0.110352 0.570312 -0.110352 0.910156 -0.220703c28.2803 -7.34961 52.0303 -22.1699 68.0898 -42.6396c0.450195 -0.570312 0.900391 -1.25 1.36035 -1.80957zM293.42 22.7793c71.4805 34.6104 109.26 107.903 124.189 181.554
c2.71973 13 4.63965 26.0098 6 38.8994c4.96973 50.5596 -0.120117 98.0693 -11.7705 129.51c-19.0596 51.3398 -68.54 100.1 -125.9 98.3301c-0.429688 -0.0195312 -0.849609 -0.0595703 -1.2793 -0.0898438c-3.5 -0.150391 -7.03027 -0.44043 -10.5801 -0.980469
c0.230469 0.110352 0.450195 0.230469 0.790039 0.34082c-0.339844 -0.110352 -0.55957 -0.110352 -0.899414 -0.110352c-21.8301 -2.61035 -45.4697 -9.28027 -70.5801 -21.3799c-71.3701 -34.6104 -109.15 -107.79 -124.19 -181.2
c-2.71973 -13.1201 -4.63965 -26.3506 -6 -39.2402c-4.96973 -50.6699 0.120117 -98.0703 11.7705 -129.511c20.3604 -54.8398 47.2803 -103.41 137.82 -97.4805c0.290039 0.0195312 0.570312 0.0390625 0.839844 0.0986328c21.6104 2.70996 45.0205 9.26953 69.79 21.2598z
" />
    <glyph glyph-name="odieresis" unicode="&#xf6;" horiz-adv-x="497" 
d="M200.561 548.13c-17.8398 0 -30.9795 14.0801 -30.9795 30.9805c0 18.7803 13.1396 32.8604 30.9795 32.8604c16.9004 0 31.9102 -14.0801 31.9102 -32.8604c0 -16.9004 -15.0098 -30.9805 -31.9102 -30.9805zM323.53 548.13
c-17.8398 0 -30.9795 14.0801 -30.9795 30.9805c0 18.7803 13.1396 32.8604 30.9795 32.8604c16.9004 0 31.9102 -14.0801 31.9102 -32.8604c0 -16.9004 -15.0098 -30.9805 -31.9102 -30.9805zM442.95 429.86c94.79 -124.76 -0.679688 -364.65 -152.699 -416.91
c-24.2002 -8.25 -46.6006 -13.6797 -67.291 -16.7393c-0.799805 -0.219727 -1.7002 -0.339844 -2.49023 -0.450195c-17.8701 -2.59961 -34.3896 -3.61914 -49.54 -3.2793c-1.12988 0 -2.14941 -0.110352 -3.2793 0c-13.7998 -0.339844 -26.9199 1.02051 -39.3604 3.85059
c-1.7002 0.219727 -3.40039 0.669922 -4.98047 1.00977c-28.2803 7.36035 -52.0303 22.0605 -68.0898 42.6406c-0.450195 0.570312 -0.900391 1.25 -1.36035 1.80957c-94.8896 124.76 0.680664 364.66 152.7 416.91c23.9697 8.25977 46.2598 13.5693 66.7295 16.7393
c20.1299 3.0498 38.4502 4.06934 55.1904 3.72949h0.570312c15.3799 0.339844 29.9697 -1.35059 43.54 -4.63086c0.339844 -0.120117 0.570312 -0.120117 0.910156 -0.230469c28.2803 -7.34961 52.0303 -22.1699 68.0898 -42.6396
c0.450195 -0.570312 0.900391 -1.25 1.36035 -1.80957zM293.42 22.7891c71.4805 34.6104 109.26 107.9 124.189 181.551c2.71973 13 4.63965 26.0098 6 38.9102c4.96973 50.5498 -0.120117 98.0596 -11.7705 129.5c-19.0596 51.3398 -68.54 100.1 -125.9 98.3398
c-0.429688 -0.0302734 -0.849609 -0.0703125 -1.2793 -0.0898438c-3.5 -0.160156 -7.03027 -0.450195 -10.5801 -0.990234c0.230469 0.110352 0.450195 0.230469 0.790039 0.34082c-0.339844 -0.110352 -0.55957 -0.110352 -0.899414 -0.110352
c-21.8301 -2.59961 -45.4697 -9.2793 -70.5801 -21.3789c-71.3701 -34.6104 -109.15 -107.79 -124.19 -181.19c-2.71973 -13.1201 -4.63965 -26.3604 -6 -39.25c-4.96973 -50.6699 0.120117 -98.0596 11.7705 -129.51c20.3604 -54.8398 47.2803 -103.41 137.82 -97.4805
c0.290039 0.0195312 0.570312 0.0390625 0.839844 0.0986328c21.6104 2.70996 45.0205 9.26953 69.79 21.2598z" />
    <glyph glyph-name="oslash" unicode="&#xf8;" horiz-adv-x="497" 
d="M442.951 426.35c94.7803 -124.75 -0.682617 -364.65 -152.683 -416.9c-24.21 -8.25977 -46.5996 -13.6895 -67.2998 -16.7393c-0.790039 -0.230469 -1.7002 -0.34082 -2.49023 -0.460938c-17.8701 -2.59961 -34.3799 -3.61914 -49.54 -3.2793
c-1.12988 0 -2.14941 -0.110352 -3.2793 0c-10.6797 -0.269531 -20.8096 0.770508 -30.6797 2.44043l-31.0195 -56.1602l-9.90039 5.45996l29.1299 52.7402c-0.620117 0.150391 -1.28027 0.260742 -1.87988 0.390625c-28.2803 7.34961 -52.0303 22.0498 -68.0898 42.6396
c-0.450195 0.55957 -0.900391 1.23926 -1.36035 1.80957c-94.8896 124.75 0.680664 364.65 152.7 416.9c23.9697 8.25977 46.2598 13.5801 66.7295 16.7402c20.1299 3.05957 38.4502 4.0791 55.1904 3.73926h0.570312c15.3799 0.339844 29.9697 -1.36035 43.54 -4.64062
c0.339844 -0.110352 0.570312 -0.110352 0.910156 -0.230469c4.49023 -1.16016 8.82031 -2.58984 13.0703 -4.12988l16.4404 29.75l9.90039 -5.45996l-15.79 -28.5898c17.8896 -8.19043 33.1201 -19.75 44.4697 -34.21
c0.450195 -0.55957 0.900391 -1.23926 1.36035 -1.80957zM203.389 445.35c-71.3701 -34.6104 -109.152 -107.789 -124.192 -181.189c-2.71973 -13.1201 -4.63965 -26.3506 -6 -39.251c-4.96973 -50.6699 0.120117 -98.0596 11.7705 -129.5
c11.7305 -31.6201 25.7207 -61.0703 52.7402 -79.2803l230.69 417.63c-22.8398 20.9697 -51.4902 34.7695 -82.46 33.8193c-0.429688 -0.0195312 -0.849609 -0.0693359 -1.2793 -0.0888672c-3.5 -0.160156 -7.03027 -0.44043 -10.5801 -0.990234
c0.230469 0.120117 0.450195 0.230469 0.790039 0.34082c-0.339844 -0.110352 -0.55957 -0.110352 -0.899414 -0.110352c-21.8301 -2.59961 -45.4697 -9.26953 -70.5801 -21.3799zM293.417 19.291c71.4805 34.6104 109.261 107.9 124.201 181.53
c2.71973 13.0098 4.63965 26.0098 6 38.9102c4.96973 50.5596 -0.120117 98.0596 -11.7705 129.5c-7.45996 20.1299 -19.6396 39.8203 -35.0898 56.2607l-229.29 -415.09c18.7197 -9.65039 42.8896 -14.6104 75.3193 -12.4805
c0.290039 0.0195312 0.580078 0.0498047 0.839844 0.0996094c21.6104 2.71973 45.0205 9.2793 69.79 21.2695z" />
    <glyph glyph-name="ugrave" unicode="&#xf9;" horiz-adv-x="583" 
d="M397.024 511.521h-6.57129l-212.141 137.05l55.3877 13.1426zM579.995 70.1152l2.59961 -3.3916l-118.874 -66.2793h-11.4238v152.172c-1.87793 -3.29102 -3.67676 -6.78613 -5.59961 -9.96484c-105.414 -174.974 -271 -177.349 -330.493 -101.342
c-27.9033 35.707 -39.8135 81.1299 -39.1123 128.984l-0.0791016 -0.0791016v195.672c0 14.082 -0.0791016 26.1279 -0.350586 36.7256h-0.0117188c0 55.082 -76.0518 7.78125 -76.0518 7.78125l-2.60156 3.35938l118.852 66.2344h17.3281l-0.950195 -58.2266h0.113281
c-0.452148 -11.1973 -0.452148 -24.8828 -0.452148 -41.5098v-169.093l-0.0566406 -0.0449219c-0.791992 -13.6514 -0.678711 -26.8623 0 -39.5078c0 -0.56543 0 -1.13086 0.113281 -1.69629c1.58301 -27.0322 6.10742 -51.2363 13.0068 -69.6729
c38.3994 -103.322 192.245 -145.194 306.346 72.8613l-0.113281 192.109c0 14.3867 -0.124023 26.6582 -0.462891 37.4258l-0.0673828 -0.0224609c0 55.082 -76.0518 7.78125 -76.0518 7.78125l-2.60156 3.35938l118.852 66.2344h13.9121l-1.20996 -58.2266
c-0.678711 -14.3643 -0.678711 -32.8008 -0.678711 -56.5527l0.113281 -287.4c0 -55.082 76.0068 -7.69043 76.0068 -7.69043z" />
    <glyph glyph-name="uacute" unicode="&#xfa;" horiz-adv-x="583" 
d="M390.276 648.57l-212.141 -137.05h-6.57129l163.336 150.192zM580.994 68.8145l2.58691 -3.3916l-118.874 -66.2793h-11.4238v152.172c-1.87793 -3.29102 -3.6875 -6.78613 -5.59863 -9.96484c-105.414 -174.974 -271 -177.349 -330.493 -101.342
c-27.9033 35.707 -39.8135 81.1299 -39.1123 128.984l-0.0791016 -0.0791016v195.672c0 14.082 -0.0673828 26.1279 -0.350586 36.7256c0 55.082 -76.0518 7.78125 -76.0518 7.78125l-2.60156 3.35938l118.852 66.2344h17.3281l-0.950195 -58.2266h0.113281
c-0.452148 -11.1973 -0.452148 -24.8828 -0.452148 -41.5098v-169.093l-0.0566406 -0.0449219c-0.791992 -13.6514 -0.678711 -26.8623 0 -39.5078c0 -0.56543 0 -1.13086 0.113281 -1.69629c1.58301 -27.0322 6.10742 -51.2363 13.0068 -69.6729
c38.3994 -103.322 192.245 -145.194 306.346 72.8613l-0.113281 192.109c0 14.3867 -0.124023 26.6582 -0.462891 37.4258l-0.0673828 -0.0224609c0 55.082 -76.0518 7.78125 -76.0518 7.78125l-2.60156 3.35938l118.852 66.2344h13.9121l-1.20996 -58.2266
c-0.678711 -14.3643 -0.678711 -32.8008 -0.678711 -56.5527l0.113281 -287.4c0 -55.082 76.0068 -7.69043 76.0068 -7.69043z" />
    <glyph glyph-name="ucircumflex" unicode="&#xfb;" horiz-adv-x="583" 
d="M288.945 604.459l-111.703 -119.213h-10.3262l122.029 176.467l122.029 -176.467h-10.3262zM580.994 65.2627l2.59961 -3.39258l-118.874 -66.2793h-11.4238v152.172c-1.87793 -3.29102 -3.67676 -6.78613 -5.59961 -9.96484
c-105.414 -174.974 -271 -177.349 -330.493 -101.342c-27.9033 35.707 -39.8135 81.1299 -39.1123 128.984l-0.0791016 -0.0791016v195.672c0 14.082 -0.0673828 26.1279 -0.350586 36.7256h-0.0117188c0 55.082 -76.0518 7.78125 -76.0518 7.78125l-2.60156 3.35938
l118.852 66.2344h17.3281l-0.950195 -58.2266h0.113281c-0.113281 -2.79395 -0.192383 -5.74609 -0.259766 -8.85645v-0.101562c-0.192383 -9.33105 -0.192383 -20.1211 -0.192383 -32.5518v-169.093l-0.0566406 -0.0449219
c-0.791992 -13.6514 -0.678711 -26.8623 0 -39.5078c0 -0.56543 0 -1.13086 0.113281 -1.69629c1.58301 -27.0322 6.10742 -51.2363 13.0068 -69.6729c38.3994 -103.321 192.245 -145.193 306.346 72.8623l-0.113281 192.109c0 14.3867 -0.124023 26.6582 -0.462891 37.4258
l-0.0673828 -0.0224609c0 55.082 -76.0518 7.78125 -76.0518 7.78125l-2.60156 3.35938l118.852 66.2344h13.9121l-1.20996 -58.2266c-0.678711 -14.3643 -0.678711 -32.8008 -0.678711 -56.5527l0.113281 -287.4c0 -55.082 76.0068 -7.69043 76.0068 -7.69043z" />
    <glyph glyph-name="udieresis" unicode="&#xfc;" horiz-adv-x="583" 
d="M224.109 548.133c-17.8252 0 -30.9668 14.082 -30.9668 30.9805c0 18.7754 13.1426 32.8574 30.9678 32.8574c16.8975 0 31.918 -14.082 31.918 -32.8574c0 -16.8984 -15.0205 -30.9805 -31.9189 -30.9805zM347.078 548.133c-17.8252 0 -30.9668 14.082 -30.9668 30.9805
c0 18.7754 13.1426 32.8574 30.9678 32.8574c16.8975 0 31.918 -14.082 31.918 -32.8574c0 -16.8984 -15.0205 -30.9805 -31.9189 -30.9805zM579.997 70.3984l2.60059 -3.3916l-118.874 -66.2793h-11.4238v152.172c-1.87793 -3.29102 -3.67676 -6.78613 -5.59961 -9.96484
c-105.414 -174.974 -271 -177.349 -330.493 -101.342c-27.9033 35.707 -39.8135 81.1299 -39.1123 128.984l-0.0791016 -0.0791016v195.672c0 14.082 -0.0683594 26.1279 -0.351562 36.7256h-0.0117188c0 55.082 -76.0518 7.78125 -76.0518 7.78125l-2.60156 3.35938
l118.852 66.2344h17.3281l-0.950195 -58.2266h0.113281c-0.113281 -2.79395 -0.192383 -5.74609 -0.259766 -8.85645v-0.101562c-0.192383 -9.33105 -0.192383 -20.1211 -0.192383 -32.5518v-169.093l-0.0566406 -0.0449219
c-0.791992 -13.6514 -0.678711 -26.8623 0 -39.5078c0 -0.56543 0 -1.13086 0.113281 -1.69629c1.58301 -27.0322 6.10742 -51.2363 13.0068 -69.6729c38.3994 -103.322 192.245 -145.194 306.346 72.8613l-0.113281 192.109c0 14.3867 -0.124023 26.6582 -0.462891 37.4258
l-0.0673828 -0.0224609c0 55.082 -76.0518 7.78125 -76.0518 7.78125l-2.60156 3.35938l118.852 66.2344h13.9121l-1.20996 -58.2266c-0.678711 -14.3643 -0.678711 -32.8008 -0.678711 -56.5527l0.113281 -287.4c0 -55.082 76.0068 -7.69043 76.0068 -7.69043z" />
    <glyph glyph-name="yacute" unicode="&#xfd;" horiz-adv-x="608" 
d="M413.327 648.57l-212.151 -137.05h-6.57129l163.347 150.192zM350.735 470.282h263.195v-8.48242c-83.1328 0 -111.296 -13.2334 -155.973 -118.309l-160.496 -360.467c-48.8613 -109.825 -105.188 -165.134 -196.237 -165.134
c-10.9717 0 -20.8115 0.905273 -29.5205 2.60156v68.3154c19.0586 -14.5342 49.4277 -33.3662 84.9424 -33.3662c45.0156 0 88.2217 31.8955 131.428 129.506l10.293 23.4131l-149.299 330.494c-59.833 128.827 -61.416 121.136 -155.067 122.945v8.48242h265.119v-8.48242
c-37.7773 -1.58301 -91.0498 7.23926 -92.2939 -24.4307c-0.678711 -16.4004 6.67285 -31.8955 23.6387 -70.3516l135.161 -296.676l123.851 278.805c42.7539 111.861 10.5186 112.653 -98.7412 112.653v8.48242z" />
    </font>
</defs>
</svg>
